/* XPM */
static char *result[] = {
/* columns rows colors chars-per-pixel */
"32 32 13 1 ",
"  c gray19",
". c #686860",
"X c #884810",
"o c #C87010",
"O c #138054",
"+ c #16905E",
"@ c #18A068",
"# c #F8A840",
"$ c #40B080",
"% c #989890",
"& c #F8E8B0",
"* c #D0C8C0",
"= c #F0F0E0",
/* pixels */
"$$$$$$$$$$$$$$$$$$$$$$$$$$$$$$$$",
"$$$$$$$$$$$$$$$$$$$$$$$$$$$$$$$$",
"$$$$$$$$$$$$$$$$$$$$$$$$@@$$@@$$",
"$$$$$$$$$$$$$$$$$$$$$$$$@@$$@@$$",
"$$@@$$@@$$$$$      $$$$$$$@@$$$$",
"$$@@$$@@$$$  ====** $$$$$$@@$$$$",
"$$$$@@$$$$ ====*...* $$$$$$$$$$$",
"$$$$@@$$$ ====*.         $$$$$$$",
"$$$$$$$$$ ===*.*****===== $$$$$$",
"$$$$$$$  ====*.***=====*% $$$$$$",
"$$$$$  =.====.**=====*%%% $$$$$$",
"$$$$ ===.****.*====*%%%%% $$$$$$",
"$$$$ ***.****.%****%%%%X $$$$$$$",
"$$$$ ***.****.%****%%XXo $$$$$$$",
"$$$$ ***.****.%****XXooo $$$$$$$",
"$$$$$ oo.*oo*.XoooXooooo $$$$$$$",
"$$$$$ ##.o&#X.o###oooooo $$$$$$$",
"$$$$$ ##.o##X.o###oooooo $$$$$$$",
"$$$$$ ##.*XX*.o###oooooo $$$$$$$",
"$$$$$ ###.**.oo###oooooX $$$$$$$",
"$$$$$ ####..oo####ooooX O$$$$$$$",
"$$$$$ ############ooXXX +@$$$$$$",
"$$$$$ o##########oXXXX O@$$$$$$$",
"$$$$$@ oooooooooooXX  O+$$$$$$$$",
"$$$$$$$ oooooooooX  O+@$$$$$$$$$",
"$$$$$$$@          O++@$$$$$$$$$$",
"$$$$$$$$$$$$$$$$$$$$$$$$$$$$$$$$",
"$$$$$$$$$$$$$$$$$$$$$$$$$$$$$$$$",
"$$$$$$$$$$$$$$$$$$$$$$$$$$$$$$$$",
"$$$$$$$$$$$$$$$$$$$$$$$$$$$$$$$$",
"$$$$$$$$$$$$$$$$$$$$$$$$$$$$$$$$",
"$$$$$$$$$$$$$$$$$$$$$$$$$$$$$$$$"
};
