/* XPM */
static char *result[] = {
/* columns rows colors chars-per-pixel */
"32 32 16 1 ",
"  c black",
". c #2E2E35",
"X c #44444C",
"o c #784040",
"O c #C03838",
"+ c #A87840",
"@ c #F86848",
"# c #18A068",
"$ c #B89838",
"% c #D89070",
"& c #C8B068",
"* c #F8D858",
"= c #40B080",
"- c #70C0A0",
"; c #F8C090",
": c #E8E8F8",
/* pixels */
"================================",
"================================",
"========================##==##==",
"==============    ======##==##==",
"==##==##====  $**$  ======##====",
"==##==##=== .$****$. =====##====",
"====##==== .********. ==========",
"====##==== $$*...**$$ ==========",
"========== $$..X..$$$ ==========",
"========= + ..X..$$$ + =========",
"========= %  ...     % =========",
"========== o%;;;;;;%o ==========",
"======--== %%; ;; ;%% ==========",
"======--===o%%o;;o%%o===========",
"========== O:o%%%%o:O ==========",
"=========o;OO:    :OO;o=========",
"=========o%%OOOOOOOO%%o=========",
"==========o  O@::@O  o==========",
"========##=&*&    &*&===========",
"========##=  **  **  ===========",
"==========# && == && ===========",
"==========##  ====  ============",
"================================",
"================================",
"==================##==##========",
"==================##==##========",
"====================##==========",
"====================##==========",
"================================",
"================================",
"================================",
"================================"
};
