/* XPM */
static char *a1b4108db8004933bf86152b0e1f626dRHeEtqNQCH4BvzAy[] = {
/* columns rows colors chars-per-pixel */
"16 16 16 1 ",
"  c black",
". c #132051",
"X c #414141",
"o c DimGray",
"O c #7BB524",
"+ c #9BD940",
"@ c #ADE061",
"# c #1E3180",
"$ c #2843AC",
"% c #415FD3",
"& c #7086DE",
"* c #8D8D8D",
"= c #BDE680",
"- c #C0C0C0",
"; c #DDDDDD",
": c gray94",
/* pixels */
"@O+==O=O@=+=O@@@",
"O              @",
" *$%:-$%%$-:%$* ",
" ;&&:;%&&%;:&&; ",
" -%%;-$%%$-;%%- ",
" *%#;*####*;#%* ",
" *$$;o#$$#o;$$* ",
" o#.;o.##.o;.#o ",
" o##-o.::.o-##o ",
" *-.*X-  -X*.-* ",
" ****X- o-X**** ",
"    ooX--Xoo    ",
" o.#...  ...#.o ",
" *.$$$$$$$$$$.* ",
" *ooo******ooo* ",
"                "
};
