/* XPM */
static char *result[] = {
/* columns rows colors chars-per-pixel */
"64 64 22 1 ",
"  c #798A7F",
". c #CCB332",
"X c #FFCC03",
"o c #FECB04",
"O c #F6C70C",
"+ c #9C9B5F",
"@ c #3C6CB7",
"# c #3769B9",
"$ c #386ABB",
"% c #3A6BBA",
"& c #5E7D98",
"* c #5A7B9C",
"= c #4872AC",
"- c #4773BA",
"; c #718687",
": c #5B80BB",
"> c #6B8BBB",
", c #A6AEBE",
"< c #A9B1BD",
"1 c gray74",
"2 c gray",
"3 c None",
/* pixels */
"3333333333333333333333333333333333333333333333333333333333333333",
"3333333333333333333333333333333333333$$$$$3333333333333333333333",
"3333333333333333333333333333333333$$$$$$$$$333333333333333333333",
"3333333333333333333333333333333$$$$$$$$$$$$$33333333333333333333",
"3333333333333333333333333333$$$$$$$$$$$$$$$$>3333333333333333333",
"3333333333333333333333333$$$$$$$$$$$$$$$$$$$$3333333333333333333",
"3333333333333333333333$$$$$$$$$$$$$$$XXX$$$$$3333333333333333333",
"333333333333333333333$$$$$$$$$$$$$XXXXXX$$$$$3333333333333333333",
"33333333333333333333$$$$$$$$$$$XXXXXXXXX$$$$$3333333333333333333",
"3333333333333333333#$$$$$$$$XXXXXXXXXXXX$$$$$3333333333333333333",
"3333333333333333333$$$$$$XXXXXXXXXXXXXXX$$$$$3333333333333333333",
"3333333333333333333$$$$$XXXXXXXXXXXXXXXX$$$$$3333333333333333333",
"3333333333333333333$$$$$XXXXXXXXXXXXXXXX$$$$$3333333333333333333",
"3333333333333333333$$$$$XXXXXXXXXXXXXXXX$$$$$3333333333333333333",
"333333333333333333$$$$$XXXXXXXXXXXXXXXXX$$$$$3333333333333333333",
"333333333333333333$$$$$XXXXXXXXXXXXXXXXX$$$$$3333333333333333333",
"333333333333333333$$$$$XXXXXXXXXXXXXXXXX$$$$$3333333333333333333",
"333333333333333333$$$$$XXXX*$XXXXXXXXXXX$$$$$3333333333333333333",
"333333333333333333$$$$$$$$$$$XXXXXXXXXXX$$$$$3333333333333333333",
"3333333333333333333$$$$$$$$$$XXXXXXXXXXX$$$$$3333333333333333333",
"3333333333333333333$$$$$$$$$$XXXXXXXXXXX$$$$$3333333333333333333",
"33333333333333333333$$$$$$$$$XXXXXXXXXXX$$$$$3333333333333333333",
"3333333333333333333333$$$$$$$XXXXXXXXXXX$$$$$3333333333333333333",
"333333333333333333333333$$$$$XXXXXXXXXXX$$$$$3333333333333333333",
"333333333333333333333333$$$$$XXXXXXXXXXX$$$$$3333333333333333333",
"333333333333333333333333$$$$$XXXXXXXXXXX$$$$$3333333333333333333",
"333333333333333333333333$$$$$XXXXXXXXXXX$$$$$3333333333333333333",
"333333333333333333333333$$$$$XXXXXXXXXXX$$$$$3333333333333333333",
"333333333333333333333333$$$$$XXXXXXXXXXX$$$$$3333333333333333333",
"333333333333333333333333$$$$$XXXXXXXXXXX$$$$$3333333333333333333",
"333333333333333333333333$$$$$XXXXXXXXXXX$$$$$3333333333333333333",
"333333333333333333333333$$$$$XXXXXXXXXXX$$$$$3333333333333333333",
"333333333333333333333333$$$$$XXXXXXXXXXX$$$$$3333333333333333333",
"333333333333333333333333$$$$$XXXXXXXXXXX$$$$$3333333333333333333",
"333333333333333333333333$$$$$XXXXXXXXXXX$$$$$3333333333333333333",
"333333333333333333333333$$$$$XXXXXXXXXXX$$$$$3333333333333333333",
"333333333333333333333333$$$$$XXXXXXXXXXX$$$$$3333333333333333333",
"333333333333333333333333$$$$$XXXXXXXXXXX$$$$$3333333333333333333",
"333333333333333333333333$$$$$XXXXXXXXXXX$$$$$3333333333333333333",
"333333333333333333333333$$$$$XXXXXXXXXXX$$$$$3333333333333333333",
"333333333333333333333333$$$$$XXXXXXXXXXX$$$$$3333333333333333333",
"333333333333333333333333$$$$@XXXXXXXXXXX$$$$$3333333333333333333",
"333333333333333333333333$$$$=XXXXXXXXXXX$$$$$3333333333333333333",
"333333333333333333333333$$$$&XXXXXXXXXXX$$$$$3333333333333333333",
"333333333333333333333333$$$$ XXXXXXXXXXX$$$$$3333333333333333333",
"333333333333333333333333$$$$+XXXXXXXXXXX$$$$$3333333333333333333",
"333333333333333333333333$$$$.XXXXXXXXXXX$$$$$3333333333333333333",
"333333333333333333333333$$$$oXXXXXXXXXXX$$$$$3333333333333333333",
"333333333333333333333333$$$$XXXXXXXXXXXX$$$$$3333333333333333333",
"333333333333333333333333$$$$XXXXXXXXXXXX$$$$$2333333333333333333",
"333333333333333333333333$$$$XXXXXXXXXXXX$$$$$1333333333333333333",
"333333333333333333333333$$$$XXXXXXXXO;%$$$$$$3333333333333333333",
"333333333333333333333333$$$$$$$$$$$$$$$$$$$$$3333333333333333333",
"333333333333333333333333$$$$$$$$$$$$$$$$$$$$<3333333333333333333",
"3333333333333333333333333$$$$$$$$$$$$$$$$$$$33333333333333333333",
"33333333333333333333333333$$$$$$$$$$$$$$$$2333333333333333333333",
"333333333333333333333333333-$$$$$:,22213333333333333333333333333",
"3333333333333333333333333333333333333333333333333333333333333333",
"3333333333333333333333333333333333333333333333333333333333333333",
"3333333333333333333333333333333333333333333333333333333333333333",
"3333333333333333333333333333333333333333333333333333333333333333",
"3333333333333333333333333333333333333333333333333333333333333333",
"3333333333333333333333333333333333333333333333333333333333333333",
"3333333333333333333333333333333333333333333333333333333333333333"
};
