/* XPM */
static char *result[] = {
/* columns rows colors chars-per-pixel */
"64 64 44 1 ",
"  c #7D8C7B",
". c #7E8C7B",
"X c #CDB331",
"o c #FFCC03",
"O c #AAA251",
"+ c #A9A253",
"@ c #8A926F",
"# c #929668",
"$ c #818E78",
"% c #859074",
"& c #3F6DB5",
"* c #3D6CB7",
"= c #3768BA",
"- c #3869BA",
"; c #396BBA",
": c #386ABB",
"> c #5A7B9B",
", c #5B7B9B",
"< c #5E7D98",
"1 c #597A9D",
"2 c #4F75A6",
"3 c #4A73AA",
"4 c #5377A2",
"5 c #4572BB",
"6 c #527ABB",
"7 c #68828E",
"8 c #728686",
"9 c #768982",
"0 c #648092",
"q c #6888BC",
"w c #93A3BD",
"e c #A0ACBD",
"r c #A2ADBD",
"t c #A9B1BD",
"y c #A8B0BE",
"u c #B5B8BF",
"i c #B6B9BE",
"p c #B8BABE",
"a c #BBBBBF",
"s c #BBBCBF",
"d c #BDBFBF",
"f c gray",
"g c gray75",
"h c None",
/* pixels */
"hhhhhhhhhhhhhhhhhhhhhhhhhhhhhhhh:::::::::::hhhhhhhhhhhhhhhhhhhhh",
"hhhhhhhhhhhhhhhhhhhhhhhhhhhh::::::::::::::::::hhhhhhhhhhhhhhhhhh",
"hhhhhhhhhhhhhhhhhhhhhhhh::::::::::::::::::::::::hhhhhhhhhhhhhhhh",
"hhhhhhhhhhhhhhhhhhhhh:::::::::::::::::::::::::::::hhhhhhhhhhhhhh",
"hhhhhhhhhhhhhhhhh::::::::::::::::::::::::::::::::::hhhhhhhhhhhhh",
"hhhhhhhhhhhhhhh:::::::::::::::: ooooooooooo,::::::::hhhhhhhhhhhh",
"hhhhhhhhhhhhhh:::::::::::::#oooooooooooooooooX::::::whhhhhhhhhhh",
"hhhhhhhhhhhhh::::::::::3ooooooooooooooooooooooo::::::hhhhhhhhhhh",
"hhhhhhhhhhhh:::::::::ooooooooooooooooooooooooooo::::::hhhhhhhhhh",
"hhhhhhhhhhhh:::::Oooooooooooooooooooooooooooooooo:::::hhhhhhhhhh",
"hhhhhhhhhhhh:::::oooooooooooooooooooooooooooooooo:::::phhhhhhhhh",
"hhhhhhhhhhhh:::::ooooooooooooooooooooooooooooooooo:::::hhhhhhhhh",
"hhhhhhhhhhhhh:::::oooooooooooooooooooooooooooooooo:::::hhhhhhhhh",
"hhhhhhhhhhhhh:::::oooooooooooooooooooooooooooooooo:::::hhhhhhhhh",
"hhhhhhhhhhhhh:::::8ooooooooooooooooooooooooooooooo:::::hhhhhhhhh",
"hhhhhhhhhhhhhh:::::ooooooooooooooooooooooooooooooo:::::hhhhhhhhh",
"hhhhhhhhhhhhhh:::::ooooooooooooooo2::::ooooooooooo:::::hhhhhhhhh",
"hhhhhhhhhhhhhh:::::7oooooooooo:::::::::oooooooooo0::::ahhhhhhhhh",
"hhhhhhhhhhhhhhh:::::ooooooo:::::::::::ooooooooooo:::::fhhhhhhhhh",
"hhhhhhhhhhhhhhh:::::ooooo::::::::::::oooooooooooo:::::hhhhhhhhhh",
"hhhhhhhhhhhhhhhh:::::oo:::::::::::::oooooooooooo:::::thhhhhhhhhh",
"hhhhhhhhhhhhhhhh:::::::::::::::::::ooooooooooooo:::::ghhhhhhhhhh",
"hhhhhhhhhhhhhhhh::::::::::::::::::ooooooooooooo::::::hhhhhhhhhhh",
"hhhhhhhhhhhhhhhhh::::::::::::::::oooooooooooooo:::::fhhhhhhhhhhh",
"hhhhhhhhhhhhhhhhhh:::::::::::::ooooooooooooooo::::::hhhhhhhhhhhh",
"hhhhhhhhhhhhhhhhhhh:::::::::2oooooooooooooooo::::::hhhhhhhhhhhhh",
"hhhhhhhhhhhhhhhhhh:::::::ooooooooooooooooooo::::::yhhhhhhhhhhhhh",
"hhhhhhhhhhhhhhhhh::::::$ooooooooooooooooooo4::::::hhhhhhhhhhhhhh",
"hhhhhhhhhhhhhhhhh:::::<ooooooooooooooooooo*::::::hhhhhhhhhhhhhhh",
"hhhhhhhhhhhhhhhh::::::ooooooooooooooooooo:::::::fhhhhhhhhhhhhhhh",
"hhhhhhhhhhhhhhhh:::::ooooooooooooooooooo:::::::fhhhhhhhhhhhhhhhh",
"hhhhhhhhhhhhhhh:::::1ooooooooooooooooo::::::::fhhhhhhhhhhhhhhhhh",
"hhhhhhhhhhhhhhh:::::ooooooooooooooo@:::::::::fhhhhhhhhhhhhhhhhhh",
"hhhhhhhhhhhhhh=::::&ooooooooooooo:::::::::::fhhhhhhhhhhhhhhhhhhh",
"hhhhhhhhhhhhhh:::::ooooooooooooo::::::::::uhhhhh::hhhhhhhhhhhhhh",
"hhhhhhhhhhhhhh:::::oooooooooooo::::::::::f-:::::::::hhhhhhhhhhhh",
"hhhhhhhhhhhhhh:::::ooooooooooo:::::::::::::::::::::::hhhhhhhhhhh",
"hhhhhhhhhhhhhh::::oooooooooooo::::::::::::::::::::::::hhhhhhhhhh",
"hhhhhhhhhhhhh:::::ooooooooooo:::::::::::::::::::::::::fhhhhhhhhh",
"hhhhhhhhhhhhh:::::ooooooooooo::::::::::::::::::ooo::::5hhhhhhhhh",
"hhhhhhhhhhhhh:::::oooooooooo:::::::::::::>oooooooo::::qhhhhhhhhh",
"hhhhhhhhhhhhh:::::oooooooooo:::::::@ooooooooooooo:::::fhhhhhhhhh",
"hhhhhhhhhhhhh::::2ooooooooo%::ooooooooooooooooooo:::::hhhhhhhhhh",
"hhhhhhhhhhhhh::::oooooooooooooooooooooooooooooooo:::::hhhhhhhhhh",
"hhhhhhhhhhhhh::::ooooooooooooooooooooooooooooooo:::::fhhhhhhhhhh",
"hhhhhhhhhhhh:::::ooooooooooooooooooooooooooooooo:::::hhhhhhhhhhh",
"hhhhhhhhhhhh:::::ooooooooooooooooooooooooooooooo:::::hhhhhhhhhhh",
"hhhhhhhhhhhh:::::oooooooooooooooooooooooooooooo:::::shhhhhhhhhhh",
"hhhhhhhhhhhh:::::ooooooooooooooooooooooooo9:::::::::ghhhhhhhhhhh",
"hhhhhhhhhhhh:::::oooooooooooooooooooo:::::::::::::::hhhhhhhhhhhh",
"hhhhhhhhhhhh:::::ooooooooooooo+::::::::::::::::::::fhhhhhhhhhhhh",
"hhhhhhhhhhhh:::::oooooooo;::::::::::::::::::::::::fhhhhhhhhhhhhh",
"hhhhhhhhhhhh:::::oo.::::::::::::::::::::::::::::fhhhhhhhhhhhhhhh",
"hhhhhhhhhhhh::::::::::::::::::::::::::::::fhhhhhhhhhhhhhhhhhhhhh",
"hhhhhhhhhhhhh:::::::::::::::::::::::ifhhhhhhhhhhhhhhhhhhhhhhhhhh",
"hhhhhhhhhhhhhh::::::::::::::::ffhhhhhhhhhhhhhhhhhhhhhhhhhhhhhhhh",
"hhhhhhhhhhhhhh6:::::::::efhhhhhhhhhhhhhhhhhhhhhhhhhhhhhhhhhhhhhh",
"hhhhhhhhhhhhhhhhhrdfhhhhhhhhhhhhhhhhhhhhhhhhhhhhhhhhhhhhhhhhhhhh",
"hhhhhhhhhhhhhhhhhhhhhhhhhhhhhhhhhhhhhhhhhhhhhhhhhhhhhhhhhhhhhhhh",
"hhhhhhhhhhhhhhhhhhhhhhhhhhhhhhhhhhhhhhhhhhhhhhhhhhhhhhhhhhhhhhhh",
"hhhhhhhhhhhhhhhhhhhhhhhhhhhhhhhhhhhhhhhhhhhhhhhhhhhhhhhhhhhhhhhh",
"hhhhhhhhhhhhhhhhhhhhhhhhhhhhhhhhhhhhhhhhhhhhhhhhhhhhhhhhhhhhhhhh",
"hhhhhhhhhhhhhhhhhhhhhhhhhhhhhhhhhhhhhhhhhhhhhhhhhhhhhhhhhhhhhhhh",
"hhhhhhhhhhhhhhhhhhhhhhhhhhhhhhhhhhhhhhhhhhhhhhhhhhhhhhhhhhhhhhhh"
};
