/* XPM */
static char *result[] = {
/* columns rows colors chars-per-pixel */
"64 64 45 1 ",
"  c #BFAC3E",
". c #E3BE1D",
"X c #FFCC03",
"o c #FBCA07",
"O c #F3C60E",
"+ c #F7C80A",
"@ c #F8C909",
"# c #F8C80A",
"$ c #9C9B5F",
"% c #9D9C5D",
"& c #A09D5B",
"* c #B1A64B",
"= c #939766",
"- c #999A61",
"; c #929668",
": c #818E78",
"> c #869073",
", c #899270",
"< c #889271",
"1 c #3769B9",
"2 c #3B6BB9",
"3 c #396ABA",
"4 c #396BBA",
"5 c #386ABB",
"6 c #597A9D",
"7 c #4F75A6",
"8 c #4A73AA",
"9 c #5277A3",
"0 c #5578A0",
"q c #436FB1",
"w c #426FB2",
"e c #778980",
"r c #778981",
"t c #6B89BB",
"y c #7B93BD",
"u c #8FA1BC",
"i c #9CA9BD",
"p c #9FABBE",
"a c #AFB4BE",
"s c #B7BABE",
"d c #B8BABE",
"f c gray74",
"g c #BDBDBF",
"h c gray",
"j c None",
/* pixels */
"jjjjjjjjjjjjjjjjjjjjjjjjjjjjj1555555555555jjjjjjjjjjjjjjjjjjjjjj",
"jjjjjjjjjjjjjjjjjjjjjjjjj55555555555555555555jjjjjjjjjjjjjjjjjjj",
"jjjjjjjjjjjjjjjjjjjjj55555555555555555555555555jjjjjjjjjjjjjjjjj",
"jjjjjjjjjjjjjjjjjj555555555555555555555555555555yjjjjjjjjjjjjjjj",
"jjjjjjjjjjjjjjj55555555555555555555555555555555555jjjjjjjjjjjjjj",
"jjjjjjjjjjjj555555555555555555wXXXXXXXXX@5555555555jjjjjjjjjjjjj",
"jjjjjjjjjj5555555555555555XXXXXXXXXXXXXXXXXX55555555jjjjjjjjjjjj",
"jjjjjjjjj5555555555555%XXXXXXXXXXXXXXXXXXXXXX5555555jjjjjjjjjjjj",
"jjjjjjjj55555555555XXXXXXXXXXXXXXXXXXXXXXXXXXXq555555jjjjjjjjjjj",
"jjjjjjjj55555555XXXXXXXXXXXXXXXXXXXXXXXXXXXXXXX555555hjjjjjjjjjj",
"jjjjjjjj55555XXXXXXXXXXXXXXXXXXXXXXXXXXXXXXXXXXX555555jjjjjjjjjj",
"jjjjjjjj55555XXXXXXXXXXXXXXXXXXXXXXXXXXXXXXXXXXX655555jjjjjjjjjj",
"jjjjjjjj555555XXXXXXXXXXXXXXXXXXXXXXXXXXXXXXXXXXX55555hjjjjjjjjj",
"jjjjjjjj555555XXXXXXXXXXXXXXXXXXXXXXXXXXXXXXXXXXX55555hjjjjjjjjj",
"jjjjjjjjj55555XXXXXXXXXXXXXXXXXXXXXXXXXXXXXXXXXXX55555hjjjjjjjjj",
"jjjjjjjjj555555XXXXXXXXXXXXXXXXXXXXXXXXXXXXXXXXXX55555fjjjjjjjjj",
"jjjjjjjjjj55555XXXXXXXXXXXXXXXXXXXXXXXXXXXXXXXXX555555jjjjjjjjjj",
"jjjjjjjjjj555550XXXXXXXXXXXXXXXXX65555XXXXXXXXXX55555ajjjjjjjjjj",
"jjjjjjjjjj555555XXXXXXXXXXX3555555555XXXXXXXXXX555555hjjjjjjjjjj",
"jjjjjjjjjjj55555XXXXXXXr555555555555 XXXXXXXXXX555555jjjjjjjjjjj",
"jjjjjjjjjjj555554XXXX555555555555555XXXXXXXXXX555555hjjjjjjjjjjj",
"jjjjjjjjjjj555555XXX55555555555555#XXXXXXXXXX5555555jjjjjjjjjjjj",
"jjjjjjjjjjjj55555XX55555555555555XXXXXXXXXXX>55555555jjjjjjjjjjj",
"jjjjjjjjjjjj55555555555555555554XXXXXXXXXXXXXX55555555jjjjjjjjjj",
"jjjjjjjjjjjjj55555555555555XXXXXXXXXXXXXXXXXXXX8555555ujjjjjjjjj",
"jjjjjjjjjjjjj55555555555555XXXXXXXXXXXXXXXXXXXXX,555555jjjjjjjjj",
"jjjjjjjjjjjjjj5555555555555XXXXXXXXXXXXXXXXXXXXXX5555555jjjjjjjj",
"jjjjjjjjjjjjjjj555555h55555XXXXXXXXXXXXXXXXXXXXXXX555555hjjjjjjj",
"jjjjjjjjjjjjjjjjjhhhjj55555XXXXXXXXXXXXXXXXXXXXXXXX555555jjjjjjj",
"jjjjjjjjjjjjjjjjjjjjjj55555XXXXXXXXXXXXXXXXXXXXXXXX-55555hjjjjjj",
"jjjjjjjjjjjjjjjjjjjjjj55555XXXXXXXXXX<XXXXXXXXXXXXXX555555jjjjjj",
"jjjjjjjjjjjjjjjjjjjjjj55555XXXXXXXX5555XXXXXXXXXXXXXe55555jjjjjj",
"jjjjjjjjjjjjjjjjjjjjjj55555XXXX955555555XXXXXXXXXXXXX55555ijjjjj",
"jjjjjjjjjjjjjjjjj5555j5555555555555555555XXXXXXXXXXXX555555jjjjj",
"jjjjjjjjjjjjjjj55555555555555555555555555XXXXXXXXXXXX:55555jjjjj",
"jjjjjjjjjjjjjj555555555555555555555555555XXXXXXXXXXXXX55555jjjjj",
"jjjjjjjjjjjjj555555555555555555555555555XXXXXXXXXXXXXX55555jjjjj",
"jjjjjjjjjjjjj555555555555555555555555555XXXXXXXXXXXXXX55555jjjjj",
"jjjjjjjjjjjjj55555;5555555555555555555oXXXXXXXXXXXXXXX55555jjjjj",
"jjjjjjjjjjjjj55555XXXXXX555555555555&XXXXXXXXXXXXXXXXX55555jjjjj",
"jjjjjjjjjjjj555555XXXXXXXXXXXXXXXXXXXXXXXXXXXXXXXXXXX555555jjjjj",
"jjjjjjjjjjjj55555*XXXXXXXXXXXXXXXXXXXXXXXXXXXXXXXXXXX555555jjjjj",
"jjjjjjjjjjjj55555XXXXXXXXXXXXXXXXXXXXXXXXXXXXXXXXXXX+55555hjjjjj",
"jjjjjjjjjjjj55555XXXXXXXXXXXXXXXXXXXXXXXXXXXXXXXXXXX555555jjjjjj",
"jjjjjjjjjjjj55555XXXXXXXXXXXXXXXXXXXXXXXXXXXXXXXXXX555555hjjjjjj",
"jjjjjjjjjjj555555XXXXXXXXXXXXXXXXXXXXXXXXXXXXXXXXX7555555jjjjjjj",
"jjjjjjjjjjj55555$XXXXXXXXXXXXXXXXXXXXXXXXXXXXXXXX2555555hjjjjjjj",
"jjjjjjjjjjj555556XXXXXXXXXXXXXXXXXXXXXXXXXXXXXXX55555555jjjjjjjj",
"jjjjjjjjjjj5555555555OXXXXXXXXXXXXXXXXXXXXXXXX555555555jjjjjjjjj",
"jjjjjjjjjjjj555555555555555.XXXXXXXXXXXXXXXX5555555555jjjjjjjjjj",
"jjjjjjjjjjjj55555555555555555555=XXXXXX&5555555555555jjjjjjjjjjj",
"jjjjjjjjjjjjj55555555555555555555555555555555555555pjjjjjjjjjjjj",
"jjjjjjjjjjjjjjj55555555555555555555555555555555555hjjjjjjjjjjjjj",
"jjjjjjjjjjjjjjjjjjjs5555555555555555555555555555hjjjjjjjjjjjjjjj",
"jjjjjjjjjjjjjjjjjjjjjjjjh55555555555555555555thjjjjjjjjjjjjjjjjj",
"jjjjjjjjjjjjjjjjjjjjjjjjjjjjjjg5555555555dhjjjjjjjjjjjjjjjjjjjjj",
"jjjjjjjjjjjjjjjjjjjjjjjjjjjjjjjjjjjjjjjjjjjjjjjjjjjjjjjjjjjjjjjj",
"jjjjjjjjjjjjjjjjjjjjjjjjjjjjjjjjjjjjjjjjjjjjjjjjjjjjjjjjjjjjjjjj",
"jjjjjjjjjjjjjjjjjjjjjjjjjjjjjjjjjjjjjjjjjjjjjjjjjjjjjjjjjjjjjjjj",
"jjjjjjjjjjjjjjjjjjjjjjjjjjjjjjjjjjjjjjjjjjjjjjjjjjjjjjjjjjjjjjjj",
"jjjjjjjjjjjjjjjjjjjjjjjjjjjjjjjjjjjjjjjjjjjjjjjjjjjjjjjjjjjjjjjj",
"jjjjjjjjjjjjjjjjjjjjjjjjjjjjjjjjjjjjjjjjjjjjjjjjjjjjjjjjjjjjjjjj",
"jjjjjjjjjjjjjjjjjjjjjjjjjjjjjjjjjjjjjjjjjjjjjjjjjjjjjjjjjjjjjjjj",
"jjjjjjjjjjjjjjjjjjjjjjjjjjjjjjjjjjjjjjjjjjjjjjjjjjjjjjjjjjjjjjjj"
};
