/* XPM */
static char *result[] = {
/* columns rows colors chars-per-pixel */
"64 64 36 1 ",
"  c #798A7F",
". c #7A8A7E",
"X c #BFAD3E",
"o c #CDB332",
"O c #FFCC03",
"+ c #EEC313",
"@ c #BCAB41",
"# c #869073",
"$ c #3E6DB6",
"% c #3769BA",
"& c #396ABA",
"* c #396BBA",
"= c #386ABB",
"- c #396ABB",
"; c #587A9D",
": c #4F75A6",
"> c #4571AF",
", c #4D74A8",
"< c #4972AC",
"1 c #406EB4",
"2 c #708687",
"3 c #658091",
"4 c #648092",
"5 c #6383BC",
"6 c #869BBC",
"7 c #8A9EBC",
"8 c #8C9EBD",
"9 c #9DA9BD",
"0 c #ACB3BE",
"q c #B6B9BE",
"w c #B8BABE",
"e c #B9BBBF",
"r c gray74",
"t c gray",
"y c gray75",
"u c None",
/* pixels */
"uuuuuuuuuuuuuuuuuuuuuuuuuuuuuuuuuuuuuuuuuu%======uuuuuuuuuuuuuuu",
"uuuuuuuuuuuuuuuuuuuuuuuuuuuuuuuuuuu===============uuuuuuuuuuuuuu",
"uuuuuuuuuuuuuuuuuuuuuuuuuuuuuuuu===================uuuuuuuuuuuuu",
"uuuuuuuuuuuuuuuuuuuuu%==============================uuuuuuuuuuuu",
"uuuuuuuuuuuuuuu%====================================uuuuuuuuuuuu",
"uuuuuuuuuuuuuu============================OOOOO=====uuuuuuuuuuuu",
"uuuuuuuuuuuuu======================OOOOOOOOOOOO=====uuuuuuuuuuuu",
"uuuuuuuuuuuuu=====================OOOOOOOOOOOOO=====uuuuuuuuuuuu",
"uuuuuuuuuuuuu=======,OOOOOOOO=====OOOOOOOOOOOOO=====uuuuuuuuuuuu",
"uuuuuuuuuuuu=====OOOOOOOOOOOO=====OOOOOOOOOOOOO=====uuuuuuuuuuuu",
"uuuuuuuuuuuu=====OOOOOOOOOOOo=====OOOOOOOOOOOOO=====uuuuuuuuuuuu",
"uuuuuuuuuuuu=====OOOOOOOOOOO*=====OOOOOOOOOOOOO=====uuuuuuuuuuuu",
"uuuuuuuuuuuu=====OOOOOOOOOOO======OOOOOOOOOOOOO====-uuuuuuuuuuuu",
"uuuuuuuuuuuu=====OOOOOOOOOOO======OOOOOOOOOOOO#====quuuuuuuuuuuu",
"uuuuuuuuuuuu=====OOOOOOOOOOO===== OOOOOOOOOOOO=====tuuuuuuuuuuuu",
"uuuuuuuuuuuu=====OOOOOOOOOOO=====OOOOOOOOOOOOO=====tuuuuuuuuuuuu",
"uuuuuuuuuuuu=====OOOOOOOOOOO=====OOOOOOOOOOOOO=====yuuuuuuuuuuuu",
"uuuuuuuuuuuu=====OOOOOOOOOOO=====OOOOOOOOOOOOO=====uuuuuuuuuuuuu",
"uuuuuuuuuuuu=====OOOOOOOOOOO=====OOOOOOOOOOOOO=====uuuuuuuuuuuuu",
"uuuuuuuuuuuu=====OOOOOOOOOOO=====OOOOOOOOOOOOO=====uuuuuuuuuuuuu",
"uuuuuuuuuuuu====>OOOOOOOOOOO=====OOOOOOOOOOOOO=====uuuuuuuuuuuuu",
"uuuuuuuuuuuu====XOOOOOOOOOO@=====OOOOOOOOOOOOO=====uuuuuuuuuuuuu",
"uuuuuuuuuuu%====OOOOOOOOOOOOOOO2=OOOOOOOOOOOOO====5uuuuuuuuuuuuu",
"uuuuuuuuuuu=====OOOOOOOOOOOOOOOOOOOOOOOOOOOOO;====tuuuuuuuuuuuuu",
"uuuuuuuuuuu=====OOOOOOOOOOOOOOOOOOOOOOOOOOOOO=====tuuuuuuuuuuuuu",
"uuuuuuuuuuu=====OOOOOOOOOOOOOOOOOOOOOOOOOOOOO=====tuuuuuuuuuuuuu",
"uuuuuuuuuuu=====OOOOOOOOOOOOOOOOOOOOOOOOOOOOO=====ruuuuuuuuuuuuu",
"uuuuuuuuuuu=====OOOOOOOOOOOOOOOOOOOOOOOOOOOOO=====uuuuuuuuuuuuuu",
"uuuuuuuuuuu=====OOOOOOOOOOOOOOOOOOOOOOOOOOOOO=====uuuuuuuuuuuuuu",
"uuuuuuuuuuu=======:OOOOOOOOOOOOOOOOOOOOOOOOOO=====uuuuuuuuuuuuuu",
"uuuuuuuuuuu==============OOOOOOOOOOOOOOOOOOOO=====uuuuuuuuuuuuuu",
"uuuuuuuuuuuu====================OOOOOOOOOOOOO=====uuuuuuuuuuuuuu",
"uuuuuuuuuuuuu===================OOOOOOOOOOOOO====7uuuuuuuuuuuuuu",
"uuuuuuuuuuuuuu==================OOOOOOOOOOOOO====tuuuuuuuuuuuuuu",
"uuuuuuuuuuuuuuuuuuy9============OOOOOOOOOOOO<====tuuuuuuuuuuuuuu",
"uuuuuuuuuuuuuuuuuuuuuuuuue======OOOOOOOOOOOO=====tuuuuuuuuuuuuuu",
"uuuuuuuuuuuuuuuuuuuuuuuuuuu=====OOOOOOOOOOOO=====uuuuuuuuuuuuuuu",
"uuuuuuuuuuuuuuuuuuuuuuuuuuu=====OOOOOOOOOOOO=====uuuuuuuuuuuuuuu",
"uuuuuuuuuuuuuuuuuuuuuuuuuuu=====OOOOOOOOOOOO=====uuuuuuuuuuuuuuu",
"uuuuuuuuuuuuuuuuuuuuuuuuuuu====&OOOOOOOOOOOO=====uuuuuuuuuuuuuuu",
"uuuuuuuuuuuuuuuuuuuuuuuuuuu====.OOOOOOOOOOOO=====uuuuuuuuuuuuuuu",
"uuuuuuuuuuuuuuuuuuuuuuuuuuu====OOOOOOOOOOOOO=====uuuuuuuuuuuuuuu",
"uuuuuuuuuuuuuuuuuuuuuuuuuuu====OOOOOOOOOOOOO=====uuuuuuuuuuuuuuu",
"uuuuuuuuuuuuuuuuuuuuuuuuuuu====OOOOOOOOOOOO+====8uuuuuuuuuuuuuuu",
"uuuuuuuuuuuuuuuuuuuuuuuuuu=====OOOOOOOOOOOO$====tuuuuuuuuuuuuuuu",
"uuuuuuuuuuuuuuuuuuuuuuuuuu=====OOOOOOOOOOOO=====tuuuuuuuuuuuuuuu",
"uuuuuuuuuuuuuuuuuuuuuuuuuu=====OOOOOOOOOOOO=====tuuuuuuuuuuuuuuu",
"uuuuuuuuuuuuuuuuuuuuuuuuuu=====OOOOOOOOOOOO=====uuuuuuuuuuuuuuuu",
"uuuuuuuuuuuuuuuuuuuuuuuuuu=====OOOOOOOOOOOO=====uuuuuuuuuuuuuuuu",
"uuuuuuuuuuuuuuuuuuuuuuuuuu=====OOOOOOOOOOOO=====uuuuuuuuuuuuuuuu",
"uuuuuuuuuuuuuuuuuuuuuuuuuu=====OOOOOOOOOOOO=====uuuuuuuuuuuuuuuu",
"uuuuuuuuuuuuuuuuuuuuuuuuuu=====OOOOOOOOOOOO=====uuuuuuuuuuuuuuuu",
"uuuuuuuuuuuuuuuuuuuuuuuuuu=====OOOOOOOOOOOO=====uuuuuuuuuuuuuuuu",
"uuuuuuuuuuuuuuuuuuuuuuuuuu==========143*=======tuuuuuuuuuuuuuuuu",
"uuuuuuuuuuuuuuuuuuuuuuuuuu=====================tuuuuuuuuuuuuuuuu",
"uuuuuuuuuuuuuuuuuuuuuuuuuuu===================wuuuuuuuuuuuuuuuuu",
"uuuuuuuuuuuuuuuuuuuuuuuuuuuu=================6uuuuuuuuuuuuuuuuuu",
"uuuuuuuuuuuuuuuuuuuuuuuuuuuuu0==============tuuuuuuuuuuuuuuuuuuu",
"uuuuuuuuuuuuuuuuuuuuuuuuuuuuuuuuuuuuuutuuuuuuuuuuuuuuuuuuuuuuuuu",
"uuuuuuuuuuuuuuuuuuuuuuuuuuuuuuuuuuuuuuuuuuuuuuuuuuuuuuuuuuuuuuuu",
"uuuuuuuuuuuuuuuuuuuuuuuuuuuuuuuuuuuuuuuuuuuuuuuuuuuuuuuuuuuuuuuu",
"uuuuuuuuuuuuuuuuuuuuuuuuuuuuuuuuuuuuuuuuuuuuuuuuuuuuuuuuuuuuuuuu",
"uuuuuuuuuuuuuuuuuuuuuuuuuuuuuuuuuuuuuuuuuuuuuuuuuuuuuuuuuuuuuuuu",
"uuuuuuuuuuuuuuuuuuuuuuuuuuuuuuuuuuuuuuuuuuuuuuuuuuuuuuuuuuuuuuuu"
};
