/* XPM */
static char *result[] = {
/* columns rows colors chars-per-pixel */
"64 64 50 1 ",
"  c #7E8D7A",
". c #798A7F",
"X c #DEBC21",
"o c #D3B72B",
"O c #C2AE3B",
"+ c #C2AE3C",
"@ c #FFCC03",
"# c #F9C908",
"$ c #F1C510",
"% c #AFA54D",
"& c #AEA44E",
"* c #B0A54C",
"= c #A9A252",
"- c #949766",
"; c #90956A",
": c #889271",
"> c #3F6DB5",
", c #3D6DB6",
"< c #3769B9",
"1 c #3768BA",
"2 c #3669BA",
"3 c #3A6BB9",
"4 c #396ABA",
"5 c #386ABB",
"6 c #396ABB",
"7 c #3B6CB8",
"8 c #597A9D",
"9 c #4671AE",
"0 c #4A73AA",
"q c #4A73AB",
"w c #4270B9",
"e c #4B75BB",
"r c #577EBA",
"t c #718686",
"y c #778981",
"u c #6786BB",
"i c #6988BB",
"p c #6B8BBB",
"a c #879BBC",
"s c #8A9CBC",
"d c #9CA9BD",
"f c #A2ADBD",
"g c #A4AEBE",
"h c #A7AFBE",
"j c #ABB2BD",
"k c #AFB4BE",
"l c #B2B6BF",
"z c #B9BBBF",
"x c gray",
"c c None",
/* pixels */
"cccccccccccccccccccccccccccccccccccccccccccccccccccccccccccccccc",
"cccccccccccccccccccccccccccccccccccccccccccccc55555ccccccccccccc",
"ccccccccccccccccccccccccccccccccccccccccccc555555555jccccccccccc",
"ccccccccccccccccccccccccccccccccccccccc55555555555555ccccccccccc",
"ccccccccccccccccccccccccccccccccc<55555555555555555555cccccccccc",
"ccccccccccccccccccccccccc25555555555555555555555555555cccccccccc",
"ccccccccc55555555555555555555555555555555555550@@55555xccccccccc",
"cccccccc55555555555555555555555555555555555y@@@@@55555xccccccccc",
"ccccccc555555555555555555555555555555555@@@@@@@@@55555xccccccccc",
"cccccc55555555555555555555555555556@@@@@@@@@@@@@@55555hccccccccc",
"cccccc555555555555555555555;@@@@@@@@@@@@@@@@@@@@@t55555ccccccccc",
"cccccc55555@@@@@@@@@@@@@@@@@@@@@@@@@@@@@@@@@@@@@@@55555ccccccccc",
"cccccc55555@@@@@@@@@@@@@@@@@@@@@@@@@@@@@@@@@@@@@@@55555ccccccccc",
"cccccc55555>@@@@@@@@@@@@@@@@@@@@@@@@@@@@@@@@@@@@@@55555ccccccccc",
"ccccccc55555@@@@@@@@@@@@@@@@@@@@@@@@@@@@@@@@@@@@@@55555ccccccccc",
"ccccccc55555@@@@@@@@@@@@@@@@@@@@@@@@@@@@@@@@@@@@@@55555ccccccccc",
"ccccccc555555@@@@@@@@@@@@@@@@@@@@@@@@@@@@@@@@@@@@555555ccccccccc",
"cccccccc55555@@@@@@@@@@@@@@@@@@@@@@@@@@@@@@@@@555555555ccccccccc",
"cccccccc55555q@@@@@@@@@@@@@@@@@@@@@@@@@@@@%55555555555xccccccccc",
"cccccccc555555@@@@@@@@@@@@@@@@@@@@@@@@ 55555555555555xcccccccccc",
"ccccccccc55555@@@@@@@@@@@@@@@@@@*5555555555555555555xccccccccccc",
"ccccccccc555555@@@@@@@@@@@555555555555555555555555xccccccccccccc",
"ccccccccc155555@@@@@@@@@@@5555555555555555555555iccccccccccccccc",
"cccccccccc55555@@@@@@@@@@@555555555555555555555555cccccccccccccc",
"cccccccccc555555@@@@@@@@@@5555555555555555555555555ccccccccccccc",
"ccccccccccc55555@@@@@@@@@@55558@@@@@@@@@@@@355555555cccccccccccc",
"ccccccccccc55555@@@@@@@@@@@@@@@@@@@@@@@@@@@@@55555555ccccccccccc",
"ccccccccccc555555@@@@@@@@@@@@@@@@@@@@@@@@@@@@@@555555ucccccccccc",
"cccccccccccc55555@@@@@@@@@@@@@@@@@@@@@@@@@@@@@@@555555cccccccccc",
"cccccccccccc55555@@@@@@@@@@@@@@@@@@@@@@@@@@@@@@@@555555ccccccccc",
"cccccccccccc555555@@@@@@@@@@@@@@@@@@@@@@@@@@@@@@@555555xcccccccc",
"ccccccccccccc55555@@@@@@@@@@@@@@@@@@@@@@@@@@@@@@@@555555cccccccc",
"ccccccccccccc55555+@@@@@@@@@@@@@@@@@@@@@@@@@@@@@@@@55555gccccccc",
"ccccccccccccc155555@@@@@@@@@@@@@@@@@@#@@@@@@@@@@@@@555555ccccccc",
"cccccccccccccc55555@@@@@@@@@@@@@.555554@@@@@@@@@@@@@55555xcccccc",
"cccccccccccccc55555@@@@@@=5555555555555-@@@@@@@@@@@@55555wcccccc",
"cccccccccccccc55555555555555555555555555@@@@@@@@@@@@555555cccccc",
"ccccccccccccccc5555555555555555555555555@@@@@@@@@@@@@55555cccccc",
"cccccccccccccc55555555555555555555555555@@@@@@@@@@@@@55555cccccc",
"ccccccccccccc55555555555555555555555555,@@@@@@@@@@@@@55555cccccc",
"ccccccccccccc55555555555555555555555555@@@@@@@@@@@@@@55555cccccc",
"cccccccccccc555555@o55555555555555555X@@@@@@@@@@@@@@@55555cccccc",
"cccccccccccc55555:@@@@@@@5555555555@@@@@@@@@@@@@@@@@@55555cccccc",
"cccccccccccc55555@@@@@@@@@@@@@@@@@@@@@@@@@@@@@@@@@@@955555cccccc",
"cccccccccccc55555@@@@@@@@@@@@@@@@@@@@@@@@@@@@@@@@@@@555555cccccc",
"cccccccccccc55555@@@@@@@@@@@@@@@@@@@@@@@@@@@@@@@@@@@55555xcccccc",
"ccccccccccc555555@@@@@@@@@@@@@@@@@@@@@@@@@@@@@@@@@@555555ccccccc",
"ccccccccccc55555&@@@@@@@@@@@@@@@@@@@@@@@@@@@@@@@@@555555xccccccc",
"ccccccccccc55555@@@@@@@@@@@@@@@@@@@@@@@@@@@@@@@@@5555555cccccccc",
"ccccccccccc55555@@@@@@@@@@@@@@@@@@@@@@@@@@@@@@@@5555555xcccccccc",
"ccccccccccc555555@@@@@@@@@@@@@@@@@@@@@@@@@@@@@@5555555xccccccccc",
"ccccccccccc55555555555O@@@@@@@@@@@@@@@@@@@@@@555555555cccccccccc",
"cccccccccccc5555555555555555$@@@@@@@@@@@@@75555555555ccccccccccc",
"cccccccccccc555555555555555555555555555555555555555fcccccccccccc",
"ccccccccccccc5555555555555555555555555555555555555xccccccccccccc",
"cccccccccccccccl55555555555555555555555555555555zccccccccccccccc",
"cccccccccccccccccccccd555555555555555555555555xccccccccccccccccc",
"ccccccccccccccccccccccccccxa555555555555555xcccccccccccccccccccc",
"ccccccccccccccccccccccccccccccccxsrepkxxcccccccccccccccccccccccc",
"cccccccccccccccccccccccccccccccccccccccccccccccccccccccccccccccc",
"cccccccccccccccccccccccccccccccccccccccccccccccccccccccccccccccc",
"cccccccccccccccccccccccccccccccccccccccccccccccccccccccccccccccc",
"cccccccccccccccccccccccccccccccccccccccccccccccccccccccccccccccc",
"cccccccccccccccccccccccccccccccccccccccccccccccccccccccccccccccc"
};
