/* XPM */
static char *result[] = {
/* columns rows colors chars-per-pixel */
"64 64 45 1 ",
"  c #7E8C7B",
". c #D9B926",
"X c #D0B52F",
"o c #FFCC03",
"O c #BBAA42",
"+ c #8A926F",
"@ c #808D79",
"# c #859073",
"$ c #879172",
"% c #869173",
"& c #3F6DB5",
"* c #3D6DB6",
"= c #3C6CB7",
"- c #3D6CB7",
"; c #3768B9",
": c #3A6BB9",
"> c #3869BA",
", c #396ABA",
"< c #386ABB",
"1 c #3B6CB8",
"2 c #5D7C99",
"3 c #617E95",
"4 c #627E95",
"5 c #4E75A7",
"6 c #4C74A9",
"7 c #436FB1",
"8 c #426FB2",
"9 c #406EB4",
"0 c #4470B0",
"q c #557CBB",
"w c #68828F",
"e c #668190",
"r c #6082BB",
"t c #6B89BC",
"y c #8C9EBD",
"u c #94A4BC",
"i c #99A6BD",
"p c #A0ACBD",
"a c #AAB3BD",
"s c #B0B5BD",
"d c #B7BABE",
"f c #BABBBE",
"g c gray",
"h c gray75",
"j c None",
/* pixels */
"jjjjjjjjjjjjjjjjjjjjjjjjjjjjjjjjjjjjjjjjjjjjj<<<<<jjjjjjjjjjjjjj",
"jjjjjjjjjjjjjjjjjjjjjjjjjjjjjjjjjjjjjjjjj<<<<<<<<<<ujjjjjjjjjjjj",
"jjjjjjjjjjjjjjjjjjjjjjjjjjjjjjjjjjjjjj<<<<<<<<<<<<<<hjjjjjjjjjjj",
"jjjjjjjjjjjjjjjjjjjjjjjjjjjjjjjjjjjj<<<<<<<<<<<<<<<<<jjjjjjjjjjj",
"jjjjjjjjjjjjjjjjjjjjjjjjjjjjjjjjjj<<<<<<<<<<<<<<<<<<<gjjjjjjjjjj",
"jjjjjjjjjjjjjjjjjjjjjjjjjjjjjjjj<<<<<<<<<<<<<ooo1<<<<gjjjjjjjjjj",
"jjjjjjjjjjjjjjjjjjjjjjjjjjjjjj<<<<<<<<<<<+oooooo<<<<<gjjjjjjjjjj",
"jjjjjjjjjjjjjjjjjjjjjjjjjjjjj<<<<<<<<<<oooooooo=<<<<<gjjjjjjjjjj",
"jjjjjjjjjjjjjjjjjjjjjjjjjjj<<<<<<<<<woooooooooo<<<<<<jjjjjjjjjjj",
"jjjjjjjjjjjjjjjjjjjjjjjjjj<<<<<<<<7ooooooooooo<<<<<<hjjjjjjjjjjj",
"jjjjjjjjjjjjjjjjjjjjjjjjj<<<<<<<<oooooooooooo6<<<<<gjjjjjjjjjjjj",
"jjjjjjjjjjjjjjjjjjjjjjjj<<<<<<<oooooooooooooo<<<<<<jjjjjjjjjjjjj",
"jjjjjjjjjjjjjjjjjjjjjjj<<<<<<<oooooooooooooo<<<<<<gjjjjjjjjjjjjj",
"jjjjjjjjjjjjjjjjjjjjjj<<<<<<<ooooooooooooooo<<<<<gjjjjjjjjjjjjjj",
"jjjjjjjjjjjjjjjjjjjjj<<<<<<:ooooooooooooooo<<<<<<jjjjjjjjjjjjjjj",
"jjjjjjjjjjjjjjjjjjjj<<<<<<oooooooooooooooo<<<<<<gjjjjjjjjjjjjjjj",
"jjjjjjjjjjjjjjjjjjj<<<<<<Xooooooooooooooo<<<<<<>jjjjjjjjjjjjjjjj",
"jjjjjjjjjjjjjjjjjjj<<<<<<ooooooooooooooo<<<<<<<jjjjjjjjjjjjjjjjj",
"jjjjjjjjjjjjjjjjjj<<<<<<ooooooooooooooo<<<<<<<gjjjjjjjjjjjjjjjjj",
"jjjjjjjjjjjjjjjjj<<<<<<ooooooooooooooo<<<<<<<fjjjjjjjjjjjjjjjjjj",
"jjjjjjjjjjjjjjjj;<<<<<oooooooooooooo%<<<<<<<gjjjjjjjjjjjjjjjjjjj",
"jjjjjjjjjjjjjjjj<<<<<<oooooooooooooe<<<<<<<gjjjjjjjjjjjjjjjjjjjj",
"jjjjjjjjjjjjjjj<<<<<<ooooooooooooo@<<<<<<<<jjjjjjjjjjjjjjjjjjjjj",
"jjjjjjjjjjjjjjj<<<<<oooooooooooooo<<<<<<<<<<jjjjjjjjjjjjjjjjjjjj",
"jjjjjjjjjjjjjj<<<<<<ooooooooooooo<<<<<<<<<<<<<jjjjjjjjjjjjjjjjjj",
"jjjjjjjjjjjjjj<<<<<ooooooooooooo<&ooo9<<<<<<<<<jjjjjjjjjjjjjjjjj",
"jjjjjjjjjjjjjj<<<<<ooooooooooooooooooooo<<<<<<<<jjjjjjjjjjjjjjjj",
"jjjjjjjjjjjjj<<<<< oooooooooooooooooooooo*<<<<<<pjjjjjjjjjjjjjjj",
"jjjjjjjjjjjjj<<<<<ooooooooooooooooooooooooo<<<<<<jjjjjjjjjjjjjjj",
"jjjjjjjjjjjjj<<<<<oooooooooooooooooooooooooo<<<<<<jjjjjjjjjjjjjj",
"jjjjjjjjjjjj<<<<<ooooooooooooooooooooooooooo$<<<<<djjjjjjjjjjjjj",
"jjjjjjjjjjjj<<<<<oooooooooooooooooooooooooooo<<<<<<jjjjjjjjjjjjj",
"jjjjjjjjjjjj<<<<<ooooooooooooooooooooooooooooo<<<<<yjjjjjjjjjjjj",
"jjjjjjjjjjj<<<<<4ooooooooooooooooooooooooooooo5<<<<<jjjjjjjjjjjj",
"jjjjjjjjjjj<<<<<ooooooooooooo8<<<<ooooooooooooo<<<<<gjjjjjjjjjjj",
"jjjjjjjjjjj<<<<<oooooooooooo<<<<<<<=ooooooooooo2<<<<<jjjjjjjjjjj",
"jjjjjjjjjjj<<<<<ooooooooooo<<<<<<<<<oooooooooooo<<<<<jjjjjjjjjjj",
"jjjjjjjjjjj<<<<<oooooooooo<<<<<<<<<<<ooooooooooo<<<<<jjjjjjjjjjj",
"jjjjjjjjjj<<<<<oooooooooo<<<<<<<<<<<<ooooooooooo<<<<<gjjjjjjjjjj",
"jjjjjjjjjj<<<<<oooooooooo<<<<<<h<<<<<ooooooooooo3<<<<gjjjjjjjjjj",
"jjjjjjjjjj<<<<<oooooooooo<<<<<<<<<<<<ooooooooooo#<<<<gjjjjjjjjjj",
"jjjjjjjjjj<<<<<oooooooooo<<<<<<<<<<<<ooooooooooo,<<<<gjjjjjjjjjj",
"jjjjjjjjjj<<<<<ooooooooooo<<<<<<<<<<oooooooooooo<<<<<gjjjjjjjjjj",
"jjjjjjjjjj<<<<<ooooooooooo0<<<<<<<<ooooooooooooo<<<<<gjjjjjjjjjj",
"jjjjjjjjjj<<<<<ooooooooooooo<<<<<oooooooooooooo.<<<<<jjjjjjjjjjj",
"jjjjjjjjjj<<<<<oooooooooooooooooooooooooooooooo<<<<<sjjjjjjjjjjj",
"jjjjjjjjjjj<<<<<ooooooooooooooooooooooooooooooO<<<<<gjjjjjjjjjjj",
"jjjjjjjjjjj<<<<<oooooooooooooooooooooooooooooo<<<<<<jjjjjjjjjjjj",
"jjjjjjjjjjj<<<<<<oooooooooooooooooooooooooooo<<<<<<gjjjjjjjjjjjj",
"jjjjjjjjjjjj<<<<<<oooooooooooooooooooooooooo<<<<<<gjjjjjjjjjjjjj",
"jjjjjjjjjjjjj<<<<<<oooooooooooooooooooooooo<<<<<<<jjjjjjjjjjjjjj",
"jjjjjjjjjjjjj<<<<<<<oooooooooooooooooooooo<<<<<<<gjjjjjjjjjjjjjj",
"jjjjjjjjjjjjjj<<<<<<<<oooooooooooooooooo<<<<<<<<gjjjjjjjjjjjjjjj",
"jjjjjjjjjjjjjjj<<<<<<<<<-oooooooooooo<<<<<<<<<<gjjjjjjjjjjjjjjjj",
"jjjjjjjjjjjjjjjj<<<<<<<<<<<<<<<<<<<<<<<<<<<<<<hjjjjjjjjjjjjjjjjj",
"jjjjjjjjjjjjjjjjjt<<<<<<<<<<<<<<<<<<<<<<<<<<ajjjjjjjjjjjjjjjjjjj",
"jjjjjjjjjjjjjjjjjjj<<<<<<<<<<<<<<<<<<<<<<<<gjjjjjjjjjjjjjjjjjjjj",
"jjjjjjjjjjjjjjjjjjjjj<<<<<<<<<<<<<<<<<<<rhjjjjjjjjjjjjjjjjjjjjjj",
"jjjjjjjjjjjjjjjjjjjjjjjjq<<<<<<<<<<<<igjjjjjjjjjjjjjjjjjjjjjjjjj",
"jjjjjjjjjjjjjjjjjjjjjjjjjjjjjjjjjjjjjjjjjjjjjjjjjjjjjjjjjjjjjjjj",
"jjjjjjjjjjjjjjjjjjjjjjjjjjjjjjjjjjjjjjjjjjjjjjjjjjjjjjjjjjjjjjjj",
"jjjjjjjjjjjjjjjjjjjjjjjjjjjjjjjjjjjjjjjjjjjjjjjjjjjjjjjjjjjjjjjj",
"jjjjjjjjjjjjjjjjjjjjjjjjjjjjjjjjjjjjjjjjjjjjjjjjjjjjjjjjjjjjjjjj",
"jjjjjjjjjjjjjjjjjjjjjjjjjjjjjjjjjjjjjjjjjjjjjjjjjjjjjjjjjjjjjjjj"
};
