/* XPM */
static char *result[] = {
/* columns rows colors chars-per-pixel */
"64 64 74 1 ",
"  c #E5BF1A",
". c #DBBA24",
"X c #D3B62B",
"o c #D5B729",
"O c #D4B62A",
"+ c #D0B52E",
"@ c #D6B828",
"# c #C5AF38",
"$ c #CDB331",
"% c #FECB03",
"& c #FFCC03",
"* c #EDC313",
"= c #EBC215",
"- c #9F9D5B",
"; c #A29E59",
": c #ACA34F",
"> c #AFA54C",
", c #AEA44D",
"< c #B7A945",
"1 c #B6A846",
"2 c #B8A944",
"3 c #A7A054",
"4 c #939666",
"5 c #979962",
"6 c #909569",
"7 c #828E76",
"8 c #848F75",
"9 c #808D78",
"0 c #879171",
"q c #3B6BB7",
"w c #3E6DB5",
"e c #3769B9",
"r c #3768BA",
"t c #3669BA",
"y c #3769BA",
"u c #3869BA",
"i c #3869BB",
"p c #386ABA",
"a c #386ABB",
"s c #3D6DBB",
"d c #617E94",
"f c #4B73A8",
"g c #4972AB",
"h c #426EB1",
"j c #406EB2",
"k c #406EB3",
"l c #4572BB",
"z c #4A76BB",
"x c #537BBB",
"c c #567CBB",
"v c #778980",
"b c #768881",
"n c #5E82BB",
"m c #6888BB",
"M c #6888BC",
"N c #6B89BD",
"B c #6D8BBC",
"V c #748FBC",
"C c #7993BC",
"Z c #7B93BC",
"A c #8D9FBC",
"S c #9AA7BC",
"D c #A1ABBD",
"F c #A3AEBE",
"G c #ADB3BE",
"H c #B0B5BD",
"J c #B4B7BE",
"K c #B8BBBD",
"L c #B9BBBD",
"P c gray74",
"I c #BDBEBE",
"U c gray",
"Y c gray75",
"T c None",
/* pixels */
"TTTTTTTTTTTTTTTTTTTTTTTTTTTTTTTTTTTTTTTTTTTTTTTTTTTTTTTTTTTTTTTT",
"TTTTTTTTTTTaaaaaaaaeTTTTTTTTTTTTTTTTTTTTTTTTTTTTTTTTTTTTTTTTTTTT",
"TTTTTTTTTTaaaaaaaaaaaaaaaaaaaayTTTTTTTTTTTTTTTTTTTTTTTTTTTTTTTTT",
"TTTTTTTTTaaaaaaaaaaaaaaaaaaaaaaaaaaaaaaaaaaaeTTTTTTTTTTTTTTTTTTT",
"TTTTTTTTaaaaaaaaaaaaaaaaaaaaaaaaaaaaaaaaaaaaaaaaaaaaarTTTTTTTTTT",
"TTTTTTTTaaaaa,baaaaaaaaaaaaaaaaaaaaaaaaaaaaaaaaaaaaaaaaTTTTTTTTT",
"TTTTTTTTaaaa;&&&&&&&&&&&18paaaaaaaaaaaaaaaaaaaaaaaaaaaaaTTTTTTTT",
"TTTTTTTTaaaa;&&&&&&&&&&&&&&&&&&&&&&o4haaaaaaaaaaaaaaaaaaMTTTTTTT",
"TTTTTTTTaaaa;&&&&&&&&&&&&&&&&&&&&&&&&&&&&&&&&&&&&X6jaaaaaTTTTTTT",
"TTTTTTTTaaaa;&&&&&&&&&&&&&&&&&&&&&&&&&&&&&&&&&&&&&&&aaaaaTTTTTTT",
"TTTTTTTTaaaa;&&&&&&&&&&&&&&&&&&&&&&&&&&&&&&&&&&&&&&&aaaaaTTTTTTT",
"TTTTTTTTaaaa;&&&&&&&&&&&&&&&&&&&&&&&&&&&&&&&&&&&&&&5aaaaGTTTTTTT",
"TTTTTTTTaaaa;&&&&&&&&&&&&&&&&&&&&&&&&&&&&&&&&&&&&&&aaaaaTTTTTTTT",
"TTTTTTTTaaaa;&&&&&&&&&&&&&&&&&&&&&&&&&&&&&&&&&&&&&%aaaanTTTTTTTT",
"TTTTTTTTaaaa;&&&&&&&&&&&&&&&&&&&&&&&&&&&&&&&&&&&&&aaaaaUTTTTTTTT",
"TTTTTTTTaaaaa@&&&&&&&&&&&&&&&&&&&&&&&&&&&&&&&&&&&&aaaaaTTTTTTTTT",
"TTTTTTTTaaaaaaaaaaaaaaw0$&&&&&&&&&&&&&&&&&&&&&&&&&aaaaUTTTTTTTTT",
"TTTTTTTTTaaaaaaaaaaaaaaaaaaaaaaaaaaak&&&&&&&&&&&&aaaaaTTTTTTTTTT",
"TTTTTTTTTtaaaaaaaaaaaaaaaaaaaaaaaaaa-&&&&&&&&&&&&aaaaaTTTTTTTTTT",
"TTTTTTTTTTTaaaaaaaaaaaaaaaaaaaaaaaaa&&&&&&&&&&&&aaaaaUTTTTTTTTTT",
"TTTTTTTTTTTTTTTPHBlaaaaaaaaaaaaaaaaa&&&&&&&&&&&&aaaaaTTTTTTTTTTT",
"TTTTTTTTTTTTTTTTTTTTTTTTTTTJVzaaaaav&&&&&&&&&&&:aaaaSTTTTTTTTTTT",
"TTTTTTTTTTTTTTTTTTTTTTTTTTTTTTaaaaa&&&&&&&&&&&&aaaaaTTTTTTTTTTTT",
"TTTTTTTTTTTTTTTTTTTTTTTTTTTTTTaaaaa&&&&&&&&&&&&aaaaaTTTTTTTTTTTT",
"TTTTTTTTTTTTTTTTTTTTTTTTTTTTTiaaaa&&&&&&&&&&&&daaaaITTTTTTTTTTTT",
"TTTTTTTTTTTTTTTTTTTTTTTTTTTTTaaaaa&&&&&&&&&&&&aaaaaTTTTTTTTTTTTT",
"TTTTTTTTTTTTTTTTTTTTTTTTTTTTTaaaa.&&&&&&&&&&&+aaaaZTTTTTTTTTTTTT",
"TTTTTTTTTTTTTTTTTTTTTTTTTTTTuaaaa&&&&&&&&&&&&aaaaaPTTTTTTTTTTTTT",
"TTTTTTTTTTTTTTTTTTTTTTTTTTTTaaaaa&&&&&&&&&&&&aaaaaTTTTTTTTTTTTTT",
"TTTTTTTTTTTTTTTTTTTTTTTTTTTTaaaa>&&&&&&&&&&&OaaaaCTTTTTTTTTTTTTT",
"TTTTTTTTTTTTTTTTTTTTTTTTTTTaaaaa&&&&&&&&&&&&aaaaaYTTTTTTTTTTTTTT",
"TTTTTTTTTTTTTTTTTTTTTTTTTTTaaaaq&&&&&&&&&&&&aaaasTTTTTTTTTTTTTTT",
"TTTTTTTTTTTTTTTTTTTTTTTTTTpaaaa&&&&&&&&&&&&aaaaaUTTTTTTTTTTTTTTT",
"TTTTTTTTTTTTTTTTTTTTTTTTTTaaaaa&&&&&&&&&&&&aaaaaTTTTTTTTTTTTTTTT",
"TTTTTTTTTTTTTTTTTTTTTTTTTTaaaaa&&&&&&&&&&&&aaaaLTTTTTTTTTTTTTTTT",
"TTTTTTTTTTTTTTTTTTTTTTTTTaaaaa&&&&&&&&&&&&aaaaaTTTTTTTTTTTTTTTTT",
"TTTTTTTTTTTTTTTTTTTTTTTTTaaaaa&&&&&&&&&&&&aaaaaTTTTTTTTTTTTTTTTT",
"TTTTTTTTTTTTTTTTTTTTTTTTTaaaa3&&&&&&&&&&&7aaaaKTTTTTTTTTTTTTTTTT",
"TTTTTTTTTTTTTTTTTTTTTTTTaaaaa&&&&&&&&&&&&aaaaaTTTTTTTTTTTTTTTTTT",
"TTTTTTTTTTTTTTTTTTTTTTTTaaaaa&&&&&&&&&&&=aaaamTTTTTTTTTTTTTTTTTT",
"TTTTTTTTTTTTTTTTTTTTTTTTaaaa#&&&&&&&&&&&aaaaaTTTTTTTTTTTTTTTTTTT",
"TTTTTTTTTTTTTTTTTTTTTTTaaaaa&&&&&&&&&&&&aaaaaTTTTTTTTTTTTTTTTTTT",
"TTTTTTTTTTTTTTTTTTTTTTTaaaaa&&&&&&&&&&&*aaaaMTTTTTTTTTTTTTTTTTTT",
"TTTTTTTTTTTTTTTTTTTTTTaaaaa&&&&&&&&&&&&aaaaaTTTTTTTTTTTTTTTTTTTT",
"TTTTTTTTTTTTTTTTTTTTTTaaaaa&&&&&&&&&&&&aaaaaTTTTTTTTTTTTTTTTTTTT",
"TTTTTTTTTTTTTTTTTTTTTTaaaa &&&&&&&&&&&aaaaaUTTTTTTTTTTTTTTTTTTTT",
"TTTTTTTTTTTTTTTTTTTTTuaaaa&&&&&&&&&&&&aaaaaTTTTTTTTTTTTTTTTTTTTT",
"TTTTTTTTTTTTTTTTTTTTTaaaaa&&&&&&&&&&&&aaaacTTTTTTTTTTTTTTTTTTTTT",
"TTTTTTTTTTTTTTTTTTTTTaaaa<&&&&&&&&&&&aaaaaUTTTTTTTTTTTTTTTTTTTTT",
"TTTTTTTTTTTTTTTTTTTTaaaaa&&&&&&&&&&&&aaaaaTTTTTTTTTTTTTTTTTTTTTT",
"TTTTTTTTTTTTTTTTTTTTaaaaw&&&&&&&&&&&faaaaUTTTTTTTTTTTTTTTTTTTTTT",
"TTTTTTTTTTTTTTTTTTTyaaaa&&&&&&&&&&&&aaaaaTTTTTTTTTTTTTTTTTTTTTTT",
"TTTTTTTTTTTTTTTTTTTaaaaa&&&&&&&&&&&&aaaaATTTTTTTTTTTTTTTTTTTTTTT",
"TTTTTTTTTTTTTTTTTTTaaaaa&&&&&&&&&&&gaaaaTTTTTTTTTTTTTTTTTTTTTTTT",
"TTTTTTTTTTTTTTTTTTTaaaaa29aaaaaaaaaaaaaaTTTTTTTTTTTTTTTTTTTTTTTT",
"TTTTTTTTTTTTTTTTTTTaaaaaaaaaaaaaaaaaaaaFTTTTTTTTTTTTTTTTTTTTTTTT",
"TTTTTTTTTTTTTTTTTTTaaaaaaaaaaaaaaaaaaaaTTTTTTTTTTTTTTTTTTTTTTTTT",
"TTTTTTTTTTTTTTTTTTTTaaaaaaaaaaaaaaaaaxTTTTTTTTTTTTTTTTTTTTTTTTTT",
"TTTTTTTTTTTTTTTTTTTTTlaaaaaaaaaaaNDUTTTTTTTTTTTTTTTTTTTTTTTTTTTT",
"TTTTTTTTTTTTTTTTTTTTTTTTTTTTTTTTTTTTTTTTTTTTTTTTTTTTTTTTTTTTTTTT",
"TTTTTTTTTTTTTTTTTTTTTTTTTTTTTTTTTTTTTTTTTTTTTTTTTTTTTTTTTTTTTTTT",
"TTTTTTTTTTTTTTTTTTTTTTTTTTTTTTTTTTTTTTTTTTTTTTTTTTTTTTTTTTTTTTTT",
"TTTTTTTTTTTTTTTTTTTTTTTTTTTTTTTTTTTTTTTTTTTTTTTTTTTTTTTTTTTTTTTT",
"TTTTTTTTTTTTTTTTTTTTTTTTTTTTTTTTTTTTTTTTTTTTTTTTTTTTTTTTTTTTTTTT"
};
