/* XPM */
static char *result[] = {
/* columns rows colors chars-per-pixel */
"64 64 51 1 ",
"  c #E2BD1E",
". c #DDBB22",
"X c #D1B52D",
"o c #CBB233",
"O c #C8B136",
"+ c #FFCC03",
"@ c #F2C50F",
"# c #F9C909",
"$ c #E9C117",
"% c #F0C411",
"& c #9B9B5F",
"* c #A09D5B",
"= c #B3A64A",
"- c #999A61",
"; c #3E6DB5",
": c #3D6DB6",
"> c #3C6CB7",
", c #3D6CB7",
"< c #3668B9",
"1 c #3769B9",
"2 c #3769BA",
"3 c #3A6BB9",
"4 c #3B6BB9",
"5 c #386ABB",
"6 c #3C6BBA",
"7 c #56799F",
"8 c #5E7D98",
"9 c #5C7C9A",
"0 c #637F93",
"q c #4571AF",
"w c #4972AB",
"e c #4A73AA",
"r c #5377A2",
"t c #416EB3",
"y c #426FB2",
"u c #4672BB",
"i c #5079BB",
"p c #537BBA",
"a c #6B838C",
"s c #788A80",
"d c #648092",
"f c #658092",
"g c #6686BB",
"h c #93A3BD",
"j c #9AA8BD",
"k c #A1ACBD",
"l c #A3ADBD",
"z c #B4B9BE",
"x c gray",
"c c gray75",
"v c None",
/* pixels */
"vvvvvvvvvvvvvvvvvvvvvvv555555555555552vvvvvvvvvvvvvvvvvvvvvvvvvv",
"vvvvvvvvvvvvvvvvvvvv5555555555555555555555vvvvvvvvvvvvvvvvvvvvvv",
"vvvvvvvvvvvvvvvvvv55555555555555555555555555vvvvvvvvvvvvvvvvvvvv",
"vvvvvvvvvvvvvvvvv55555555555555555555555555555vvvvvvvvvvvvvvvvvv",
"vvvvvvvvvvvvvvv<5555555555555555555555555555555vvvvvvvvvvvvvvvvv",
"vvvvvvvvvvvvvv15555555555+++++++++@:5555555555555vvvvvvvvvvvvvvv",
"vvvvvvvvvvvvvv55555555++++++++++++++++++555555555kvvvvvvvvvvvvvv",
"vvvvvvvvvvvvv5555555++++++++++++++++++++++05555555xvvvvvvvvvvvvv",
"vvvvvvvvvvvv5555555+++++++++++++++++++++++++5555555vvvvvvvvvvvvv",
"vvvvvvvvvvvv555555+++++++++++++++++++++++++++5555555vvvvvvvvvvvv",
"vvvvvvvvvvv555555+++++++++++++++++++++++++++++555555vvvvvvvvvvvv",
"vvvvvvvvvvv555555++++++++++++++++++++++++++++++555555vvvvvvvvvvv",
"vvvvvvvvvvv55555+++++++++++++++++++++++++++++++555555vvvvvvvvvvv",
"vvvvvvvvvv555555++++++++++++++++++++++++++++++++55555xvvvvvvvvvv",
"vvvvvvvvvv555555++++++++++++++++++++++++++++++++55555xvvvvvvvvvv",
"vvvvvvvvvv55555++++++++++++++&55;+++++++++++++++55555xvvvvvvvvvv",
"vvvvvvvvvv55555++++++++++++X55555554++++++++++++55555xvvvvvvvvvv",
"vvvvvvvvvv55555o++++++++++++5555555++++++++++++555555xvvvvvvvvvv",
"vvvvvvvvvv555555++++++++++++++55,++++++++++++++555555vvvvvvvvvvv",
"vvvvvvvvvv155555++++++++++++++++++++++++++++++555555zvvvvvvvvvvv",
"vvvvvvvvvvv555555++++++++++++++++++++++++++++5555555vvvvvvvvvvvv",
"vvvvvvvvvvv555555+++++++++++++++++++++++++++f555555xvvvvvvvvvvvv",
"vvvvvvvvvvvv5555557++++++++++++++++++++++++s555555pvvvvvvvvvvvvv",
"vvvvvvvvvvvv55555555+++++++++++++++++++++++55555555vvvvvvvvvvvvv",
"vvvvvvvvvvvvv55555555*++++++++++++++++++++++y5555555vvvvvvvvvvvv",
"vvvvvvvvvvvvv555555555+++++++++++++++++++++++ 5555555vvvvvvvvvvv",
"vvvvvvvvvvvv55555555+++++++++++++++++++++++++++5555556vvvvvvvvvv",
"vvvvvvvvvvv55555555++++++++++++++++++++++++++++$555555vvvvvvvvvv",
"vvvvvvvvvvv555555d++++++++++++++++++++++++++++++7555555vvvvvvvvv",
"vvvvvvvvvv5555555++++++++++++++++++++++++++++++++555555cvvvvvvvv",
"vvvvvvvvvv555555++++++++++++++++++++++++++++++++++555555vvvvvvvv",
"vvvvvvvvv555555+++++++++++++++++++++++++++++++++++555555xvvvvvvv",
"vvvvvvvvv555555++++++++++++++++++a555++++++++++++++555555vvvvvvv",
"vvvvvvvvv55555++++++++++++++++>5555555+++++++++++++555555vvvvvvv",
"vvvvvvvv555555++++++++++++++55555555555+++++++++++++55555vvvvvvv",
"vvvvvvvv555555++++++++++++-555555555555+++++++++++++55555xvvvvvv",
"vvvvvvvv55555+++++++++++++5555555555555+++++++++++++55555ivvvvvv",
"vvvvvvvv55555++++++++++++q5555555555555+++++++++++++555555vvvvvv",
"vvvvvvvv55555++++++++++++5555555555555++++++++++++++555555vvvvvv",
"vvvvvvvv55555++++++++++++5555555555555++++++++++++++555555vvvvvv",
"vvvvvvvv55555+++++++++++++5555555555r+++++++++++++++555555vvvvvv",
"vvvvvvvv55555++++++++++++++++=5559++++++++++++++++++55555xvvvvvv",
"vvvvvvvv55555+++++++++++++++++++++++++++++++++++++++55555xvvvvvv",
"vvvvvvvv555555+++++++++++++++++++++++++++++++++++++555555vvvvvvv",
"vvvvvvvv555555+++++++++++++++++++++++++++++++++++++555555vvvvvvv",
"vvvvvvvvv555553+++++++++++++++++++++++++++++++++++555555xvvvvvvv",
"vvvvvvvvv555555++++++++++++++++++++++++++++++++++e555555vvvvvvvv",
"vvvvvvvvvv555555+++++++++++++++++++++++++++++++++555555xvvvvvvvv",
"vvvvvvvvvv555555w+++++++++++++++++++++++++++++++5555555vvvvvvvvv",
"vvvvvvvvvvv5555558++++++++++++++++++++++++++++t5555555cvvvvvvvvv",
"vvvvvvvvvvv55555555++++++++++++++++++++++++++55555555xvvvvvvvvvv",
"vvvvvvvvvvvv55555555#++++++++++++++++++++++555555555xvvvvvvvvvvv",
"vvvvvvvvvvvvv555555555%+++++++++++++++++O5555555555xvvvvvvvvvvvv",
"vvvvvvvvvvvvvv555555555555+++++++++.55555555555555xvvvvvvvvvvvvv",
"vvvvvvvvvvvvvvv555555555555555555555555555555555uvvvvvvvvvvvvvvv",
"vvvvvvvvvvvvvvvvv555555555555555555555555555555xvvvvvvvvvvvvvvvv",
"vvvvvvvvvvvvvvvvvvg55555555555555555555555555xvvvvvvvvvvvvvvvvvv",
"vvvvvvvvvvvvvvvvvvvvh555555555555555555555jcvvvvvvvvvvvvvvvvvvvv",
"vvvvvvvvvvvvvvvvvvvvvvvc55555555555555lxvvvvvvvvvvvvvvvvvvvvvvvv",
"vvvvvvvvvvvvvvvvvvvvvvvvvvvvvvvvvvvvvvvvvvvvvvvvvvvvvvvvvvvvvvvv",
"vvvvvvvvvvvvvvvvvvvvvvvvvvvvvvvvvvvvvvvvvvvvvvvvvvvvvvvvvvvvvvvv",
"vvvvvvvvvvvvvvvvvvvvvvvvvvvvvvvvvvvvvvvvvvvvvvvvvvvvvvvvvvvvvvvv",
"vvvvvvvvvvvvvvvvvvvvvvvvvvvvvvvvvvvvvvvvvvvvvvvvvvvvvvvvvvvvvvvv",
"vvvvvvvvvvvvvvvvvvvvvvvvvvvvvvvvvvvvvvvvvvvvvvvvvvvvvvvvvvvvvvvv"
};
