/* XPM */
static char *result[] = {
/* columns rows colors chars-per-pixel */
"64 64 31 1 ",
"  c #FFCC03",
". c #F3C60E",
"X c #F2C60F",
"o c #F7C80B",
"O c #E7C019",
"+ c #B1A64B",
"@ c #3E6DB5",
"# c #3C6CB7",
"$ c #3668B9",
"% c #3769B9",
"& c #3669BA",
"* c #3B6BB9",
"= c #3869BA",
"- c #386ABB",
"; c #3B6CB8",
": c #3E6EB9",
"> c #5B7B9B",
", c #617E95",
"< c #637F94",
"1 c #4E75A7",
"2 c #4570AF",
"3 c #4A73AA",
"4 c #5277A3",
"5 c #567CBB",
"6 c #718687",
"7 c #8EA0BC",
"8 c #A2ADBD",
"9 c #BDBFBF",
"0 c gray",
"q c gray75",
"w c None",
/* pixels */
"wwwwwwwwwwwwwwwwwwwwwwwwwwwww----------wwwwwwwwwwwwwwwwwwwwwwwww",
"wwwwwwwwwwwwwwwwwwwwwwwww-----------------wwwwwwwwwwwwwwwwwwwwww",
"wwwwwwwwwwwwwwwwwwwwwww---------------------wwwwwwwwwwwwwwwwwwww",
"wwwwwwwwwwwwwwwwwwwww-------------------------wwwwwwwwwwwwwwwwww",
"wwwwwwwwwwwwwwwwwwww-----------.    o----------wwwwwwwwwwwwwwwww",
"wwwwwwwwwwwwwwwwwww--------              -------wwwwwwwwwwwwwwww",
"wwwwwwwwwwwwwwwwww-------                  ------wwwwwwwwwwwwwww",
"wwwwwwwwwwwwwwwww------                     ------wwwwwwwwwwwwww",
"wwwwwwwwwwwwwwwww-----                       -----9wwwwwwwwwwwww",
"wwwwwwwwwwwwwwww-----                         -----wwwwwwwwwwwww",
"wwwwwwwwwwwwwww%----                           ----0wwwwwwwwwwww",
"wwwwwwwwwwwwwww-----                           -----wwwwwwwwwwww",
"wwwwwwwwwwwwwww----                            +----wwwwwwwwwwww",
"wwwwwwwwwwwwww-----                             ----wwwwwwwwwwww",
"wwwwwwwwwwwwww-----             ----            ----wwwwwwwwwwww",
"wwwwwwwwwwwwww----            -------           ----wwwwwwwwwwww",
"wwwwwwwwwwwwww----            -------           ----wwwwwwwwwwww",
"wwwwwwwwwwwwww----            -------          2----wwwwwwwwwwww",
"wwwwwwwwwwwwww----;           -------          -----wwwwwwwwwwww",
"wwwwwwwwwwwwww-----           -----,           ----:wwwwwwwwwwww",
"wwwwwwwwwwwwwww----            --<             ----0wwwwwwwwwwww",
"wwwwwwwwwwwwwww-----                           ----wwwwwwwwwwwww",
"wwwwwwwwwwwwwww-----                          -----wwwwwwwwwwwww",
"wwwwwwwwwwwwwwww-----                         -----wwwwwwwwwwwww",
"wwwwwwwwwwwwwwww-----                         ----0wwwwwwwwwwwww",
"wwwwwwwwwwwwwwwww-----                       X----wwwwwwwwwwwwww",
"wwwwwwwwwwwwwwwww------                      -----wwwwwwwwwwwwww",
"wwwwwwwwwwwwwwwwww------                     ----0wwwwwwwwwwwwww",
"wwwwwwwwwwwwwwwwwww-------                  -----wwwwwwwwwwwwwww",
"wwwwwwwwwwwwwwwwwwww--------                -----wwwwwwwwwwwwwww",
"wwwwwwwwwwwwwwwwwwwww-----------           1----0wwwwwwwwwwwwwww",
"wwwwwwwwwwwwwwwwwwwwww----------           -----wwwwwwwwwwwwwwww",
"wwwwwwwwwwwwwwwwwwwwwwww-------           -----0wwwwwwwwwwwwwwww",
"wwwwwwwwwwwwwwwwwwwwwwwwww-----           -----wwwwwwwwwwwwwwwww",
"wwwwwwwwwwwwwwwwwwwwwwwww-----           -----0wwwwwwwwwwwwwwwww",
"wwwwwwwwwwwwwwwwwwwwwwwww----*           -----wwwwwwwwwwwwwwwwww",
"wwwwwwwwwwwwwwwwwwwwwwww-----           -----0wwwwwwwwwwwwwwwwww",
"wwwwwwwwwwwwwwwwwwwwwww=----4           -----wwwwwwwwwwwwwwwwwww",
"wwwwwwwwwwwwwwwwwwwwwww-----           -----qwwwwwwwwwwwwwwwwwww",
"wwwwwwwwwwwwwwwwwwwwww-----            -----wwwwwwwwwwwwwwwwwwww",
"wwwwwwwwwwwwwwwwwwwwww-----           -----0wwwwwwwwwwwwwwwwwwww",
"wwwwwwwwwwwwwwwwwwwww-----           O----7wwwwwwwwwwwwwwwwwwwww",
"wwwwwwwwwwwwwwwwwwww$-----           -----wwwwwwwwwwwwwwwwwwwwww",
"wwwwwwwwwwwwwwwwwwww-----           -----0wwwwwwwwwwwwwwwwwwwwww",
"wwwwwwwwwwwwwwwwwww-----            -----wwwwwwwwwwwwwwwwwwwwwww",
"wwwwwwwwwwwwwwwwwww-----           -----0wwwwwwwwwwwwwwwwwwwwwww",
"wwwwwwwwwwwwwwwwww-----           #-----wwwwwwwwwwwwwwwwwwwwwwww",
"wwwwwwwwwwwwwwwww-----@           -----wwwwwwwwwwwwwwwwwwwwwwwww",
"wwwwwwwwwwwwwwwww-----           -----0wwwwwwwwwwwwwwwwwwwwwwwww",
"wwwwwwwwwwwwwwww-----           ------wwwwwwwwwwwwwwwwwwwwwwwwww",
"wwwwwwwwwwwwwwww-----          ------wwwwwwwwwwwwwwwwwwwwwwwwwww",
"wwwwwwwwwwwwwww-----          3-----0wwwwwwwwwwwwwwwwwwwwwwwwwww",
"wwwwwwwwwwwwww&---->         6-----0wwwwwwwwwwwwwwwwwwwwwwwwwwww",
"wwwwwwwwwwwwww-----         ------8wwwwwwwwwwwwwwwwwwwwwwwwwwwww",
"wwwwwwwwwwwwww-----        -------wwwwwwwwwwwwwwwwwwwwwwwwwwwwww",
"wwwwwwwwwwwwww-------------------wwwwwwwwwwwwwwwwwwwwwwwwwwwwwww",
"wwwwwwwwwwwwwww----------------5wwwwwwwwwwwwwwwwwwwwwwwwwwwwwwww",
"wwwwwwwwwwwwwwww--------------0wwwwwwwwwwwwwwwwwwwwwwwwwwwwwwwww",
"wwwwwwwwwwwwwwwww------------0wwwwwwwwwwwwwwwwwwwwwwwwwwwwwwwwww",
"wwwwwwwwwwwwwwwwwwwwwwww000wwwwwwwwwwwwwwwwwwwwwwwwwwwwwwwwwwwww",
"wwwwwwwwwwwwwwwwwwwwwwwwwwwwwwwwwwwwwwwwwwwwwwwwwwwwwwwwwwwwwwww",
"wwwwwwwwwwwwwwwwwwwwwwwwwwwwwwwwwwwwwwwwwwwwwwwwwwwwwwwwwwwwwwww",
"wwwwwwwwwwwwwwwwwwwwwwwwwwwwwwwwwwwwwwwwwwwwwwwwwwwwwwwwwwwwwwww",
"wwwwwwwwwwwwwwwwwwwwwwwwwwwwwwwwwwwwwwwwwwwwwwwwwwwwwwwwwwwwwwww"
};
