/* XPM */
static char *coin1683689031[] = {
/* columns rows colors chars-per-pixel */
"64 64 10 1 ",
"  c black",
". c #F52C2C",
"X c #138054",
"o c #16905E",
"O c #18A068",
"+ c #40B080",
"@ c #70C0A0",
"# c #A0D0C0",
"$ c gray80",
"% c white",
/* pixels */
"++++++++++++++++++++++++++++++++++++++++++++++++++++++++++++++++",
"++++++++++++++++++++++++++++++++++++++++++++++++++++++++++++++++",
"++++++++++++++++++++++++++++++++++++++++++++++++++++++++++++++++",
"++++++++++++++++++++++++++++++++++++++++++++++++++++++++++++++++",
"++++++++++++++++++++++++++++++++++++++++++++++++OOOO++++OOOO++++",
"++++++++++++++++++++++++++++++++++++++++++++++++OOOO++++OOOO++++",
"++++++++++++++++++++++++++++++++++++++++++++++++OOOO++++OOOO++++",
"++++++++++++++++++++++++++++++++++++++++++++++++OOOO++++OOOO++++",
"++++OOOO++++OOOO++++++++++++++++++++++++++++++++++++OOOO++++++++",
"++++OOOO++++OOOO++++++++++++++++++++++++++++++++++++OOOO++++++++",
"++++OOOO++++OOOO++++++++++++++++++++++++++++++++++++OOOO++++++++",
"++++OOOO++++OOOO++++++++++++++++++++++++++++++++++++OOOO++++++++",
"++++++++OOOO++++++++++++++++++++++++++++++++++++++++++++++++++++",
"++++++++OOOO++++++++++++++++++++++++++++++++++++++++++++++++++++",
"++++++++OOOO++++++++++++++++++++++++++++++++++++++++++++++++++++",
"++++++++OOOO++++++++++++++++++++++++++++++++++++++++++++++++++++",
"++++++++++++++++++++++++++++++++++++++++++++++++++++++++++++++++",
"++++++++++++++++++++++++++++++++++++++++++++++++++++++++++++++++",
"++++++++++++++++++++++++++++++++++++++++++++++++++++++++++++++++",
"++++++++++++++++++++++++++++++++++++++++++++++++++++++++++++++++",
"++++++++++++++++++++++++++++        ++++####++++++++++++++++++++",
"++++++++++++++++++++++++++++        ++++####++++++++++++++++++++",
"++++++++++++++++++++++++    ........    ####++++++++++++++++++++",
"++++++++++++++++++++++++    ........    ####++++++++++++++++++++",
"++++++++++++@@@@++++++  ....%%..........  ++++++++++++++++++++++",
"++++++++++++@@@@++++++  ....%%..........  ++++++++++++++++++++++",
"++++++++++++@@@@++++++  ..%%%%%%........  ++++++++++++++++++++++",
"++++++++++++@@@@++++++  ..%%%%%%........  ++++++++++++++++++++++",
"++++++++++++++++++++  ......%%............  ++++++++++++++++++++",
"++++++++++++++++++++  ......%%............  ++++++++++++++++++++",
"++++++++++++++++++++  ........    ........  ++++++++++++++++++++",
"++++++++++++++++++++  ........    ........  ++++++++++++++++++++",
"++++++++++++++++++++    ....  %%$$  ....    ++++++++++++++++++++",
"++++++++++++++++++++    ....  %%$$  ....    ++++++++++++++++++++",
"++++++++++++++++++++  %%      $$$$      $$  ++++++++++++++++++++",
"++++++++++++++++++++  %%      $$$$      $$  ++++++++++++++++++++",
"++++++++++++++++++++OO  %%%%%%    $$$$$$  XXOO++++++++++++++++++",
"++++++++++++++++++++OO  %%%%%%    $$$$$$  XXOO++++++++++++++++++",
"++++++++++++++++++++OO  $$%%%%$$$$$$$$$$  ooOOOO++++++++++++++++",
"++++++++++++++++++++OO  $$%%%%$$$$$$$$$$  ooOOOO++++++++++++++++",
"++++++++++++++++++++++OO    $$$$$$$$    XXOOOO++++++++++++++++++",
"++++++++++++++++++++++OO    $$$$$$$$    XXOOOO++++++++++++++++++",
"++++++++++++++++++++++++OOOO        XXooOOOO++++++++++++++++++++",
"++++++++++++++++++++++++OOOO        XXooOOOO++++++++++++++++++++",
"++++++++++++++++++++++++++++++++++++++++++++++++++++++++++++++++",
"++++++++++++++++++++++++++++++++++++++++++++++++++++++++++++++++",
"++++++++++++++++++++++++++++++++++++++++++++++++++++++++++++++++",
"++++++++++++++++++++++++++++++++++++++++++++++++++++++++++++++++",
"++++++++++++++++++++++++++++++++++++OOOO++++OOOO++++++++++++++++",
"++++++++++++++++++++++++++++++++++++OOOO++++OOOO++++++++++++++++",
"++++++++++++++++++++++++++++++++++++OOOO++++OOOO++++++++++++++++",
"++++++++++++++++++++++++++++++++++++OOOO++++OOOO++++++++++++++++",
"++++++++++++++++++++++++++++++++++++++++OOOO++++++++++++++++++++",
"++++++++++++++++++++++++++++++++++++++++OOOO++++++++++++++++++++",
"++++++++++++++++++++++++++++++++++++++++OOOO++++++++++++++++++++",
"++++++++++++++++++++++++++++++++++++++++OOOO++++++++++++++++++++",
"++++++++++++++++++++++++++++++++++++++++++++++++++++++++++++++++",
"++++++++++++++++++++++++++++++++++++++++++++++++++++++++++++++++",
"++++++++++++++++++++++++++++++++++++++++++++++++++++++++++++++++",
"++++++++++++++++++++++++++++++++++++++++++++++++++++++++++++++++",
"++++++++++++++++++++++++++++++++++++++++++++++++++++++++++++++++",
"++++++++++++++++++++++++++++++++++++++++++++++++++++++++++++++++",
"++++++++++++++++++++++++++++++++++++++++++++++++++++++++++++++++",
"++++++++++++++++++++++++++++++++++++++++++++++++++++++++++++++++"
};
