/* XPM */
static char *_d8e0dfc19674e6ed19e0936303c4ebaAY4dsDnaqNdeC2N4[] = {
/* columns rows colors chars-per-pixel */
"64 64 10 1 ",
"  c black",
". c #F52C2C",
"X c #138054",
"o c #16905E",
"O c #18A068",
"+ c #40B080",
"@ c #70C0A0",
"# c #A0D0C0",
"$ c gray80",
"% c white",
/* pixels */
"++++++++++++++++++++++++++++++++++++++++++++++++++++++++++++++++",
"++++++++++++++++++++++++++++++++++++++++++++++++++++++++++++++++",
"++++++++++++++++++++++++++++++++++++++++++++++++++++++++++++++++",
"++++++++++++++++++++++++++++++++++++++++++++++++++++++++++++++++",
"++++++++++++++++++++++++++++++++++++++++++++++++OOOO++++OOOO++++",
"++++++++++++++++++++++++++++++++++++++++++++++++OOOO++++OOOO++++",
"++++++++++++++++++++++++++++++++++++++++++++++++OOOO++++OOOO++++",
"++++++++++++++++++++++++++++++++++++++++++++++++OOOO++++OOOO++++",
"++++OOOO++++OOOO++++++++++++++++++++++++++++++++++++OOOO++++++++",
"++++OOOO++++OOOO++++++++++++++++++++++++++++++++++++OOOO++++++++",
"++++OOOO++++OOOO++++++++++++++++++++++++++++++++++++OOOO++++++++",
"++++OOOO++++OOOO++++++++++++++++++++++++++++++++++++OOOO++++++++",
"++++++++OOOO++++++++++++++++++++++++++++++++++++++++++++++++++++",
"++++++++OOOO++++++++++++++++++++++++++++++++++++++++++++++++++++",
"++++++++OOOO++++++++++++++++++++++++++++++++++++++++++++++++++++",
"++++++++OOOO++++++++++++++++++++++++++++++++++++++++++++++++++++",
"++++++++++++++++++++++++++++++++++++++++++++++++++++++++++++++++",
"++++++++++++++++++++++++++++++++++++++++++++++++++++++++++++++++",
"++++++++++++++++++++++++++++++++++++++++++++++++++++++++++++++++",
"++++++++++++++++++++++++++++++++++++++++++++++++++++++++++++++++",
"+++++++++++++++++++++++++++        +++++####++++++++++++++++++++",
"++++++++++++++++++++++++           +++++####++++++++++++++++++++",
"++++++++++++++++++++++++   ........  +++####++++++++++++++++++++",
"+++++++++++++++++++++    ............  +####++++++++++++++++++++",
"++++++++++++@@@@+++++    ............  +++++++++++++++++++++++++",
"++++++++++++@@@@++++ ................  +++++++++++++++++++++++++",
"++++++++++++@@@@+++  ................  +++++++++++++++++++++++++",
"++++++++++++@@@@+++  ...%%.............  +++++++++++++++++++++++",
"+++++++++++++++++++  ...%%.............  +++++++++++++++++++++++",
"+++++++++++++++++++  .%%%%%%............  ++++++++++++++++++++++",
"++++++++++++++++++  ..%%%%%%    ........  ++++++++++++++++++++++",
"++++++++++++++++++  ....%%      ......    ++++++++++++++++++++++",
"++++++++++++++++++  ....%%  %%$$  ....    ++++++++++++++++++++++",
"++++++++++++++++++  ......  %%$$  .   $$  ++++++++++++++++++++++",
"++++++++++++++++++    ....  $$$$      $$  ++++++++++++++++++++++",
"++++++++++++++++++          $$$$   $$$$$ +++++++++++++++++++++++",
"++++++++++++++++++  %%            $$$$$  O++++++++++++++++++++++",
"+++++++++++++++++O  %%%%%%%%     $$$$$$  X++++++++++++++++++++++",
"+++++++++++++++++Ooo %%%%%%%%$$$$$$$$$$  X++++++++++++++++++++++",
"+++++++++++++++++ooXX  %%%%%%%$$$$$$   XXo++++++++++++++++++++++",
"+++++++++++++++++ooXX  %%%%%%%$$$$$    XX+++++++++++++++++++++++",
"+++++++++++++++++OOooXX    $$$$$$$$  XX+++++++++++++++++++++++++",
"++++++++++++++++++++oXX              X++++++++++++++++++++++++++",
"+++++++++++++++++++++OOooXX        XX+++++++++++++++++++++++++++",
"++++++++++++++++++++++++++++++++++++++++++++++++++++++++++++++++",
"++++++++++++++++++++++++++++++++++++++++++++++++++++++++++++++++",
"++++++++++++++++++++++++++++++++++++++++++++++++++++++++++++++++",
"++++++++++++++++++++++++++++++++++++++++++++++++++++++++++++++++",
"++++++++++++++++++++++++++++++++++++OOOO++++OOOO++++++++++++++++",
"++++++++++++++++++++++++++++++++++++OOOO++++OOOO++++++++++++++++",
"++++++++++++++++++++++++++++++++++++OOOO++++OOOO++++++++++++++++",
"++++++++++++++++++++++++++++++++++++OOOO++++OOOO++++++++++++++++",
"++++++++++++++++++++++++++++++++++++++++OOOO++++++++++++++++++++",
"++++++++++++++++++++++++++++++++++++++++OOOO++++++++++++++++++++",
"++++++++++++++++++++++++++++++++++++++++OOOO++++++++++++++++++++",
"++++++++++++++++++++++++++++++++++++++++OOOO++++++++++++++++++++",
"++++++++++++++++++++++++++++++++++++++++++++++++++++++++++++++++",
"++++++++++++++++++++++++++++++++++++++++++++++++++++++++++++++++",
"++++++++++++++++++++++++++++++++++++++++++++++++++++++++++++++++",
"++++++++++++++++++++++++++++++++++++++++++++++++++++++++++++++++",
"++++++++++++++++++++++++++++++++++++++++++++++++++++++++++++++++",
"++++++++++++++++++++++++++++++++++++++++++++++++++++++++++++++++",
"++++++++++++++++++++++++++++++++++++++++++++++++++++++++++++++++",
"++++++++++++++++++++++++++++++++++++++++++++++++++++++++++++++++"
};
