/* XPM */
static char *_6620dff4f484aecc45fa4ea2634f970S64XCg7moZmifHtj[] = {
/* columns rows colors chars-per-pixel */
"32 32 10 1 ",
"  c black",
". c #F52C2C",
"X c #138054",
"o c #16905E",
"O c #18A068",
"+ c #40B080",
"@ c #70C0A0",
"# c #A0D0C0",
"$ c gray80",
"% c white",
/* pixels */
"++++++++++++++++++++++++++++++++",
"++++++++++++++++++++++++++++++++",
"++++++++++++++++++++++++OO++OO++",
"++++++++++++++++++++++++OO++OO++",
"++OO++OO++++++++++++++++++OO++++",
"++OO++OO++++++++++++++++++OO++++",
"++++OO++++++++++++++++++++++++++",
"++++OO++++++++++++++++++++++++++",
"++++++++++++++++++++++++++++++++",
"++++++++++++++++++++++++++++++++",
"++++++++++++++    ++##++++++++++",
"++++++++++++  ....  ##++++++++++",
"++++++@@+++ ..%..... +++++++++++",
"++++++@@+++ .%%%.... +++++++++++",
"++++++++++ ...%...... ++++++++++",
"++++++++++ ....  .... ++++++++++",
"++++++++++  .. %$ ..  ++++++++++",
"++++++++++ %   $$   $ ++++++++++",
"++++++++++O %%%  $$$ XO+++++++++",
"++++++++O+O $%%$$$$$ oOO++++++++",
"+++++++++++O  $$$$  XOO+++++++++",
"++++++++++++OO    XoOO++++++++++",
"++++++++++++++++++++++++++++++++",
"++++++++++++++++++++++++++++++++",
"++++++++++++++++++OO++OO++++++++",
"++++++++++++++++++OO++OO++++++++",
"++++++++++++++++++++OO++++++++++",
"++++++++++++++++++++OO++++++++++",
"++++++++++++++++++++++++++++++++",
"++++++++++++++++++++++++++++++++",
"++++++++++++++++++++++++++++++++",
"++++++++++++++++++++++++++++++++"
};
