/* XPM */
static char *_260583f1a3a41b3cde6acdfc64a3ca9YPH0Nzw1SN5LhAKw[] = {
/* columns rows colors chars-per-pixel */
"64 64 10 1 ",
"  c black",
". c #F52C2C",
"X c #138054",
"o c #16905E",
"O c #18A068",
"+ c #40B080",
"@ c #70C0A0",
"# c #A0D0C0",
"$ c gray80",
"% c white",
/* pixels */
"++++++++++++++++++++++++++++++++++++++++++++++++++++++++++++++++",
"++++++++++++++++++++++++++++++++++++++++++++++++++++++++++++++++",
"++++++++++++++++++++++++++++++++++++++++++++++++++++++++++++++++",
"++++++++++++++++++++++++++++++++++++++++++++++++++++++++++++++++",
"++++++++++++++++++++++++++++++++++++++++++++++++OOOO++++OOOO++++",
"++++++++++++++++++++++++++++++++++++++++++++++++OOOO++++OOOO++++",
"++++++++++++++++++++++++++++++++++++++++++++++++OOOO++++OOOO++++",
"++++++++++++++++++++++++++++++++++++++++++++++++OOOO++++OOOO++++",
"++++OOOO++++OOOO++++++++++++++++++++++++++++++++++++OOOO++++++++",
"++++OOOO++++OOOO++++++++++++++++++++++++++++++++++++OOOO++++++++",
"++++OOOO++++OOOO++++++++++++++++++++++++++++++++++++OOOO++++++++",
"++++OOOO++++OOOO++++++++++++++++++++++++++++++++++++OOOO++++++++",
"++++++++OOOO++++++++++++++++++++++++++++++++++++++++++++++++++++",
"++++++++OOOO++++++++++++++++++++++++++++++++++++++++++++++++++++",
"++++++++OOOO++++++++++++++++++++++++++++++++++++++++++++++++++++",
"++++++++OOOO++++++++++++++++++++++++++++++++++++++++++++++++++++",
"++++++++++++++++++++++++++++++++++++++++++++++++++++++++++++++++",
"++++++++++++++++++++++++++++++++++++++++++++++++++++++++++++++++",
"++++++++++++++++++++++++++++++++++++++++++++++++++++++++++++++++",
"++++++++++++++++++++++++++++++++++++++++++++++++++++++++++++++++",
"+++++++++++++++++++++++++++++        +++####++++++++++++++++++++",
"+++++++++++++++++++++++++++++           ####++++++++++++++++++++",
"+++++++++++++++++++++++++++  ........   ####++++++++++++++++++++",
"+++++++++++++++++++++++++  ............    #++++++++++++++++++++",
"++++++++++++@@@@+++++++++  ....%%......    +++++++++++++++++++++",
"++++++++++++@@@@+++++++++  ....%%.......... ++++++++++++++++++++",
"++++++++++++@@@@+++++++++  ..%%%%%%........  +++++++++++++++++++",
"++++++++++++@@@@+++++++  ....%%%%%%........  +++++++++++++++++++",
"+++++++++++++++++++++++  ......%%..........  +++++++++++++++++++",
"++++++++++++++++++++++  .......%%..........  +++++++++++++++++++",
"++++++++++++++++++++++  ........    ........  ++++++++++++++++++",
"++++++++++++++++++++++    ......      ......  ++++++++++++++++++",
"++++++++++++++++++++++    ....  %%$$  ......  ++++++++++++++++++",
"++++++++++++++++++++++  %%   .  %%$$  ......  ++++++++++++++++++",
"++++++++++++++++++++++  %%      $$$$  ....    ++++++++++++++++++",
"+++++++++++++++++++++++ %%%%%   $$$$          ++++++++++++++++++",
"++++++++++++++++++++++O  %%%%%            $$  ++++++++++++++++++",
"++++++++++++++++++++++X  %%%%%%     $$$$$$$$  O+++++++++++++++++",
"++++++++++++++++++++++X  %%%%%%$$$$$$$$$$$$ ooO+++++++++++++++++",
"++++++++++++++++++++++oXX   %%%$$$$$$$$$$  XXoo+++++++++++++++++",
"+++++++++++++++++++++++XX    $$$$$$$$$$$$  XXoo+++++++++++++++++",
"+++++++++++++++++++++++++XX  $$$$$$$$    XXooOO+++++++++++++++++",
"++++++++++++++++++++++++++X              XXo++++++++++++++++++++",
"+++++++++++++++++++++++++++XX        XXooOO+++++++++++++++++++++",
"++++++++++++++++++++++++++++++++++++++++++++++++++++++++++++++++",
"++++++++++++++++++++++++++++++++++++++++++++++++++++++++++++++++",
"++++++++++++++++++++++++++++++++++++++++++++++++++++++++++++++++",
"++++++++++++++++++++++++++++++++++++++++++++++++++++++++++++++++",
"++++++++++++++++++++++++++++++++++++OOOO++++OOOO++++++++++++++++",
"++++++++++++++++++++++++++++++++++++OOOO++++OOOO++++++++++++++++",
"++++++++++++++++++++++++++++++++++++OOOO++++OOOO++++++++++++++++",
"++++++++++++++++++++++++++++++++++++OOOO++++OOOO++++++++++++++++",
"++++++++++++++++++++++++++++++++++++++++OOOO++++++++++++++++++++",
"++++++++++++++++++++++++++++++++++++++++OOOO++++++++++++++++++++",
"++++++++++++++++++++++++++++++++++++++++OOOO++++++++++++++++++++",
"++++++++++++++++++++++++++++++++++++++++OOOO++++++++++++++++++++",
"++++++++++++++++++++++++++++++++++++++++++++++++++++++++++++++++",
"++++++++++++++++++++++++++++++++++++++++++++++++++++++++++++++++",
"++++++++++++++++++++++++++++++++++++++++++++++++++++++++++++++++",
"++++++++++++++++++++++++++++++++++++++++++++++++++++++++++++++++",
"++++++++++++++++++++++++++++++++++++++++++++++++++++++++++++++++",
"++++++++++++++++++++++++++++++++++++++++++++++++++++++++++++++++",
"++++++++++++++++++++++++++++++++++++++++++++++++++++++++++++++++",
"++++++++++++++++++++++++++++++++++++++++++++++++++++++++++++++++"
};
