/* XPM */
static char *result[] = {
/* columns rows colors chars-per-pixel */
"64 64 10 1 ",
"  c black",
". c #F52C2C",
"X c #138054",
"o c #16905E",
"O c #18A068",
"+ c #40B080",
"@ c #70C0A0",
"# c #A0D0C0",
"$ c gray80",
"% c white",
/* pixels */
"++++++++++++++++++++++++++++++++++++++++++++++++++++++++++++++++",
"++++++++++++++++++++++++++++++++++++++++++++++++++++++++++++++++",
"++++++++++++++++++++++++++++++++++++++++++++++++++++++++++++++++",
"++++++++++++++++++++++++++++++++++++++++++++++++++++++++++++++++",
"++++++++++++++++++++++++++++++++++++++++++++++++OOOO++++OOOO++++",
"++++++++++++++++++++++++++++++++++++++++++++++++OOOO++++OOOO++++",
"++++++++++++++++++++++++++++++++++++++++++++++++OOOO++++OOOO++++",
"++++++++++++++++++++++++++++++++++++++++++++++++OOOO++++OOOO++++",
"++++OOOO++++OOOO++++++++++++++++++++++++++++++++++++OOOO++++++++",
"++++OOOO++++OOOO++++++++++++++++++++++++++++++++++++OOOO++++++++",
"++++OOOO++++OOOO++++++++++++++++++++++++++++++++++++OOOO++++++++",
"++++OOOO++++OOOO++++++++++++++++++++++++++++++++++++OOOO++++++++",
"++++++++OOOO++++++++++++++++++++++++++++++++++++++++++++++++++++",
"++++++++OOOO++++++++++++++++++++++++++++++++++++++++++++++++++++",
"++++++++OOOO++++++++++++++++++++++++++++++++++++++++++++++++++++",
"++++++++OOOO++++++++++++++++++++++++++++++++++++++++++++++++++++",
"++++++++++++++++++++++++++++++++++++++++++++++++++++++++++++++++",
"++++++++++++++++++++++++++++++++++++++++++++++++++++++++++++++++",
"++++++++++++++++++++++++++++++++++++++++++++++++++++++++++++++++",
"++++++++++++++++++++++++++++++++++++++++++++++++++++++++++++++++",
"+++++++++++++++++++++++++++        +++++####++++++++++++++++++++",
"++++++++++++++++++++++++           +++++####++++++++++++++++++++",
"++++++++++++++++++++++++   ........  +++####++++++++++++++++++++",
"+++++++++++++++++++++    ............  +####++++++++++++++++++++",
"++++++++++++@@@@+++++    ............  +++++++++++++++++++++++++",
"++++++++++++@@@@++++ .................  ++++++++++++++++++++++++",
"++++++++++++@@@@+++  .................. ++++++++++++++++++++++++",
"++++++++++++@@@@+++  ...%%.............  +++++++++++++++++++++++",
"+++++++++++++++++++  ...%%.............  +++++++++++++++++++++++",
"+++++++++++++++++++  .%%%%%%............  ++++++++++++++++++++++",
"++++++++++++++++++  ..%%%%%%    ........  ++++++++++++++++++++++",
"++++++++++++++++++  ....%%      ......    ++++++++++++++++++++++",
"++++++++++++++++++  ....%%  %%$$  ....    ++++++++++++++++++++++",
"++++++++++++++++++  ......  %%$$  .   $$  ++++++++++++++++++++++",
"++++++++++++++++++    ....  $$$$      $$  ++++++++++++++++++++++",
"++++++++++++++++++          $$$$   $$$$$ +++++++++++++++++++++++",
"++++++++++++++++++  %%            $$$$$  O++++++++++++++++++++++",
"+++++++++++++++++O  %%%%%%%%     $$$$$$  XO+++++++++++++++++++++",
"+++++++++++++++++Ooo %%%%%%%%$$$$$$$$$$  XO+++++++++++++++++++++",
"+++++++++++++++++ooXX  %%%%%%%$$$$$$   XXo++++++++++++++++++++++",
"+++++++++++++++++ooXX  %%%%%%%$$$$$    XoO++++++++++++++++++++++",
"+++++++++++++++++OOooXX    $$$$$$$$  XXoO+++++++++++++++++++++++",
"++++++++++++++++++++oXX             XXoO++++++++++++++++++++++++",
"+++++++++++++++++++++OOooXX        XXo++++++++++++++++++++++++++",
"++++++++++++++++++++++++++++++++++++++++++++++++++++++++++++++++",
"++++++++++++++++++++++++++++++++++++++++++++++++++++++++++++++++",
"++++++++++++++++++++++++++++++++++++++++++++++++++++++++++++++++",
"++++++++++++++++++++++++++++++++++++++++++++++++++++++++++++++++",
"++++++++++++++++++++++++++++++++++++OOOO++++OOOO++++++++++++++++",
"++++++++++++++++++++++++++++++++++++OOOO++++OOOO++++++++++++++++",
"++++++++++++++++++++++++++++++++++++OOOO++++OOOO++++++++++++++++",
"++++++++++++++++++++++++++++++++++++OOOO++++OOOO++++++++++++++++",
"++++++++++++++++++++++++++++++++++++++++OOOO++++++++++++++++++++",
"++++++++++++++++++++++++++++++++++++++++OOOO++++++++++++++++++++",
"++++++++++++++++++++++++++++++++++++++++OOOO++++++++++++++++++++",
"++++++++++++++++++++++++++++++++++++++++OOOO++++++++++++++++++++",
"++++++++++++++++++++++++++++++++++++++++++++++++++++++++++++++++",
"++++++++++++++++++++++++++++++++++++++++++++++++++++++++++++++++",
"++++++++++++++++++++++++++++++++++++++++++++++++++++++++++++++++",
"++++++++++++++++++++++++++++++++++++++++++++++++++++++++++++++++",
"++++++++++++++++++++++++++++++++++++++++++++++++++++++++++++++++",
"++++++++++++++++++++++++++++++++++++++++++++++++++++++++++++++++",
"++++++++++++++++++++++++++++++++++++++++++++++++++++++++++++++++",
"++++++++++++++++++++++++++++++++++++++++++++++++++++++++++++++++"
};
