/* XPM */
static char *result[] = {
/* columns rows colors chars-per-pixel */
"64 64 6 1 ",
"  c black",
". c gray25",
"X c #9078B0",
"o c #B890E0",
"O c #E0B0F0",
"+ c #FE12E0",
/* pixels */
"++++++++++++++++++++++++++++++++++++++++++++++++++++++++++++++++",
"++++++++++++++++++++++++++++++++++++++++++++++++++++++++++++++++",
"++++++++++++++++++++++++++++++++++++++++++++++++++++++++++++++++",
"++++++++++++++++++++++++++++++++++++++++++++++++++++++++++++++++",
"++++++++++++++++++++++++++++++++++++++++++++++++++++++++++++++++",
"++++++++++++++++++++++++++++++++++++++++++++++++++++++++++++++++",
"++++++++++++++++++++++++++++++++++++++++++++++++++++++++++++++++",
"++++++++++++++++++++++++++++++++++++++++++++++++++++++++++++++++",
"++++++++++++++++++++++++++++++++++++++++++++++++++++++++++++++++",
"++++++++++++++++++++++++++++++++++++++++++++++++++++++++++++++++",
"++++++++++++++++++++++++++++++++++++++++++++++++++++++++++++++++",
"++++++++++++++++++++++++++++++++++++++++++++++++++++++++++++++++",
"++++++++++++++++++++++++++++++++++++++++++++++++++++++++++++++++",
"++++++++++++++++++++++++++++++++++++++++++++++++++++++++++++++++",
"++++++++++++++++++++++++++++++++++++++++++++++++++++++++++++++++",
"++++++++++++++++++++++++++++++++++++++++++++++++++++++++++++++++",
"++++++++++++++++++++++++++++++++++++++++++++++++++++++++++++++++",
"++++++++++++++++++++++++++++++++++++++++++++++++++++++++++++++++",
"++++++++++++++++++++++++++++++++++++++++++++++++++++++++++++++++",
"++++++++++++++++++++++++++++++++++++++++++++++++++++++++++++++++",
"++++++++++++++++++++++++++++++++++++++++++++++++++++++++++++++++",
"++++++++++++++++++++++++++++++++++++++++++++++++++++++++++++++++",
"++++++++++++++++++++++++++++++++++++++++++++++++++++++++++++++++",
"++++++++++++++++++++++++++++++++++++++++++++++++++++++++++++++++",
"++++++++++++++++++++++++++++++++++++++++++++++++++++++++++++++++",
"++++++++++++++++++++++++++++++++++++++++++++++++++++++++++++++++",
"++++++++++++++++++++++++++++++++++++++++++++++++++++++++++++++++",
"++++++++++++++++++++++++++++++++++++++++++++++++++++++++++++++++",
"++++++++++++++++++++++++++++++++++++++++++++++++++++++++++++++++",
"++++++++++++++++++++++++++++++++++++++++++++++++++++++++++++++++",
"++++++++++++++++++++++++++++++++++++++++++++++++++++++++++++++++",
"++++++++++++++++++++++++++++++++++++++++++++++++++++++++++++++++",
"++++++++++++++++++++++++++++++++++++++++++++++++++++++++++++++++",
"++++++++++++++++++++++++++++++++++++++++++++++++++++++++++++++++",
"++++++++++++++++++++++++++++++++++++++++++++++++++++++++++++++++",
"++++++++++++++++++++++++++++++++++++++++++++++++++++++++++++++++",
"++++++++++++++++++++++++  ....++++....  ++++++++++++++++++++++++",
"++++++++++++++++++++++++  ....++++....  ++++++++++++++++++++++++",
"++++++++++++++++++++++  XXoooo....ooooXX  ++++++++++++++++++++++",
"++++++++++++++++++++++  XXoooo....ooooXX  ++++++++++++++++++++++",
"++++++++++++++++++++++..ooOOOOXXXXOOoooo..++++++++++++++++++++++",
"++++++++++++++++++++++..ooOOOOXXXXOOoooo..++++++++++++++++++++++",
"++++++++++++++++++++  XXooOOOOooooooooooXX  ++++++++++++++++++++",
"++++++++++++++++++++  XXooOOOOooooooooooXX  ++++++++++++++++++++",
"++++++++++++++++++..  ooooooooOOoooooooooo  ..++++++++++++++++++",
"++++++++++++++++++..  ooooooooOOoooooooooo  ..++++++++++++++++++",
"++++++++++++++++..ooXXXXooooooooooooooooXXXXoo..++++++++++++++++",
"++++++++++++++++..ooXXXXooooooooooooooooXXXXoo..++++++++++++++++",
"++++++++++++++++..XXXXXXXXXXooooooooXXXXXXXXXX..++++++++++++++++",
"++++++++++++++++..XXXXXXXXXXooooooooXXXXXXXXXX..++++++++++++++++",
"++++++++++++++++++..XXXXXXXXXXXXXXXXXXXXXXXX..++++++++++++++++++",
"++++++++++++++++++..XXXXXXXXXXXXXXXXXXXXXXXX..++++++++++++++++++",
"++++++++++++++++..XXXXXXXXXXXXXXXXXXXXXXXXXXXX..++++++++++++++++",
"++++++++++++++++..XXXXXXXXXXXXXXXXXXXXXXXXXXXX..++++++++++++++++",
"++++++++++++++++  XXXXXXXXXXXXXXXXXXXXXXXXXXXX  ++++++++++++++++",
"++++++++++++++++  XXXXXXXXXXXXXXXXXXXXXXXXXXXX  ++++++++++++++++",
"++++++++++++++++++  ..XXXXXXXXXXXXXXXXXXXX..  ++++++++++++++++++",
"++++++++++++++++++  ..XXXXXXXXXXXXXXXXXXXX..  ++++++++++++++++++",
"++++++++++++++++++++++....            ....++++++++++++++++++++++",
"++++++++++++++++++++++....            ....++++++++++++++++++++++",
"++++++++++++++++++++++++++++++++++++++++++++++++++++++++++++++++",
"++++++++++++++++++++++++++++++++++++++++++++++++++++++++++++++++",
"++++++++++++++++++++++++++++++++++++++++++++++++++++++++++++++++",
"++++++++++++++++++++++++++++++++++++++++++++++++++++++++++++++++"
};
