/* XPM */
static char *exit1683689031[] = {
/* columns rows colors chars-per-pixel */
"64 64 13 1 ",
"  c gray19",
". c #686860",
"X c #884810",
"o c #C87010",
"O c #138054",
"+ c #16905E",
"@ c #18A068",
"# c #F8A840",
"$ c #40B080",
"% c #989890",
"& c #F8E8B0",
"* c #D0C8C0",
"= c #F0F0E0",
/* pixels */
"$$$$$$$$$$$$$$$$$$$$$$$$$$$$$$$$$$$$$$$$$$$$$$$$$$$$$$$$$$$$$$$$",
"$$$$$$$$$$$$$$$$$$$$$$$$$$$$$$$$$$$$$$$$$$$$$$$$$$$$$$$$$$$$$$$$",
"$$$$$$$$$$$$$$$$$$$$$$$$$$$$$$$$$$$$$$$$$$$$$$$$$$$$$$$$$$$$$$$$",
"$$$$$$$$$$$$$$$$$$$$$$$$$$$$$$$$$$$$$$$$$$$$$$$$$$$$$$$$$$$$$$$$",
"$$$$$$$$$$$$$$$$$$$$$$$$$$$$$$$$$$$$$$$$$$$$$$$$@@@@$$$$@@@@$$$$",
"$$$$$$$$$$$$$$$$$$$$$$$$$$$$$$$$$$$$$$$$$$$$$$$$@@@@$$$$@@@@$$$$",
"$$$$$$$$$$$$$$$$$$$$$$$$$$$$$$$$$$$$$$$$$$$$$$$$@@@@$$$$@@@@$$$$",
"$$$$$$$$$$$$$$$$$$$$$$$$$$$$$$$$$$$$$$$$$$$$$$$$@@@@$$$$@@@@$$$$",
"$$$$@@@@$$$$@@@@$$$$$$$$$$            $$$$$$$$$$$$$$@@@@$$$$$$$$",
"$$$$@@@@$$$$@@@@$$$$$$$$$$            $$$$$$$$$$$$$$@@@@$$$$$$$$",
"$$$$@@@@$$$$@@@@$$$$$$    ========****  $$$$$$$$$$$$@@@@$$$$$$$$",
"$$$$@@@@$$$$@@@@$$$$$$    ========****  $$$$$$$$$$$$@@@@$$$$$$$$",
"$$$$$$$$@@@@$$$$$$$$  ========**......**  $$$$$$$$$$$$$$$$$$$$$$",
"$$$$$$$$@@@@$$$$$$$$  ========**......**  $$$$$$$$$$$$$$$$$$$$$$",
"$$$$$$$$@@@@$$$$$$  ========**..                  $$$$$$$$$$$$$$",
"$$$$$$$$@@@@$$$$$$  ========**..                  $$$$$$$$$$$$$$",
"$$$$$$$$$$$$$$$$$$  ======**..**********==========  $$$$$$$$$$$$",
"$$$$$$$$$$$$$$$$$$  ======**..**********==========  $$$$$$$$$$$$",
"$$$$$$$$$$$$$$    ========**..******==========**%%  $$$$$$$$$$$$",
"$$$$$$$$$$$$$$    ========**..******==========**%%  $$$$$$$$$$$$",
"$$$$$$$$$$    ==..========..****==========**%%%%%%  $$$$$$$$$$$$",
"$$$$$$$$$$    ==..========..****==========**%%%%%%  $$$$$$$$$$$$",
"$$$$$$$$  ======..********..**========**%%%%%%%%%%  $$$$$$$$$$$$",
"$$$$$$$$  ======..********..**========**%%%%%%%%%%  $$$$$$$$$$$$",
"$$$$$$$$  ******..********..%%********%%%%%%%%XX  $$$$$$$$$$$$$$",
"$$$$$$$$  ******..********..%%********%%%%%%%%XX  $$$$$$$$$$$$$$",
"$$$$$$$$  ******..********..%%********%%%%XXXXoo  $$$$$$$$$$$$$$",
"$$$$$$$$  ******..********..%%********%%%%XXXXoo  $$$$$$$$$$$$$$",
"$$$$$$$$  ******..********..%%********XXXXoooooo  $$$$$$$$$$$$$$",
"$$$$$$$$  ******..********..%%********XXXXoooooo  $$$$$$$$$$$$$$",
"$$$$$$$$$$  oooo..**oooo**..XXooooooXXoooooooooo  $$$$$$$$$$$$$$",
"$$$$$$$$$$  oooo..**oooo**..XXooooooXXoooooooooo  $$$$$$$$$$$$$$",
"$$$$$$$$$$  ####..oo&&##XX..oo######oooooooooooo  $$$$$$$$$$$$$$",
"$$$$$$$$$$  ####..oo&&##XX..oo######oooooooooooo  $$$$$$$$$$$$$$",
"$$$$$$$$$$  ####..oo####XX..oo######oooooooooooo  $$$$$$$$$$$$$$",
"$$$$$$$$$$  ####..oo####XX..oo######oooooooooooo  $$$$$$$$$$$$$$",
"$$$$$$$$$$  ####..**XXXX**..oo######oooooooooooo  $$$$$$$$$$$$$$",
"$$$$$$$$$$  ####..**XXXX**..oo######oooooooooooo  $$$$$$$$$$$$$$",
"$$$$$$$$$$  ######..****..oooo######ooooooooooXX  $$$$$$$$$$$$$$",
"$$$$$$$$$$  ######..****..oooo######ooooooooooXX  $$$$$$$$$$$$$$",
"$$$$$$$$$$  ########....oooo########ooooooooXX  OO$$$$$$$$$$$$$$",
"$$$$$$$$$$  ########....oooo########ooooooooXX  OO$$$$$$$$$$$$$$",
"$$$$$$$$$$  ########################ooooXXXXXX  ++@@$$$$$$$$$$$$",
"$$$$$$$$$$  ########################ooooXXXXXX  ++@@$$$$$$$$$$$$",
"$$$$$$$$$$  oo####################ooXXXXXXXX  OO@@$$$$$$$$$$$$$$",
"$$$$$$$$$$  oo####################ooXXXXXXXX  OO@@$$$$$$$$$$$$$$",
"$$$$$$$$$$@@  ooooooooooooooooooooooXXXX    OO++$$$$$$$$$$$$$$$$",
"$$$$$$$$$$@@  ooooooooooooooooooooooXXXX    OO++$$$$$$$$$$$$$$$$",
"$$$$$$$$$$$$$$  ooooooooooooooooooXX    OO++@@$$$$$$$$$$$$$$$$$$",
"$$$$$$$$$$$$$$  ooooooooooooooooooXX    OO++@@$$$$$$$$$$$$$$$$$$",
"$$$$$$$$$$$$$$@@                    OO++++@@$$$$$$$$$$$$$$$$$$$$",
"$$$$$$$$$$$$$$@@                    OO++++@@$$$$$$$$$$$$$$$$$$$$",
"$$$$$$$$$$$$$$$$$$$$$$$$$$$$$$$$$$$$$$$$$$$$$$$$$$$$$$$$$$$$$$$$",
"$$$$$$$$$$$$$$$$$$$$$$$$$$$$$$$$$$$$$$$$$$$$$$$$$$$$$$$$$$$$$$$$",
"$$$$$$$$$$$$$$$$$$$$$$$$$$$$$$$$$$$$$$$$$$$$$$$$$$$$$$$$$$$$$$$$",
"$$$$$$$$$$$$$$$$$$$$$$$$$$$$$$$$$$$$$$$$$$$$$$$$$$$$$$$$$$$$$$$$",
"$$$$$$$$$$$$$$$$$$$$$$$$$$$$$$$$$$$$$$$$$$$$$$$$$$$$$$$$$$$$$$$$",
"$$$$$$$$$$$$$$$$$$$$$$$$$$$$$$$$$$$$$$$$$$$$$$$$$$$$$$$$$$$$$$$$",
"$$$$$$$$$$$$$$$$$$$$$$$$$$$$$$$$$$$$$$$$$$$$$$$$$$$$$$$$$$$$$$$$",
"$$$$$$$$$$$$$$$$$$$$$$$$$$$$$$$$$$$$$$$$$$$$$$$$$$$$$$$$$$$$$$$$",
"$$$$$$$$$$$$$$$$$$$$$$$$$$$$$$$$$$$$$$$$$$$$$$$$$$$$$$$$$$$$$$$$",
"$$$$$$$$$$$$$$$$$$$$$$$$$$$$$$$$$$$$$$$$$$$$$$$$$$$$$$$$$$$$$$$$",
"$$$$$$$$$$$$$$$$$$$$$$$$$$$$$$$$$$$$$$$$$$$$$$$$$$$$$$$$$$$$$$$$",
"$$$$$$$$$$$$$$$$$$$$$$$$$$$$$$$$$$$$$$$$$$$$$$$$$$$$$$$$$$$$$$$$"
};
