/* XPM */
static char *result[] = {
/* columns rows colors chars-per-pixel */
"64 64 15 1 ",
"  c gray19",
". c #503728",
"X c #704018",
"o c #686860",
"O c #884810",
"+ c #C87010",
"@ c #138054",
"# c #16905E",
"$ c #18A068",
"% c #F8A840",
"& c #40B080",
"* c #989890",
"= c #F8E8B0",
"- c #D0C8C0",
"; c #F0F0E0",
/* pixels */
"&&&&&&&&&&&&&&&&&&&&&&&&&&&&&&&&&&&&&&&&&&&&&&&&&&&&&&&&&&&&&&&&",
"&&&&&&&&&&&&&&&&&&&&&&&&&&&&&&&&&&&&&&&&&&&&&&&&&&&&&&&&&&&&&&&&",
"&&&&&&&&&&&&&&&&&&&&&&&&&&&&&&&&&&&&&&&&&&&&&&&&&&&&&&&&&&&&&&&&",
"&&&&&&&&&&&&&&&&&&&&&&&&&&&&&&&&&&&&&&&&&&&&&&&&&&&&&&&&&&&&&&&&",
"&&&&&&&&&&&&&&&&&&&&&&&&&&&&&&&&&&&&&&&&&&&&&&&&$$$$&&&&$$$$&&&&",
"&&&&&&&&&&&&&&&&&&&&&&&&&&&&&&&&&&&&&&&&&&&&&&&&$$$$&&&&$$$$&&&&",
"&&&&&&&&&&&&&&&&&&&&&&&&&&&&&&&&&&&&&         &&$$$$&&&&$$$$&&&&",
"&&&&&&&&&&&&&&&&&&&&&&&&&&&&&&&&&&&&           &$$$$&&&&$$$$&&&&",
"&&&&$$$$&&&&$$$$&&&&&&&&&&           ;;;;;;;;  &&&&&$$$$&&&&&&&&",
"&&&&$$$$&&&&$$$$&&&&&&&&&&           ;;;;---*  &&&&&$$$$&&&&&&&&",
"&&&&$$$$&&&&$$$$&&&&&&    ;;;;;;;;oo-;;;;-***  &&&&&$$$$&&&&&&&&",
"&&&&$$$$&&&&$$$$&&&&     ;;;;;;;;;oo-;;;;-***  &&&&&$$$$&&&&&&&&",
"&&&&&&&&$$$$&&&&      ;;;;;;;;--oo;;;;---****  &&&&&&&&&&&&&&&&&",
"&&&&&&&&$$$$&&&       ;;;;;;;;--oo;;;;-*****   &&&&&&&&&&&&&&&&&",
"&&&&&&&&$$$$&    ;  ;;;;;;;;--oo;;;;;--*****   &&&&&&&&&&&&&&&&&",
"&&&&&&&&$$$$   ;;;  ;;;;;;;;--oo;;----*****    &&&&&&&&&&&&&&&&&",
"&&&&&&&&&&&   ;;;;  ;;;;;;--oo;;;;--*******  &&&&&&&&&&&&&&&&&&&",
"&&&&&&&&&&   ;;;;;  ;;;;;;--oo;;;;-*******   &&&&&&&&&&&&&&&&&&&",
"&&&&&&&&&   ;;;;  ;;;;;;;;oo;;-----*****        &&&&&&&&&&&&&&&&",
"&&&&&&&&   ;;;;;  ;;;;;;;;oo------*****         &&&&&&&&&&&&&&&&",
"&&&&&&&    ;;;;;oo;;;;;;;;oo------****++++++++++  &&&&&&&&&&&&&&",
"&&&&&&    ;;;;;;oo;;;;;-;-oo-----****.XOOOOOO+++  &&&&&&&&&&&&&&",
"&&&&&&  ;;;;;;--oo--------oo----****.XOOOOOO++++  &&&&&&&&&&&&&&",
"&&&&&&  ;;------oo--------oo-----**.XOOOOOO+++++  &&&&&&&&&&&&&&",
"&&&&&&  --------oo--------oo----...XOOOOOO++++++  &&&&&&&&&&&&&&",
"&&&&&&  --------oo--------oo....XXOOOOOOO+++++++  &&&&&&&&&&&&&&",
"&&&&&&  --------oo--------oo.XXXOOOOOOOO++++++++  &&&&&&&&&&&&&&",
"&&&&&&  --------oo--------oo.XOOOOOOOOO+++++++++  &&&&&&&&&&&&&&",
"&&&&&&&  -------oo--------oo.XOOOOOOOO++++++++++  &&&&&&&&&&&&&&",
"&&&&&&&     ----oo--------oo++%%%%%%++++++++++++  &&&&&&&&&&&&&&",
"&&&&&&&&&&  ++++oo--++++--oo++%%%%%%++++++++++++  &&&&&&&&&&&&&&",
"&&&&&&&&&&  ++++oo--++++--oo++%%%%%%++++++++++++  &&&&&&&&&&&&&&",
"&&&&&&&&&&  %%%%oo++==%%OOoo++%%%%%%++++++++++++  &&&&&&&&&&&&&&",
"&&&&&&&&&&  %%%%oo++==%%OOoo++%%%%%%++++++++++++  &&&&&&&&&&&&&&",
"&&&&&&&&&&  %%%%oo++%%%%OOoo++%%%%%%++++++++++++  &&&&&&&&&&&&&&",
"&&&&&&&&&&  %%%%oo++%%%%OOoo++%%%%%%++++++++++++  &&&&&&&&&&&&&&",
"&&&&&&&&&&  %%%%oo--OOOO--oo++%%%%%%++++++++++++  &&&&&&&&&&&&&&",
"&&&&&&&&&&  %%%%oo--OOOO--oo++%%%%%%++++++++++++  &&&&&&&&&&&&&&",
"&&&&&&&&&&  %%%%%%oo----oo++++%%%%%%++++++++++OO  &&&&&&&&&&&&&&",
"&&&&&&&&&&  %%%%%%oo----oo++++%%%%%%++++++++++OO  &&&&&&&&&&&&&&",
"&&&&&&&&&&  %%%%%%%%oooo++++%%%%%%%%++++++++OO  @@&&&&&&&&&&&&&&",
"&&&&&&&&&&  %%%%%%%%oooo++++%%%%%%%%++++++++OO  @@&&&&&&&&&&&&&&",
"&&&&&&&&&&  %%%%%%%%%%%%%%%%%%%%%%%%++++OOOOOO  ##$$&&&&&&&&&&&&",
"&&&&&&&&&&  %%%%%%%%%%%%%%%%%%%%%%%%++++OOOOOO  ##$$&&&&&&&&&&&&",
"&&&&&&&&&&  ++%%%%%%%%%%%%%%%%%%%%++OOOOOOOO  @@$$&&&&&&&&&&&&&&",
"&&&&&&&&&&  ++%%%%%%%%%%%%%%%%%%%%++OOOOOOOO  @@$$&&&&&&&&&&&&&&",
"&&&&&&&&&&$$  ++++++++++++++++++++++OOOO    @@##&&&&&&&&&&&&&&&&",
"&&&&&&&&&&$$  ++++++++++++++++++++++OOOO    @@##&&&&&&&&&&&&&&&&",
"&&&&&&&&&&&&&&  ++++++++++++++++++OO    @@##$$&&&&&&&&&&&&&&&&&&",
"&&&&&&&&&&&&&&  ++++++++++++++++++OO    @@##$$&&&&&&&&&&&&&&&&&&",
"&&&&&&&&&&&&&&$$                    @@####$$&&&&&&&&&&&&&&&&&&&&",
"&&&&&&&&&&&&&&$$                    @@####$$&&&&&&&&&&&&&&&&&&&&",
"&&&&&&&&&&&&&&&&&&&&&&&&&&&&&&&&&&&&&&&&&&&&&&&&&&&&&&&&&&&&&&&&",
"&&&&&&&&&&&&&&&&&&&&&&&&&&&&&&&&&&&&&&&&&&&&&&&&&&&&&&&&&&&&&&&&",
"&&&&&&&&&&&&&&&&&&&&&&&&&&&&&&&&&&&&&&&&&&&&&&&&&&&&&&&&&&&&&&&&",
"&&&&&&&&&&&&&&&&&&&&&&&&&&&&&&&&&&&&&&&&&&&&&&&&&&&&&&&&&&&&&&&&",
"&&&&&&&&&&&&&&&&&&&&&&&&&&&&&&&&&&&&&&&&&&&&&&&&&&&&&&&&&&&&&&&&",
"&&&&&&&&&&&&&&&&&&&&&&&&&&&&&&&&&&&&&&&&&&&&&&&&&&&&&&&&&&&&&&&&",
"&&&&&&&&&&&&&&&&&&&&&&&&&&&&&&&&&&&&&&&&&&&&&&&&&&&&&&&&&&&&&&&&",
"&&&&&&&&&&&&&&&&&&&&&&&&&&&&&&&&&&&&&&&&&&&&&&&&&&&&&&&&&&&&&&&&",
"&&&&&&&&&&&&&&&&&&&&&&&&&&&&&&&&&&&&&&&&&&&&&&&&&&&&&&&&&&&&&&&&",
"&&&&&&&&&&&&&&&&&&&&&&&&&&&&&&&&&&&&&&&&&&&&&&&&&&&&&&&&&&&&&&&&",
"&&&&&&&&&&&&&&&&&&&&&&&&&&&&&&&&&&&&&&&&&&&&&&&&&&&&&&&&&&&&&&&&",
"&&&&&&&&&&&&&&&&&&&&&&&&&&&&&&&&&&&&&&&&&&&&&&&&&&&&&&&&&&&&&&&&"
};
