/* XPM */
static char *floor1683689031[] = {
/* columns rows colors chars-per-pixel */
"64 64 4 1 ",
"  c #18A068",
". c #40B080",
"X c #70C0A0",
"o c #A0D0C0",
/* pixels */
"................................................................",
"................................................................",
"................................................................",
"................................................................",
"................................................    ....    ....",
"................................................    ....    ....",
"................................................    ....    ....",
"................................................    ....    ....",
"....    ....    ....................................    ........",
"....    ....    ....................................    ........",
"....    ....    ....................................    ........",
"....    ....    ....................................    ........",
"........    ....................................................",
"........    ....................................................",
"........    ....................................................",
"........    ....................................................",
"................................................................",
"................................................................",
"................................................................",
"................................................................",
"........................................oooo....................",
"........................................oooo....................",
"........................................oooo....................",
"........................................oooo....................",
"............XXXX................................................",
"............XXXX................................................",
"............XXXX................................................",
"............XXXX................................................",
"................................................................",
"................................................................",
"................................................................",
"................................................................",
"................................................................",
"................................................................",
"................................................................",
"................................................................",
"................    ....    ....................................",
"................    ....    ....................................",
"................    ....    ....................................",
"................    ....    ....................................",
"....................    ........................................",
"....................    ........................................",
"....................    ........................................",
"....................    ........................................",
"................................................................",
"................................................................",
"................................................................",
"................................................................",
"....................................    ....    ................",
"....................................    ....    ................",
"....................................    ....    ................",
"....................................    ....    ................",
"........................................    ....................",
"........................................    ....................",
"........................................    ....................",
"........................................    ....................",
"................................................................",
"................................................................",
"................................................................",
"................................................................",
"................................................................",
"................................................................",
"................................................................",
"................................................................"
};
