/* XPM */
static char *_789639d237e454397ef996c1876dd09AZgdnobYCKvgBtkC[] = {
/* columns rows colors chars-per-pixel */
"32 32 4 1 ",
"  c #18A068",
". c #40B080",
"X c #70C0A0",
"o c #A0D0C0",
/* pixels */
"................................",
"................................",
"........................  ..  ..",
"........................  ..  ..",
"..  ..  ..................  ....",
"..  ..  ..................  ....",
"....  ..........................",
"....  ..........................",
"................................",
"................................",
"....................oo..........",
"....................oo..........",
"......XX........................",
"......XX........................",
"................................",
"................................",
"................................",
"................................",
"........  ..  ..................",
"........  ..  ..................",
"..........  ....................",
"..........  ....................",
"................................",
"................................",
"..................  ..  ........",
"..................  ..  ........",
"....................  ..........",
"....................  ..........",
"................................",
"................................",
"................................",
"................................"
};
