/* XPM */
static char *result[] = {
/* columns rows colors chars-per-pixel */
"192 64 86 1 ",
"  c #7B8B7D",
". c #7A8B7E",
"X c #E5BF1B",
"o c #E3BE1D",
"O c #E1BD1F",
"+ c #DBBA24",
"@ c #D4B72B",
"# c #D1B52E",
"$ c #D0B52F",
"% c #C4AF39",
"& c #CFB430",
"* c #C9B235",
"= c #FFCC03",
"- c #FECC04",
"; c #F8C909",
": c #EBC215",
"> c #E7C019",
", c #A49F57",
"< c #B6A847",
"1 c #B0A54C",
"2 c #AAA252",
"3 c #8F956B",
"4 c #8A926F",
"5 c #919669",
"6 c #899271",
"7 c #3F6DB4",
"8 c #3C6CB7",
"9 c #3E6DB6",
"0 c #3668B9",
"q c #3669B9",
"w c #3769B9",
"e c #3769BA",
"r c #3868B9",
"t c #3B6BB8",
"y c #3A6BB9",
"u c #396BBA",
"i c #386ABB",
"p c #3C6CBA",
"a c #597A9D",
"s c #587A9E",
"d c #4470AF",
"f c #4570AF",
"g c #4771AE",
"h c #4B73A9",
"j c #4973AB",
"k c #4A73AA",
"l c #4D74A8",
"z c #4872AC",
"x c #4972AC",
"c c #426FB1",
"v c #436FB1",
"b c #406EB4",
"n c #406FBA",
"m c #416FBA",
"M c #4A75BA",
"N c #4D77BA",
"B c #547BBA",
"V c #577DBB",
"C c #67818F",
"Z c #6F8589",
"A c #6C848B",
"S c #6B838C",
"D c #668190",
"F c #648092",
"G c #6786BB",
"H c #6B89BB",
"J c #6E8BBB",
"K c #718CBC",
"L c #718EBC",
"P c #758FBC",
"I c #7993BC",
"U c #7994BC",
"Y c #7A94BC",
"T c #7E96BD",
"R c #8A9EBC",
"E c #97A6BD",
"W c #A2ADBD",
"Q c #A4AEBE",
"! c #ABB2BD",
"~ c #AFB4BE",
"^ c #B9BBBF",
"/ c #BBBBBF",
"( c #BDBDBF",
") c gray",
"_ c gray75",
"` c None",
/* pixels */
"````````````````````````````````````````````````````````````````````````````````````````````````````````````````````````````````````````````````````````````````````````````````````````````````",
"````````````````````````````````````````````````````````````````````````````````````````````````````````````````````````````````````````````````````````````````````````````````````````````````",
"````````````````````````````````````````````````````````````````````````````````````````````````````````````````````````````````````````````````````````````````````````````````````````````````",
"````````````````````````````````````````````````````````````````````````````````````````````````````````````````````````````````````````````````````````````````````````````````````````````````",
"````````````````````````````````````````````````````````````````````````````````````````````````````````````````````````````````````````````````````````````````````````````````````````````````",
"````````````````````````````````````````````````````````````````````````````````````````````````````````````````````````````````````````````````````````````````````````````````````````````````",
"````````````````````````````````````````````````````````````````````````````````````````````````````````````````````````````````````````````````````````````````````````````````````````````````",
"````````````````````````````````````````````````````````````````````````````````````````````````````````````````````````````````````````````````````````````````````````````````````````````````",
"````````````````````````````````````````````````````````````````````````````````````````````````````````````````````````````````````````````````````````````````````````````````````````````````",
"````````````````````````````````````````````````````````````````````````````````````````````````````````````````````````````````````````````````````````````````````````````````````````````````",
"````````````````````````````````````````````````````````````````````````````````````````````````````````````````````````````````````````````````````````````````````````````````````````````````",
"```````````````````````````````````````````````````````````````````````````````````````````````````````````````````````````````````iiiiiiiiii```````````````````````````````````````````````````",
"``````````````````````````````````````````````````````````````````````ie````````````````````````````````````````````````````````iiiiiiiiiiiiiiiiii``````````````````````````````````````````````",
"`````````````````iiiii``````````````iiiiiiii```````````````````````iiiiiiiiiiiiiiiiii```````iii```````````````````````````````iiiiiiiiiiiiiiiiiiiiiii```````````````````````````````````````````",
"``````````iiiiiiiiiiiiiiiiiiiiiiiiiiiiiiiiiiii````````````````iii`iiiiiiiiiiiiiiiiiiii````iiiiiiiiiiiiiii````````````````````iiiiiiiiiiiiiiiiiiiiiiiiiii0```````````````````````````````````````",
"````````iiiiiiiiiiiiiiiiiiiiiiiiiiiiiiiiiiiiiiii``````````iiiiiiiiiiiiiiiiiiiiiiiiiiiii``iiiiiiiiiiiiiiiiii```````````wq````iiiiiiiiiiiiiiiiiiiiiiiiiiiiiii`````````````````````````````````````",
"```````iiiiiiiiiiiiiiiiiiiiiiiiiiiiiiiiiiiiiiiiii``````iiiiiiiiiiiiiiiiiiiiiiiiiiiiiiii)iiiiiiiiiiiiiiiiiiii)```riiiiiiiiiiiiiiiiiO============iiiiiiiiiiiiiii``````````````````````````````````",
"``````iiiiiiiiiiiiiiiiiiiiiiiiiiiiiiiiiiiiiiiiiiii````iiiiiiiiiiiiiiii==========#Duiiiiiiiiiiiiiiiiiiiiiiiiii`iiiiiiiiiiiiiiiiii;=================1iiiiiiiiiiii`````````````````````````````````",
"``````iiiiiiii=======iiu======iiiiC=========iiiiiii`iiiiiiiiiiiiiiiiii=============iiiiiiiii=======viiiiiiiiiiiiiiiiiiiiiiiiiii=======================iiiiiiiiii````````````````````````````````",
"``````iiiii===================================iiiiiiiiiiiiii=======iii==============iiiiiiii=============iiiiiiiiiiiiiiiiiiiii===========================iiiiiii)```````````````````````````````",
"``````iiiii====================================iiiiiiiiii=============i=============iiiiiiiu=============iiiiiiiiii========%ii==============================iiiiG```````````````````````````````",
"``````iiiii=====================================iiiiiiii============================hiiiiii=============iiiiiiii============================================iiiiT```````````````````````````````",
"``````iiiii======================================iiiii&==============================iiiiii=============iiiiii=============================================iiiii)```````````````````````````````",
"``````iiiii======================================iiii================================iiiii=============xiiiii==============================================iiiii````````````````````````````````",
"``````iiiii=======================================ii==================================iiii=============iiii;==============================================aiiii!````````````````````````````````",
"``````iiiii===================================================i=======================iiiy=============iii ============================iiit===============iiiii`````````````````````````````````",
"``````iiiii==================================================i========================iii=============iiii=============================iiiiiiii===========iiiii`````````````````````````````````",
"``````iiiii===========================i=====================ii=========================ii=============iii===============================biiiiiiiiiS======iiiii)`````````````````````````````````",
"``````iiiii===========================i=====================iiA========================i=============iiii=========oii=======================giiiiiiii1===iiiii``````````````````````````````````",
"``````iiiii=============di============i====================iiii====i===================i=============iiiZ========iiii============================-iiiiiiiiiii)``````````````````````````````````",
"``````iiiii=============ii=============i===================iiiiiiiii=================================iii========iiii================================iiiiiiiii```````````````````````````````````",
"``````iiiii=============ii=============i====================iiiiiii=================================iiii========iii=========ii========================iiiiii)```````````````````````````````````",
"``````iiiii=============iii============i=====================iiiii=========:========================iiii========ii=========i3iiX=======================iiiiiY```````````````````````````````````",
"``````iiiii=============iii============i=======================c2==========i=======================yiii@========i=========ii==iii=======================iiiii```````````````````````````````````",
"``````iiiii=============iii============ii==================================i=======================iiii=========7========ii=====iif=====================iiiiiW``````````````````````````````````",
"``````iiiii=============iii============ii==================================ii======================iiii=================6i=========ii8===================iiiii``````````````````````````````````",
"``````iiiii=============iii============ii=================================iii=====================iiiii=================i=============iiiii<=============iiiii``````````````````````````````````",
"``````iiiii=============iii============ii=================================iii,====================iiiii===================================ki.=============iiii``````````````````````````````````",
"``````iiiii=============iiiz===========ii================================9iiii===================5iiiii===================================================iiii)`````````````````````````````````",
"```````iiii=============iiii===========ii================================iiiii===================iiiiiii==================================================iiii)`````````````````````````````````",
"```````iiii=============iiii===========ii===============================iiiiiii==================iiiiiii=================================================Xiiii)`````````````````````````````````",
"```````iiii=============iiii===========ii==============================iiiiiiii=================iiiiiiii=================================================iiiii``````````````````````````````````",
"```````iiii=============iiii===========ii=============================iiiiiiiii=================iiiiiiiii================================================iiiii``````````````````````````````````",
"```````iiiii============iiii===========ii============================iiiiiiiiiii===============jiiiiiiiii===============================================iiiii)``````````````````````````````````",
"```````iiiii============iiii==========iii===========i===============iiiiiiiiiiii===============iiiii`iiiii====================i========================liiiii```````````````````````````````````",
"```````iiiii========$iiiiiii==========iii===========ii============iiiiiiii``iiiii==============iiiii`iiiiiii===============iiiiiii====================iiiiii)```````````````````````````````````",
"```````iiiii=yiiiiiiiiiiiiii====4yiiiiiiio===>siiiiiiiii========iiiiiiiii```iiiii=============iiiii)``iiiiiiii==========iiiiiiiiiiiii+===============iiiiiii````````````````````````````````````",
"````````iiiiiiiiiiiiiiiiiiiiiiiiiiiiiiiiiiiiiiiiiiiiiiiiiiiiiiiiiiiiiiiB````iiiii=============iiiii````iiiiiiiiiiiiiiiiiiiiiiiiiiiiiiiiiii========Fiiiiiiii`````````````````````````````````````",
"````````iiiiiiiiiiiiiiiiiiiiiiiiiiiiiiiiiiiiiiiiiiiiiiiiiiiiiiiiiiiiii)``````iiiii===========*iiii!`````iiiiiiiiiiiiiiiiiiiiiiiiiiiiiiiiiiiiiiiiiiiiiiiiii``````````````````````````````````````",
"`````````iiiiiiiiiiiiiiiiiiiiiiiiiiiiiiiiiiiiiiiiiiiiiiiiiiiiiiiiiii)````````iiiiiiiiiiiiiiiiiiiii````````iiiiiiiiiiiiiiiiiiii)~iiiiiiiiiiiiiiiiiiiiiiiii```````````````````````````````````````",
"``````````iiiiiiiP)_``````iiiiiiiiiiiiiiiiiiiiiiiiiiK)iiiiiiiiiiii)```````````iiiiiiiiiiiiiiiiiiii``````````iiiiiiiiiiiiiip)```````iiiiiiiiiiiiiiiiiiii)````````````````````````````````````````",
"`````````````````````````````````````````````````````````)niiJ)```````````````iiiiiiiiiiiiiiiiiii)``````````````_UNVE))```````````````)iiiiiiiiiiiiii)``````````````````````````````````````````",
"```````````````````````````````````````````````````````````````````````````````iiiiiiiiiiiiiiiii)``````````````````````````````````````````_/LMH^)``````````````````````````````````````````````",
"`````````````````````````````````````````````````````````````````````````````````_(QImiiiiiiiiR`````````````````````````````````````````````````````````````````````````````````````````````````",
"````````````````````````````````````````````````````````````````````````````````````````````````````````````````````````````````````````````````````````````````````````````````````````````````",
"````````````````````````````````````````````````````````````````````````````````````````````````````````````````````````````````````````````````````````````````````````````````````````````````",
"````````````````````````````````````````````````````````````````````````````````````````````````````````````````````````````````````````````````````````````````````````````````````````````````",
"````````````````````````````````````````````````````````````````````````````````````````````````````````````````````````````````````````````````````````````````````````````````````````````````",
"````````````````````````````````````````````````````````````````````````````````````````````````````````````````````````````````````````````````````````````````````````````````````````````````",
"````````````````````````````````````````````````````````````````````````````````````````````````````````````````````````````````````````````````````````````````````````````````````````````````",
"````````````````````````````````````````````````````````````````````````````````````````````````````````````````````````````````````````````````````````````````````````````````````````````````",
"````````````````````````````````````````````````````````````````````````````````````````````````````````````````````````````````````````````````````````````````````````````````````````````````",
"````````````````````````````````````````````````````````````````````````````````````````````````````````````````````````````````````````````````````````````````````````````````````````````````",
"````````````````````````````````````````````````````````````````````````````````````````````````````````````````````````````````````````````````````````````````````````````````````````````````"
};
