/* XPM */
static char *result[] = {
/* columns rows colors chars-per-pixel */
"64 64 14 1 ",
"  c black",
". c #452712",
"X c #7E2036",
"o c #784830",
"O c #36364D",
"+ c #365D7E",
"@ c #B92E2E",
"# c #89502F",
"$ c #EE5D3D",
"% c #D09870",
"& c #F7CFB6",
"* c #B1A8CB",
"= c #E5E5F7",
"- c #FE12E0",
/* pixels */
"----------------------------------------------------------------",
"----------------------------------------------------------------",
"----------------------------------------------------------------",
"----------------------------------------------------------------",
"----------------------------------------------------------------",
"-------------------------XXXXXXXXXXXXXXXX-----------------------",
"-------------------------XXXXXXXXXXXXXXXX-----------------------",
"---------------------XXXX@@$$$$$$$$$$$$@@XXXX-------------------",
"---------------------XXXX@@$$$$$$$$$$$$@@XXXX-------------------",
"-------------------  @@@@$$$$$$$$$$$$$$$$@@@@  -----------------",
"-------------------  @@@@$$$$$$$$$$$$$$$$@@@@  -----------------",
"-------------------  @@@@$$$$$$$$$$$$$$$$@@@@  -----------------",
"-------------------  @@@@$$$$$$$$$$$$$$$$@@@@  -----------------",
"-----------------XXXX@@@@$$$$$$$$$$$$$$$$@@@@XXXX---------------",
"-----------------XXXX@@@@$$$$$$$$$$$$$$$$@@@@XXXX---------------",
"-----------------  @@@@@@@@$$$$$$$$$$$$@@@@@@@@  ---------------",
"-----------------  @@@@@@@@$$$$$$$$$$$$@@@@@@@@  ---------------",
"-----------------  @@@@@@@@@@@@@@@@@@@@@@@@@@@@  ---------------",
"-----------------  @@@@@@@@@@@@@@@@@@@@@@@@@@@@  ---------------",
"-----------------  XX@@@@@@@@@@@@@@@@@@@@@@@@XX  ---------------",
"-----------------  XX@@@@@@@@@@@@@@@@@@@@@@@@XX  ---------------",
"---------------....  XX@@@@@@********@@@@@@XX  ....-------------",
"---------------....  XX@@@@@@********@@@@@@XX  ....-------------",
"---------------..%%  **XXXX****@@@@****XXXX**  %%..-------------",
"---------------..%%  **XXXX****@@@@****XXXX**  %%..-------------",
"---------------oo%%OO  **================**  OO%%oo-------------",
"---------------oo%%OO  **================**  OO%%oo-------------",
"-----------------  OOOO  OO============OO  OOOO  ---------------",
"-----------------  OOOO  OO============OO  OOOO  ---------------",
"-------------------  %%oo**  OOOOOOOO  **oo%%  -----------------",
"-------------------  %%oo**  OOOOOOOO  **oo%%  -----------------",
"-------------------    &&==  %%%%%%%%  ==&&    -----------------",
"-------------------    &&==  %%%%%%%%  ==&&    -----------------",
"---------------------  oo&&&&&&&&&&&&&&&&oo  -------------------",
"---------------------  oo&&&&&&&&&&&&&&&&oo  -------------------",
"-----------------------    %%&&%%%%&&%%    ---------------------",
"-----------------------    %%&&%%%%&&%%    ---------------------",
"---------------------  OO$$    oooo    $$OO  -------------------",
"---------------------  OO$$    oooo    $$OO  -------------------",
"-------------------ooOOOO$$@@**OOOO**@@$$OOOOoo-----------------",
"-------------------ooOOOO$$@@**OOOO**@@$$OOOOoo-----------------",
"-----------------oooo%%  ..oo@@****@@oo..  %%oooo---------------",
"-----------------oooo%%  ..oo@@****@@oo..  %%oooo---------------",
"---------------oo&&%%oo  ##  @@****@@  ##  oo%%&&oo-------------",
"---------------oo&&%%oo  ##  @@****@@  ##  oo%%&&oo-------------",
"---------------  &&&&  ..##  @@****@@  ##..  &&&&  -------------",
"---------------  &&&&  ..##  @@****@@  ##..  &&&&  -------------",
"-----------------    ----  oo@@****@@oo  ----    ---------------",
"-----------------    ----  oo@@****@@oo  ----    ---------------",
"-------------------------  ++OOOOOOOO++  -----------------------",
"-------------------------  ++OOOOOOOO++  -----------------------",
"-----------------------OOOO++++    ++++OOOO---------------------",
"-----------------------OOOO++++    ++++OOOO---------------------",
"-----------------------XX++++  ----  ++++XX---------------------",
"-----------------------XX++++  ----  ++++XX---------------------",
"-----------------------  @@@@  ----  @@@@  ---------------------",
"-----------------------  @@@@  ----  @@@@  ---------------------",
"-------------------------    --------    -----------------------",
"-------------------------    --------    -----------------------",
"----------------------------------------------------------------",
"----------------------------------------------------------------",
"----------------------------------------------------------------",
"----------------------------------------------------------------",
"----------------------------------------------------------------"
};
