/* XPM */
static char *result[] = {
/* columns rows colors chars-per-pixel */
"64 64 14 1 ",
"  c black",
". c #452712",
"X c #7E2036",
"o c #784830",
"O c #36364D",
"+ c #365D7E",
"@ c #B92E2E",
"# c #89502F",
"$ c #EE5D3D",
"% c #D09870",
"& c #F7CFB6",
"* c #B1A8CB",
"= c #E5E5F7",
"- c #FE12E0",
/* pixels */
"----------------------------------------------------------------",
"----------------------------------------------------------------",
"----------------------------------------------------------------",
"----------------------------------------------------------------",
"----------------------------------------------------------------",
"----------------------------------------------------------------",
"----------------------------------------------------------------",
"----------------------------XXXXXXXXXXXXXX----------------------",
"----------------------------XXXXXXXXXXXXXX----------------------",
"------------------------XXXX@@$$$$$$$$$$@@XX  ------------------",
"------------------------XXXX@@$$$$$$$$$$@@XX  ------------------",
"----------------------XX@@@@$$$$$$$$$$$$$$@@@@  ----------------",
"----------------------XX@@@@$$$$$$$$$$$$$$@@@@  ----------------",
"----------------------XX==@@$$$$$$$$$$$$$$@@@@  ----------------",
"----------------------XX==@@$$$$$$$$$$$$$$@@@@  ----------------",
"--------------------OO**==@@$$$$$$$$$$$$$$@@@@@@XX--------------",
"--------------------OO**==@@$$$$$$$$$$$$$$@@@@@@XX--------------",
"----------------OOOO++@@==@@@@$$$$$$$$$$@@@@@@@@  --------------",
"----------------OOOO++@@==@@@@$$$$$$$$$$@@@@@@@@  --------------",
"--------------  ====++****@@@@@@@@@@@@@@@@@@@@@@  --------------",
"--------------  ====++****@@@@@@@@@@@@@@@@@@@@@@  --------------",
"------------  ======++**@@@@@@@@@@@@@@@@@@@@@@@@  --------------",
"------------  ======++**@@@@@@@@@@@@@@@@@@@@@@@@  --------------",
"------------  ========XX@@@@@@@@@@@@@@@@@@@@@@XX  --------------",
"------------  ========XX@@@@@@@@@@@@@@@@@@@@@@XX  --------------",
"------------  ======****XX@@@@@@@@@@@@@@@@XX    ----------------",
"------------  ======****XX@@@@@@@@@@@@@@@@XX    ----------------",
"--------------  **********XXXX              OOOO  --------------",
"--------------  **********XXXX              OOOO  --------------",
"----------------      oooo  ==%%OOOOOOOOOOOOOOOOOO  ------------",
"----------------      oooo  ==%%OOOOOOOOOOOOOOOOOO  ------------",
"--------------------oo&&&&  ==%%%%OO%%##OOOOOO    --------------",
"--------------------oo&&&&  ==%%%%OO%%##OOOOOO    --------------",
"--------------------%%&&&&&&&&&&%%%%%%##OO    ------------------",
"--------------------%%&&&&&&&&&&%%%%%%##OO    ------------------",
"----------------------oo%%&&%%%%%%ooOO      --------------------",
"----------------------oo%%&&%%%%%%ooOO      --------------------",
"------------------------    oo%%ooOO....------------------------",
"------------------------    oo%%ooOO....------------------------",
"----------------------------++==$$$$##$$....--------------------",
"----------------------------++==$$$$##$$....--------------------",
"--------------------------OO==$$OOOO  $$##$$..------------------",
"--------------------------OO==$$OOOO  $$##$$..------------------",
"--------------------------OO**@@OOOOXX$$##$$..------------------",
"--------------------------OO**@@OOOOXX$$##$$..------------------",
"--------------------------OO**@@  %%XX######  ------------------",
"--------------------------OO**@@  %%XX######  ------------------",
"----------------------------OO  &&%%  ######  ------------------",
"----------------------------OO  &&%%  ######  ------------------",
"----------------------------OO  &&&&  ++    --------------------",
"----------------------------OO  &&&&  ++    --------------------",
"------------------------------OO    ++  ------------------------",
"------------------------------OO    ++  ------------------------",
"------------------------------  ++++OOOO------------------------",
"------------------------------  ++++OOOO------------------------",
"----------------------------  @@@@@@  --------------------------",
"----------------------------  @@@@@@  --------------------------",
"------------------------------      ----------------------------",
"------------------------------      ----------------------------",
"----------------------------------------------------------------",
"----------------------------------------------------------------",
"----------------------------------------------------------------",
"----------------------------------------------------------------",
"----------------------------------------------------------------"
};
