/* XPM */
static char *result[] = {
/* columns rows colors chars-per-pixel */
"64 64 16 1 ",
"  c black",
". c #452712",
"X c #7E2036",
"o c #784830",
"O c #36364D",
"+ c #365D7E",
"@ c #B92E2E",
"# c #89502F",
"$ c #EE5D3D",
"% c #18A068",
"& c #D09870",
"* c #40B080",
"= c #70C0A0",
"- c #F7CFB6",
"; c #B1A8CB",
": c #E5E5F7",
/* pixels */
"****************************************************************",
"****************************************************************",
"****************************************************************",
"****************************************************************",
"************************************************%%%%****%%%%****",
"*************************XXXXXXXXXXXXXX*********%%%%****%%%%****",
"*************************XXXXXXXXXXXXXX*********%%%%****%%%%****",
"*********************  XX@@$$$$$$$$$$@@XXXX*****%%%%****%%%%****",
"****%%%%****%%%%*****  XX@@$$$$$$$$$$@@XXXX*********%%%%********",
"****%%%%****%%%%***  @@@@$$$$$$$$$$$$$$@@@@XX*******%%%%********",
"****%%%%****%%%%***  @@@@$$$$$$$$$$$$$$@@@@XX*******%%%%********",
"****%%%%****%%%%***  @@@@$$$$$$$$$$$$$$@@::XX*******%%%%********",
"********%%%%*******  @@@@$$$$$$$$$$$$$$@@::XX*******************",
"********%%%%*****XX@@@@@@$$$$$$$$$$$$$$@@::;;OO*****************",
"********%%%%*****XX@@@@@@$$$$$$$$$$$$$$@@::;;OO*****************",
"********%%%%*****  @@@@@@@@$$$$$$$$$$@@@@::@@++OOOO*************",
"*****************  @@@@@@@@$$$$$$$$$$@@@@::@@++OOOO*************",
"*****************  @@@@@@@@@@@@@@@@@@@@@@;;;;++::::  ***********",
"*****************  @@@@@@@@@@@@@@@@@@@@@@;;;;++::::  ***********",
"*****************  @@@@@@@@@@@@@@@@@@@@@@@@;;++::::::  *********",
"*****************  @@@@@@@@@@@@@@@@@@@@@@@@;;++::::::  *********",
"*****************  XX@@@@@@@@@@@@@@@@@@@@@@XX::::::::  *********",
"*****************  XX@@@@@@@@@@@@@@@@@@@@@@XX::::::::  *********",
"*******************    XX@@@@@@@@@@@@@@@@XX;;;;::::::  *********",
"************====***    XX@@@@@@@@@@@@@@@@XX;;;;::::::  *********",
"************====*  OOOO              XXXX;;;;;;;;;;  ***********",
"************====*  OOOO              XXXX;;;;;;;;;;  ***********",
"************===  OOOOOOOOOOOOOOOOOO&&::  oooo      *************",
"***************  OOOOOOOOOOOOOOOOOO&&::  oooo      *************",
"*****************    OOOOOO##&&OO&&&&::  ----oo*****************",
"*****************    OOOOOO##&&OO&&&&::  ----oo*****************",
"*********************    OO##&&&&&&----------&&*****************",
"*********************    OO##&&&&&&----------&&*****************",
"***********************      OOoo&&&&&&--&&oo*******************",
"***********************      OOoo&&&&&&--&&oo*******************",
"***************************....OOoo&&oo    *********************",
"****************%%%%****%%%....OOoo&&oo    *********************",
"****************%%%%***....$$##$$$$::++*************************",
"****************%%%%***....$$##$$$$::++*************************",
"****************%%%%*..$$##$$  OOOO$$::OO***********************",
"********************%..$$##$$  OOOO$$::OO***********************",
"********************%..$$##$$XXOO&&@@OOOO***********************",
"********************%..$$##$$XXOO&&@@OOOO***********************",
"********************%  ######XXXX&&&&--  ***********************",
"*********************  ######XXXX&&&&--  ***********************",
"*********************  ######XXXX  ----  ***********************",
"*********************  ######XXXX  ----  ***********************",
"***********************    OOOOOOOO    OO***********************",
"***********************    OOOOOOOO    OO***%%%%****************",
"*************************OO++++++OOOOOO    *%%%%****************",
"*************************OO++++++OOOOOO    *%%%%****************",
"***********************OO++++OOOOOOOOOOOO  *%%%%****************",
"***********************OO++++OOOOOOOOOOOO  %********************",
"*********************OO++++  OO****      %%%********************",
"*********************OO++++  OO****      %%%********************",
"*********************  @@@@@@  *********%%%%********************",
"*********************  @@@@@@  *********************************",
"***********************      ***********************************",
"***********************      ***********************************",
"****************************************************************",
"****************************************************************",
"****************************************************************",
"****************************************************************",
"****************************************************************"
};
