/* XPM */
static char *result[] = {
/* columns rows colors chars-per-pixel */
"64 64 14 1 ",
"  c black",
". c #682828",
"X c #383878",
"o c #784040",
"O c #C03838",
"+ c #A87840",
"@ c #F86848",
"# c #18A068",
"$ c #D89070",
"% c #40B080",
"& c #70A0C0",
"* c #F8C090",
"= c #B0B0D0",
"- c #E8E8F8",
/* pixels */
"%%%%%%%%%%%%%%%%..................................%%%%%%%%%%%%%%",
"%%%%%%%%%%%%%%%%..................................%%%%%%%%%%%%%%",
"%%%%%%%%%%%%%%%%..................................%%%%%%%%%%%%%%",
"%%%%%%%%%%%%%%%%..................................%%%%%%%%%%%%%%",
"%%%%%%%%%%......OOOO@@@@@@@@@@@@@@@@@@@@@@@@OOOOOO....%%####%%%%",
"%%%%%%%%%%......OOOO@@@@@@@@@@@@@@@@@@@@@@@@OOOOOO....%%####%%%%",
"%%%%%%%%%%......OOOO@@@@@@@@@@@@@@@@@@@@@@@@OOOOOO....%%####%%%%",
"%%%%%%%%%%......OOOO@@@@@@@@@@@@@@@@@@@@@@@@OOOOOO....%%####%%%%",
"%%%%####%%......@@@@@@@@@@@@@@@@@@@@@@@@@@@@@@@@@@....##%%%%%%%%",
"%%%%####%%......@@@@@@@@@@@@@@@@@@@@@@@@@@@@@@@@@@....##%%%%%%%%",
"%%%%##....OOOOOO@@@@@@@@@@@@@@@@@@@@@@@@@@@@@@@@@@OOOO....%%%%%%",
"%%%%##....OOOOOO@@@@@@@@@@@@@@@@@@@@@@@@@@@@@@@@@@OOOO....%%%%%%",
"%%%%%%....OOOOOO@@@@@@@@@@@@@@@@@@@@@@@@@@@@@@@@@@OOOO....%%%%%%",
"%%%%%%....OOOOOO@@@@@@@@@@@@@@@@@@@@@@@@@@@@@@@@@@OOOO....%%%%%%",
"%%%%%%    OOOOOOOOOO@@@@        @@@@@@@@@@@@OOOOOOOOOO    %%%%%%",
"%%%%%%    OOOOOOOOOO@@@@        @@@@@@@@@@@@OOOOOOOOOO    %%%%%%",
"%%%%%%    OOOOOOOOOO@@@@        @@@@@@@@@@@@OOOOOOOOOO    %%%%%%",
"%%%%%%    OOOOOOOOOO@@@@        @@@@@@@@@@@@OOOOOOOOOO    %%%%%%",
"%%%%%%          OOOO        OOOOOOOO        OOOOOO        %%%%%%",
"%%%%%%          OOOO        OOOOOOOO        OOOOOO        %%%%%%",
"%%    ++++......    XXXX            XXXX          XXXX++++    %%",
"%%    ++++......    XXXX            XXXX          XXXX++++    %%",
"%%    ++++......    XXXX            XXXX          XXXX++++    %%",
"%%    ++++......    XXXX            XXXX          XXXX++++    %%",
"%%    $$$$              XXXX    XXXX        XXXXXX    $$$$    %%",
"%%    $$$$              XXXX    XXXX        XXXXXX    $$$$    %%",
"%%    $$$$              XXXX    XXXX        XXXXXX    $$$$    %%",
"%%    $$$$              XXXX    XXXX        XXXXXX    $$$$    %%",
"%%%%%%    oooooo    $$$$            $$$$                  %%%%%%",
"%%%%%%    oooooo    $$$$            $$$$                  %%%%%%",
"%%%%%%    $$$$$$$$$$****    ********    ****$$$$$$$$$$    %%%%%%",
"%%%%%%    $$$$$$$$$$****    ********    ****$$$$$$$$$$    %%%%%%",
"%%%%%%    $$$$$$$$$$****    ********    ****$$$$$$$$$$    %%%%%%",
"%%%%%%    $$$$$$$$$$****    ********    ****$$$$$$$$$$    %%%%%%",
"%%%%%%%%%%oooooo$$$$$$$$oooo********oooo$$$$$$$$$$oooo%%%%%%%%%%",
"%%%%%%%%%%oooooo$$$$$$$$oooo********oooo$$$$$$$$$$oooo%%%%%%%%%%",
"%%%%%%%%%%oooooo$$$$$$$$oooo********oooo$$$$$$$$$$oooo%%%%%%%%%%",
"%%%%%%%%%%oooooo$$$$$$$$oooo********oooo$$$$$$$$$$oooo%%%%%%%%%%",
"%%%%%%    XXXXXX    oooo$$$$$$$$$$$$$$$$oooo      XXXX    %%%%%%",
"%%%%%%    XXXXXX    oooo$$$$$$$$$$$$$$$$oooo      XXXX    %%%%%%",
"%%%%%%    XXXXXX    oooo$$$$$$$$$$$$$$$$oooo      XXXX    %%%%%%",
"%%%%%%    XXXXXX    oooo$$$$$$$$$$$$$$$$oooo      XXXX    %%%%%%",
"%%oooo****XXXXXXXXXXOOOO                OOOOXXXXXXXXXX****oooo%%",
"%%oooo****XXXXXXXXXXOOOO                OOOOXXXXXXXXXX****oooo%%",
"%%oooo$$$$$$$$$$XXXXOOOOOOOO========OOOOOOOOXXXXXX$$$$$$$$oooo%%",
"%%oooo$$$$$$$$$$XXXXOOOOOOOO========OOOOOOOOXXXXXX$$$$$$$$oooo%%",
"%%oooo$$$$$$$$$$XXXXOOOOOOOO========OOOOOOOOXXXXXX$$$$$$$$oooo%%",
"%%oooo$$$$$$$$$$XXXXOOOOOOOO========OOOOOOOOXXXXXX$$$$$$$$oooo%%",
"%%%%%%oooo          OOOO@@@@--------@@@@OOOO          oooo%%%%%%",
"%%%%%%oooo          OOOO@@@@--------@@@@OOOO          oooo%%%%%%",
"%%%%%%oooo          OOOO@@@@--------@@@@OOOO          oooo%%%%%%",
"%%%%%%oooo          OOOO@@@@--------@@@@OOOO          oooo%%%%%%",
"%%%%%%%%%%XXXXXX&&&&XXXX                XXXX&&&&&&XXXX%%%%%%%%%%",
"%%%%%%%%%%XXXXXX&&&&XXXX                XXXX&&&&&&XXXX%%%%%%%%%%",
"%%%%%%%%%%          &&&&&&&&        &&&&&&&&          %%%%%%%%%%",
"%%%%%%%%%%          &&&&&&&&        &&&&&&&&          %%%%%%%%%%",
"%%%%%%%%%%          &&&&&&&&        &&&&&&&&          %%%%%%%%%%",
"%%%%%%%%%%          &&&&&&&&        &&&&&&&&          %%%%%%%%%%",
"%%%%%%%%%%      XXXXXXXX    %%%%%%%%    XXXXXXXXXX    %%%%%%%%%%",
"%%%%%%%%%%      XXXXXXXX    %%%%%%%%    XXXXXXXXXX    %%%%%%%%%%",
"%%%%%%%%%%      XXXXXXXX    %%%%%%%%    XXXXXXXXXX    %%%%%%%%%%",
"%%%%%%%%%%      XXXXXXXX    %%%%%%%%    XXXXXXXXXX    %%%%%%%%%%",
"%%%%%%%%%%%%%%%%        %%%%%%%%%%%%%%%%          %%%%%%%%%%%%%%",
"%%%%%%%%%%%%%%%%        %%%%%%%%%%%%%%%%          %%%%%%%%%%%%%%"
};
