/* XPM */
static char *result[] = {
/* columns rows colors chars-per-pixel */
"64 64 18 1 ",
"  c black",
". c #2E3636",
"X c #452712",
"o c #7E2036",
"O c #6D3636",
"+ c #784830",
"@ c #36364D",
"# c #365D7E",
"$ c #B92E2E",
"% c #89502F",
"& c #EE5D3D",
"* c #18A068",
"= c #D09870",
"- c #40B080",
"; c #70C0A0",
": c #F7CFB6",
"> c #B1A8CB",
", c #E5E5F7",
/* pixels */
"----------------------------------------------------------------",
"----------------------------------------------------------------",
"----------------------------------------------------------------",
"----------------------------------------------------------------",
"------------------------------------------------****----****----",
"------------------------oooooooooooooooo--------****----****----",
"------------------------oooooooooooooooo--------****----****----",
"--------------------oooo$$&&&&&&&&&&&&$$oooo----****----****----",
"----****----****----oooo$$&&&&&&&&&&&&$$oooo--------****--------",
"----****----****--  $$$$&&&&&&&&&&&&&&&&$$$$  ------****--------",
"----****----****--  $$$$&&&&&&&&&&&&&&&&$$$$  ------****--------",
"----****----****--  $$$$&&&&&&&&&&&&&&&&$$$$  ------****--------",
"--------****------  $$$$&&&&&&&&&&&&&&&&$$$$  ------------------",
"--------****----oooo$$$$&&&&&&&&&&&&&&&&$$$$oooo----------------",
"--------****----oooo$$$$&&&&&&&&&&&&&&&&$$$$oooo----------------",
"--------****----  $$$$$$$$&&&&&&&&&&&&$$$$$$$$  ----------------",
"----------------  $$$$$$$$&&&&&&&&&&&&$$$$$$$$  ----------------",
"----------------  $$$$$$$$$$$$$$$$$$$$$$$$$$$$  ----------------",
"----------------  $$$$$$$$$$$$$$$$$$$$$$$$$$$$  ----------------",
"----------------  oo$$$$$$$$$$$$$$$$$$$$$$$$oo  ----------------",
"----------------  oo$$$$$$$$$$$$$$$$$$$$$$$$oo  ----------------",
"--------------XXXX  oo$$$$$$>>>>>>>>$$$$$$oo  XXXX--------------",
"--------------XXXX  oo$$$$$$>>>>>>>>$$$$$$oo  XXXX--------------",
"--------------XX==  >>oooo>>>>$$$$>>>>oooo>>  ==XX--------------",
"------------;;XX==  >>oooo>>>>$$$$>>>>oooo>>  ==XX--------------",
"------------;;++==@@  >>,,,,,,,,,,,,,,,,>>  @@==++--------------",
"------------;;++==@@  >>,,,,,,,,,,,,,,,,>>  @@==++--------------",
"------------;;;;  @@@@  @@,,,,,,,,,,,,@@  @@@@  ----------------",
"----------------  @@@@  @@,,,,,,,,,,,,@@  @@@@  ----------------",
"------------------  ==++>>  @@@@@@@@  >>++==  ------------------",
"------------------  ==++>>  @@@@@@@@  >>++==  ------------------",
"------------------    ::,,  ========  ,,::    ------------------",
"------------------    ::,,  ========  ,,::    ------------------",
"--------------------  ++::::::::::::::::++  --------------------",
"--------------------  ++::::::::::::::::++  --------------------",
"----------------------    ==::====::==    ----------------------",
"----------------****--    ==::====::==    ----------------------",
"----------------****  @@&&    ++++    &&@@  --------------------",
"----------------****  @@&&    ++++    &&@@==++++----------------",
"----------------**++@@@@&&$$>>@@@@>>$$&&@@==++++----------------",
"--------------------*++@@&$$>>@@@@>>$$&&@@++==::++--------------",
"-------------------++++==X++$$>>>>$$++XX  ++==::++--------------",
"-------------------++++==X++$$>>>>$$++XX    ::::  --------------",
"-----------------++::==++%  $$>>>>$$  %%    ::::  --------------",
"-----------------++::==++%  $$>>>>$$  %%  ++    ----------------",
"-----------------  ::::  %  $$>>>>$$  %%XX      ----------------",
"-----------------  ::::  %  $$>>>>$$  %%XX  --------------------",
"-------------------    -  ++$$>>>>$$++  ------------------------",
"-------------------    -  ++$$>>>>$$++  ----****----------------",
"------------------------OO>>>>    $$##  ----****----------------",
"------------------------OO>>>>    $$##  ----****----------------",
"------------------------    ##....>>>>  ----****----------------",
"------------------------    ##....>>>>  ****--------------------",
"------------------------  ....    ####--****--------------------",
"------------------------  ....    ####--****--------------------",
"--------------------------    --####  --****--------------------",
"--------------------------    --####  --------------------------",
"--------------------------------  ..##  ------------------------",
"--------------------------------  ..##  ------------------------",
"--------------------------------  $$$$  ------------------------",
"--------------------------------  $$$$  ------------------------",
"----------------------------------    --------------------------",
"----------------------------------------------------------------",
"----------------------------------------------------------------"
};
