/* XPM */
static char *p_standard1683689032[] = {
/* columns rows colors chars-per-pixel */
"64 64 16 1 ",
"  c black",
". c #2E2E35",
"X c #44444C",
"o c #784040",
"O c #C03838",
"+ c #A87840",
"@ c #F86848",
"# c #18A068",
"$ c #B89838",
"% c #D89070",
"& c #C8B068",
"* c #F8D858",
"= c #40B080",
"- c #70C0A0",
"; c #F8C090",
": c #E8E8F8",
/* pixels */
"================================================================",
"================================================================",
"================================================================",
"================================================================",
"================================================####====####====",
"================================================####====####====",
"============================        ============####====####====",
"============================        ============####====####====",
"====####====####========    $$****$$    ============####========",
"====####====####========    $$****$$    ============####========",
"====####====####======  ..$$********$$..  ==========####========",
"====####====####======  ..$$********$$..  ==========####========",
"========####========  ..****************..  ====================",
"========####========  ..****************..  ====================",
"========####========  $$$$**......****$$$$  ====================",
"========####========  $$$$**......****$$$$  ====================",
"====================  $$$$....XX....$$$$$$  ====================",
"====================  $$$$....XX....$$$$$$  ====================",
"==================  ++  ....XX....$$$$$$  ++  ==================",
"==================  ++  ....XX....$$$$$$  ++  ==================",
"==================  %%    ......          %%  ==================",
"==================  %%    ......          %%  ==================",
"====================  oo%%;;;;;;;;;;;;%%oo  ====================",
"====================  oo%%;;;;;;;;;;;;%%oo  ====================",
"============----====  %%%%;;  ;;;;  ;;%%%%  ====================",
"============----====  %%%%;;  ;;;;  ;;%%%%  ====================",
"============----======oo%%%%oo;;;;oo%%%%oo======================",
"============----======oo%%%%oo;;;;oo%%%%oo======================",
"====================  OO::oo%%%%%%%%oo::OO  ====================",
"====================  OO::oo%%%%%%%%oo::OO  ====================",
"==================oo;;OOOO::        ::OOOO;;oo==================",
"==================oo;;OOOO::        ::OOOO;;oo==================",
"==================oo%%%%OOOOOOOOOOOOOOOO%%%%oo==================",
"==================oo%%%%OOOOOOOOOOOOOOOO%%%%oo==================",
"====================oo    OO@@::::@@OO    oo====================",
"====================oo    OO@@::::@@OO    oo====================",
"================####==&&**&&        &&**&&======================",
"================####==&&**&&        &&**&&======================",
"================####==    ****    ****    ======================",
"================####==    ****    ****    ======================",
"====================##  &&&&  ====  &&&&  ======================",
"====================##  &&&&  ====  &&&&  ======================",
"====================####    ========    ========================",
"====================####    ========    ========================",
"================================================================",
"================================================================",
"================================================================",
"================================================================",
"====================================####====####================",
"====================================####====####================",
"====================================####====####================",
"====================================####====####================",
"========================================####====================",
"========================================####====================",
"========================================####====================",
"========================================####====================",
"================================================================",
"================================================================",
"================================================================",
"================================================================",
"================================================================",
"================================================================",
"================================================================",
"================================================================"
};
