/* XPM */
static char *result[] = {
/* columns rows colors chars-per-pixel */
"64 64 17 1 ",
"  c black",
". c #2F2E2F",
"X c #2E3636",
"o c #452712",
"O c #553627",
"+ c #7E2036",
"@ c #365D7E",
"# c #B92E2E",
"$ c #89502F",
"% c #EE5D3D",
"& c #834A4C",
"* c #CB8E65",
"= c #CF966F",
"- c #888888",
"; c #F7CBB1",
": c #E5E5F7",
"> c #FE12E0",
/* pixels */
">>>>>>>>>>>>>>>>>>>>>>>>>>>>>>>>>>>>>>>>>>>>>>>>>>>>>>>>>>>>>>>>",
">>>>>>>>>>>>>>>>>>>>>>>>>>>>>>>>>>>>>>>>>>>>>>>>>>>>>>>>>>>>>>>>",
">>>>>>>>>>>>>>>>>>>>>>>>>>>>>>>>>>>>>>>>>>>>>>>>>>>>>>>>>>>>>>>>",
">>>>>>>>>>>>>>>>>>>>>>>>>>>>>>>>>>>>>>>>>>>>>>>>>>>>>>>>>>>>>>>>",
">>>>>>>>>>>>>>>>>>>>>>>>>>>>>>>>>>>>>>>>>>>>>>>>>>>>>>>>>>>>>>>>",
">>>>>>>>>>>>>>>>>>>>>>>>>>>>>>>>>>>>>>>>>>>>>>>>>>>>>>>>>>>>>>>>",
">>>>>>>>>>>>>>>>>>>>>>>>++++++++++++++++>>>>>>>>>>>>>>>>>>>>>>>>",
">>>>>>>>>>>>>>>>>>>>++++##%%%%%%%%%%%%##+++>>>>>>>>>>>>>>>>>>>>>",
">>>>>>>>>>>>>>>>>>>>++++##%%%%%%%%%%%%##+++>>>>>>>>>>>>>>>>>>>>>",
">>>>>>>>>>>>>>>>>>  ####%%%%%%%%%%%%%%%%###  >>>>>>>>>>>>>>>>>>>",
">>>>>>>>>>>>>>>>>>  ####%%%%%%%%%%%%%%%%###  >>>>>>>>>>>>>>>>>>>",
">>>>>>>>>>>>>>>>>>  ####%%%%%%%%%%%%%%%%###  >>>>>>>>>>>>>>>>>>>",
">>>>>>>>>>>>>>>>>>  ####%%%%%%%%%%%%%%%%###  >>>>>>>>>>>>>>>>>>>",
">>>>>>>>>>>>>>>>++++####%%%%%%%%%%%%%%%%###++++>>>>>>>>>>>>>>>>>",
">>>>>>>>>>>>>>>>++++####%%%%%%%%%%%%%%%%###++++>>>>>>>>>>>>>>>>>",
">>>>>>>>>>>>>>>>  ########%%%%%%%%%%%%#######  >>>>>>>>>>>>>>>>>",
">>>>>>>>>>>>>>>>  ########%%%%%%%%%%%%#######  >>>>>>>>>>>>>>>>>",
">>>>>>>>>>>>>>>>  ###########################  >>>>>>>>>>>>>>>>>",
">>>>>>>>>>>>>>>>  ###########################  >>>>>>>>>>>>>>>>>",
">>>>>>>>>>>>>>>>  ++#######################++  >>>>>>>>>>>>>>>>>",
">>>>>>>>>>>>>>>>  ++#######################++  >>>>>>>>>>>>>>>>>",
">>>>>>>>>>>>>>>>  ++#######################++  >>>>>>>>>>>>>>>>>",
">>>>>>>>>>>>>>>>  ++########++++++++#######++  >>>>>>>>>>>>>>>>>",
">>>>>>>>>>>>>>>>  ++########++++++++#######++  >>>>>>>>>>>>>>>>>",
">>>>>>>>>>>>>>  ....########++++++++#######....  >>>>>>>>>>>>>>>",
">>>>>>>>>>>>>>  ....########++++++++#######....  >>>>>>>>>>>>>>>",
">>>>>>>>>>>>>>  ==..++###################++..==  >>>>>>>>>>>>>>>",
">>>>>>>>>>>>>>  ==..++###################++..==  >>>>>>>>>>>>>>>",
">>>>>>>>>>>>>>&&==....++++############+++....==&&>>>>>>>>>>>>>>>",
">>>>>>>>>>>>>>&&==....++++############+++....==&&>>>>>>>>>>>>>>>",
">>>>>>>>>>>>>>>>  ........++++++++++++.......  >>>>>>>>>>>>>>>>>",
">>>>>>>>>>>>>>>>  ........++++++++++++.......  >>>>>>>>>>>>>>>>>",
">>>>>>>>>>>>>>>>>>  .......................  >>>>>>>>>>>>>>>>>>>",
">>>>>>>>>>>>>>>>>>  .......................  >>>>>>>>>>>>>>>>>>>",
">>>>>>>>>>>>>>>>>>>>  ==................=  >>>>>>>>>>>>>>>>>>>>>",
">>>>>>>>>>>>>>>>>>>>  ==................=  >>>>>>>>>>>>>>>>>>>>>",
">>>>>>>>>>>>>>>>>>>>      ++        ++     >>>>>>>>>>>>>>>>>>>>>",
">>>>>>>>>>>>>>>>>>>>      OO        OO     >>>>>>>>>>>>>>>>>>>>>",
">>>>>>>>>>>>>>>>OO  ::::--oooooooooooo--:::  OO>>>>>>>>>>>>>>>>>",
">>>>>>>>>>>>>>>>OO  ::::--oooooooooooo--:::  OO>>>>>>>>>>>>>>>>>",
">>>>>>>>>>>>>>OO;;;;::  --  %%%%%%%%  --  :;;;;OO>>>>>>>>>>>>>>>",
">>>>>>>>>>>>>>OO;;;;::  --  %%%%%%%%  --  :;;;;OO>>>>>>>>>>>>>>>",
">>>>>>>>>>>>>>OO;;**  >>  ##%%%%%%%%##  >> **;;OO>>>>>>>>>>>>>>>",
">>>>>>>>>>>>>>OO;;**  >>  ##%%%%%%%%##  >> **;;OO>>>>>>>>>>>>>>>",
">>>>>>>>>>>>>>>>    >>>>oo$$########$$oo>>>    >>>>>>>>>>>>>>>>>",
">>>>>>>>>>>>>>>>    >>>>oo$$########$$oo>>>    >>>>>>>>>>>>>>>>>",
">>>>>>>>>>>>>>>>>>>>>>>>oo%%$$$$$$$$%%oo>>>>>>>>>>>>>>>>>>>>>>>>",
">>>>>>>>>>>>>>>>>>>>>>>>oo%%$$$$$$$$%%oo>>>>>>>>>>>>>>>>>>>>>>>>",
">>>>>>>>>>>>>>>>>>>>>>>>XX  %%%%%%%%  XX>>>>>>>>>>>>>>>>>>>>>>>>",
">>>>>>>>>>>>>>>>>>>>>>>>XX  %%%%%%%%  XX>>>>>>>>>>>>>>>>>>>>>>>>",
">>>>>>>>>>>>>>>>>>>>>>>>  @@@@    @@@@  >>>>>>>>>>>>>>>>>>>>>>>>",
">>>>>>>>>>>>>>>>>>>>>>>>  @@@@    @@@@  >>>>>>>>>>>>>>>>>>>>>>>>",
">>>>>>>>>>>>>>>>>>>>>>  XXXX  >>>>  XXXX  >>>>>>>>>>>>>>>>>>>>>>",
">>>>>>>>>>>>>>>>>>>>>>  XXXX  >>>>  XXXX  >>>>>>>>>>>>>>>>>>>>>>",
">>>>>>>>>>>>>>>>>>>>>>  ####  >>>>  ####  >>>>>>>>>>>>>>>>>>>>>>",
">>>>>>>>>>>>>>>>>>>>>>  ####  >>>>  ####  >>>>>>>>>>>>>>>>>>>>>>",
">>>>>>>>>>>>>>>>>>>>>>>>    >>>>>>>>    >>>>>>>>>>>>>>>>>>>>>>>>",
">>>>>>>>>>>>>>>>>>>>>>>>    >>>>>>>>    >>>>>>>>>>>>>>>>>>>>>>>>",
">>>>>>>>>>>>>>>>>>>>>>>>>>>>>>>>>>>>>>>>>>>>>>>>>>>>>>>>>>>>>>>>",
">>>>>>>>>>>>>>>>>>>>>>>>>>>>>>>>>>>>>>>>>>>>>>>>>>>>>>>>>>>>>>>>",
">>>>>>>>>>>>>>>>>>>>>>>>>>>>>>>>>>>>>>>>>>>>>>>>>>>>>>>>>>>>>>>>",
">>>>>>>>>>>>>>>>>>>>>>>>>>>>>>>>>>>>>>>>>>>>>>>>>>>>>>>>>>>>>>>>",
">>>>>>>>>>>>>>>>>>>>>>>>>>>>>>>>>>>>>>>>>>>>>>>>>>>>>>>>>>>>>>>>",
">>>>>>>>>>>>>>>>>>>>>>>>>>>>>>>>>>>>>>>>>>>>>>>>>>>>>>>>>>>>>>>>"
};
