/* XPM */
static char *result[] = {
/* columns rows colors chars-per-pixel */
"64 64 21 1 ",
"  c black",
". c #2F2E2F",
"X c #2E3636",
"o c #452712",
"O c #553627",
"+ c #7E2036",
"@ c #36364D",
"# c #365D7E",
"$ c #B92E2E",
"% c #89502F",
"& c #EE5D3D",
"* c #834A4C",
"= c #18A068",
"- c #CB8E65",
"; c #CF966F",
": c #40B080",
"> c #70C0A0",
", c #888888",
"< c #F7CBB1",
"1 c #B1A8CB",
"2 c #E5E5F7",
/* pixels */
"::::::::::::::::::::::::::::::::::::::::::::::::::::::::::::::::",
"::::::::::::::::::::::::::::::::::::::::::::::::::::::::::::::::",
"::::::::::::::::::::::::::::::::::::::::::::::::::::::::::::::::",
":::::::::::::::::::::::::++++++++++++++++:::::::::::::::::::::::",
":::::::::::::::::::::++++$$&&&&&&&&&&&&$$+++::::====::::====::::",
":::::::::::::::::::::++++$$&&&&&&&&&&&&$$+++::::====::::====::::",
":::::::::::::::::::  $$$$&&&&&&&&&&&&&&&&$$$  ::====::::====::::",
":::::::::::::::::::  $$$$&&&&&&&&&&&&&&&&$$$  ::====::::====::::",
"::::====::::====:::  $$$$&&&&&&&&&&&&&&&&$$$  ::::::====::::::::",
"::::====::::====:::  $$$$&&&&&&&&&&&&&&&&$$$  ::::::====::::::::",
"::::====::::====:++++$$$$&&&&&&&&&&&&&&&&$$$++++::::====::::::::",
"::::====::::====:++++$$$$&&&&&&&&&&&&&&&&$$$++++::::====::::::::",
"::::::::====:::::  $$$$$$$$&&&&&&&&&&&&$$$$$$$  ::::::::::::::::",
"::::::::====:::::  $$$$$$$$&&&&&&&&&&&&$$$$$$$  ::::::::::::::::",
"::::::::====:::::  $$$$$$$$$$$$$$$$$$$$$$$$$$$  ::::::::::::::::",
"::::::::====:::::  $$$$$$$$$$$$$$$$$$$$$$$$$$$  ::::::::::::::::",
":::::::::::::::::  ++$$$$$$$$$$$$$$$$$$$$$$$++  ::::::::::::::::",
":::::::::::::::::  ++$$$$$$$$$$$$$$$$$$$$$$$++  ::::::::::::::::",
":::::::::::::::::  ++$$$$$$$$++++++++$$$$$$$++  ::::::::::::::::",
":::::::::::::::::  ++$$$$$$$$++++++++$$$$$$$++  ::::::::::::::::",
":::::::::::::::  ....$$$$$$$$++++++++$$$$$$$....  ::::::::::::::",
":::::::::::::::  ....$$$$$$$$++++++++$$$$$$$....  ::::::::::::::",
":::::::::::::::  ;;..++$$$$$$$$$$$$$$$$$$$++..;;  ::::::::::::::",
":::::::::::::::  ;;..++$$$$$$$$$$$$$$$$$$$++..;;  ::::::::::::::",
"::::::::::::>>>**;;....++++$$$$$$$$$$$$+++....;;**::::::::::::::",
"::::::::::::>>>**;;....++++$$$$$$$$$$$$+++....;;**::::::::::::::",
"::::::::::::>>>>:  ........++++++++++++.......  ::::::::::::::::",
"::::::::::::>>>>:  ........++++++++++++.......  ::::::::::::::::",
":::::::::::::::::::  .......................  ::::::::::::::::::",
":::::::::::::::::::  .......................  ::::::::::::::::::",
":::::::::::::::::::::  ;;................;  ::::::::::::::::::::",
":::::::::::::::::::::  ;;................;  ::::::::::::::::::::",
":::::::::::::::::::::::    ++        ++   ::::::::::::::::::::::",
"::::::::::::::::::::    XX        OO        ::::::::::::::::::::",
"::::::::::::::::::::    XX        OO        ::::::::::::::::::::",
"::::::::::::::::::  22,,oooooooooooo,,1111--  ::::::::::::::::::",
"::::::::::::::::==  22,,oooooooooooo,,1111--  ::::::::::::::::::",
"::::::::::::::::OO222222,,  &&&&&&&&oo  ----  ::::::::::::::::::",
"::::::::::::::::OO222222,,  &&&&&&&&oo  ----  ::::::::::::::::::",
"::::::::::::::OO<<--22    $$&&&&&&&&$$::    ::::::::::::::::::::",
"::::::::::::::OO<<--22    $$&&&&&&&&$$::    ::::::::::::::::::::",
"::::::::::::::OO<<<<    oo%%$$$$$$$$%%::::::::::::::::::::::::::",
"::::::::::::::OO<<<<    oo%%$$$$$$$$%%::::::::::::::::::::::::::",
"::::::::::::::::OO  ==  oo&&%%%%%%%%&&::::::::::::::::::::::::::",
"::::::::::::::::OO  ::  oo&&%%%%%%%%&&::::::::::::::::::::::::::",
"::::::::::::::::::::::XXXX  &&&&&&&&  ::::::::::::::::::::::::::",
"::::::::::::::::::::::XXXX  &&&&&&&&  ::::::::::::::::::::::::::",
"::::::::::::::::::::::  XXXX  XX####XX::::::::::::::::::::::::::",
"::::::::::::::::::::::  XXXX  XX####XX==::::====::::::::::::::::",
"::::::::::::::::::::::::    ::::####  ==::::====::::::::::::::::",
"::::::::::::::::::::::::    ::::####  ==::::====::::::::::::::::",
"::::::::::::::::::::::::::::::  @@@@  ==::::====::::::::::::::::",
"::::::::::::::::::::::::::::::  @@@@  ::====::::::::::::::::::::",
"::::::::::::::::::::::::::::::  $$$$  ::====::::::::::::::::::::",
"::::::::::::::::::::::::::::::  $$$$  ::====::::::::::::::::::::",
"::::::::::::::::::::::::::::::::    ::::====::::::::::::::::::::",
"::::::::::::::::::::::::::::::::    ::::::::::::::::::::::::::::",
"::::::::::::::::::::::::::::::::::::::::::::::::::::::::::::::::",
"::::::::::::::::::::::::::::::::::::::::::::::::::::::::::::::::",
"::::::::::::::::::::::::::::::::::::::::::::::::::::::::::::::::",
"::::::::::::::::::::::::::::::::::::::::::::::::::::::::::::::::",
"::::::::::::::::::::::::::::::::::::::::::::::::::::::::::::::::",
"::::::::::::::::::::::::::::::::::::::::::::::::::::::::::::::::",
"::::::::::::::::::::::::::::::::::::::::::::::::::::::::::::::::"
};
