/* XPM */
static char *result[] = {
/* columns rows colors chars-per-pixel */
"64 64 14 1 ",
"  c black",
". c #283030",
"X c #284848",
"o c gray25",
"O c #406878",
"+ c #886848",
"@ c #B89050",
"# c #D8C078",
"$ c #508090",
"% c #A0A0B8",
"& c #F8E0A8",
"* c #C0C0C8",
"= c #E8E8F8",
"- c None",
/* pixels */
"----------------------------------------------------------------",
"----------------------------------------------------------------",
"----------------------------------------------------------------",
"----------------------------------------------------------------",
"----------------------------------------------------------------",
"----------------------------------------------------------------",
"----------------------------------------------------------------",
"----------------------------------------------------------------",
"----------------------------------------------------------------",
"----------------------------------------------------------------",
"----------------------..  --------------  ..--------------------",
"----------------------..  --------------  ..--------------------",
"--------------------..$$OO  ..........  OO$$..------------------",
"--------------------..$$OO  ..........  OO$$..------------------",
"--------------------..$$$$OO  OOOOOO  OO$$$$..------------------",
"--------------------..$$$$OO  OOOOOO  OO$$$$..------------------",
"--------------------..OO$$$$$$$$$$$$$$$$$$OO..------------------",
"--------------------..OO$$$$$$$$$$$$$$$$$$OO..------------------",
"--------------------..OO$$$$$$$$$$$$$$$$$$OO..------------------",
"--------------------..OO$$$$$$$$$$$$$$$$$$OO..------------------",
"------------------..OOOO$$&&$$$$$$$$$$&&$$OOOO..----------------",
"------------------..OOOO$$&&$$$$$$$$$$&&$$OOOO..----------------",
"------------------  OO$$&&&&&&$$$$$$&&&&&&$$OO  ----------------",
"------------------  OO$$&&&&&&$$$$$$&&&&&&$$OO  ----------------",
"------------------  OO&&&&&&&&&&$$&&&&&&&&&&OO  ----------------",
"------------------  OO&&&&&&&&&&$$&&&&&&&&&&OO  ----------------",
"----------------..  OO&&&&&&&&&&&&&&&&&&&&&&OO  ......----------",
"----------------..  OO&&&&&&&&&&&&&&&&&&&&&&OO  ......----------",
"------------....OOXX  ##  oo++&&&&&&++oo  ##  XXOOOOOO....------",
"------------....OOXX  ##  oo++&&&&&&++oo  ##  XXOOOOOO....------",
"----------..$$OOOOOOXX@@##&&&&&&&&&&&&&&##@@XXOOOOOO$$$$$$..----",
"----------..$$OOOOOOXX@@##&&&&&&&&&&&&&&##@@XXOOOOOO$$$$$$..----",
"--------..$$$$$$OOOOOOOO@@##==######==##@@OOOOOOOO$$$$$$**..----",
"--------..$$$$$$OOOOOOOO@@##==######==##@@OOOOOOOO$$$$$$**..----",
"------..$$$$$$$$OOOOOOOOOO++@@@@@@@@@@++OOOOOOXXOOOO$$**..------",
"------..$$$$$$$$OOOOOOOOOO++@@@@@@@@@@++OOOOOOXXOOOO$$**..------",
"------  **$$$$OOOO  OOOO####&&&&&&&&&&####OOOOOOXX..    --------",
"------  **$$$$OOOO  OOOO####&&&&&&&&&&####OOOOOOXX..    --------",
"------  OO**OO    OOOO##&&&&&&&&&&&&&&&&&&##OOOOOOOOXX  --------",
"------  OO**OO    OOOO##&&&&&&&&&&&&&&&&&&##OOOOOOOOXX  --------",
"--------      XXOOOO&&&&&&&&&&&&&&&&&&&&&&&&&&OOOOXXXX..--------",
"--------      XXOOOO&&&&&&&&&&&&&&&&&&&&&&&&&&OOOOXXXX..--------",
"----------..XXXXXXOO&&&&&&&&&&&&&&&&&&&&&&&&&&OOXXXXXX..--------",
"----------..XXXXXXOO&&&&&&&&&&&&&&&&&&&&&&&&&&OOXXXXXX..--------",
"----------..XXXXXX##&&&&&&&&&&&&&&&&&&&&&&&&&&##XXXXXX..--------",
"----------..XXXXXX##&&&&&&&&&&&&&&&&&&&&&&&&&&##XXXXXX..--------",
"------------..XXXX####&&&&&&&&&&&&&&&&&&&&&&####XXXX..----------",
"------------..XXXX####&&&&&&&&&&&&&&&&&&&&&&####XXXX..----------",
"------------..XXXX########&&&&&&&&&&&&&&########XXXX..----------",
"------------..XXXX########&&&&&&&&&&&&&&########XXXX..----------",
"------------..  XX@@##########################@@XX  ..----------",
"------------..  XX@@##########################@@XX  ..----------",
"--------------..XX++@@######################@@++XX..------------",
"--------------..XX++@@######################@@++XX..------------",
"----------------..    @@@@##############@@@@    ..--------------",
"----------------..    @@@@##############@@@@    ..--------------",
"----------------oo++++                      ++++oo--------------",
"----------------oo++++                      ++++oo--------------",
"------------------        oo----------oo++%%@@%%  --------------",
"------------------        oo----------oo++%%@@%%  --------------",
"----------------------------------------        ----------------",
"----------------------------------------        ----------------",
"----------------------------------------------------------------",
"----------------------------------------------------------------"
};
