/* XPM */
static char *result[] = {
/* columns rows colors chars-per-pixel */
"64 64 13 1 ",
"  c black",
". c #283030",
"X c #284848",
"o c gray25",
"O c #406878",
"+ c #886848",
"@ c #D8C078",
"# c #508090",
"$ c #A0A0B8",
"% c #F8E0A8",
"& c #C0C0C8",
"* c #E8E8F8",
"= c None",
/* pixels */
"================================================================",
"================================================================",
"================================================================",
"================================================================",
"================================================================",
"================================================================",
"================================....============================",
"================================....============================",
"==============================  ##OO..==========================",
"==============================  ##OO..==========================",
"==========================..  ####    ..========================",
"==========================..  ####    ..========================",
"========================....OO##  OO##  ..======================",
"========================....OO##  OO##  ..======================",
"======================..######  OO####  OO..====================",
"======================..######  OO####  OO..====================",
"====================..##############OO..OOOO..==================",
"====================..##############OO..OOOO..==================",
"====================..##%%%%########OO..OOOO..==================",
"====================..##%%%%########OO..OOOO..==================",
"==================  @@%%%%%%########OOOOOOOOOO..================",
"==================  @@%%%%%%########OOOOOOOOOO..================",
"==================  %%%%%%%%%%OO##OOOOOOOOOOOO  ================",
"==================  %%%%%%%%%%OO##OOOOOOOOOOOO  ================",
"==================  %%  %%%%%%OOOOOOOOOOOOOOOO  ================",
"==================  %%  %%%%%%OOOOOOOOOOOOOOOO  ================",
"==================..@@@@  %%%%OOOOOOOOOOOOOOXXXX..==============",
"==================..@@@@  %%%%OOOOOOOOOOOOOOXXXX..==============",
"================oo@@++**@@@@%%OOOOOOOOOOOOOOXXOO..==============",
"================oo@@++**@@@@%%OOOOOOOOOOOOOOXXOO..==============",
"==============oo@@%%%%++@@@@OOOOOOOOOOOOOOXXOOOOOO..============",
"==============oo@@%%%%++@@@@OOOOOOOOOOOOOOXXOOOOOO..============",
"==============oo%%%%%%%%OOOOOOOOOOOOOOOOOOOOOOOOOO..============",
"==============oo%%%%%%%%OOOOOOOOOOOOOOOOOOOOOOOOOO..============",
"============oo%%%%%%%%%%%%OOOOOOOO######OOOOOOOOOOOO..==========",
"============oo%%%%%%%%%%%%OOOOOOOO######OOOOOOOOOOOO..==========",
"============oo%%%%%%%%%%%%++OO..OO########OOOOOOOOOO..==========",
"============oo%%%%%%%%%%%%++OO..OO########OOOOOOOOOO..==========",
"============oo%%%%%%%%%%%%%%++..OO########..OOOOOOOO..==========",
"============oo%%%%%%%%%%%%%%++..OO########..OOOOOOOO..==========",
"============oo@@%%%%%%%%%%%%@@....########..OOOOOOOO..==========",
"============oo@@%%%%%%%%%%%%@@....########..OOOOOOOO..==========",
"============oo@@@@%%%%%%%%%%%%OO..######OO  OOOOOOOO..==========",
"============oo@@@@%%%%%%%%%%%%OO..######OO  OOOOOOOO..==========",
"==============oo@@@@%%%%%%%%@@OO  &&OO&&  XXOOOOXXXX..==========",
"==============oo@@@@%%%%%%%%@@OO  &&OO&&  XXOOOOXXXX..==========",
"==============oo@@@@@@@@@@@@@@XXXX      XXXXXXXXXX..============",
"==============oo@@@@@@@@@@@@@@XXXX      XXXXXXXXXX..============",
"================  @@@@@@@@@@@@XXXXXXXXXXXXXXXXXXXX..============",
"================  @@@@@@@@@@@@XXXXXXXXXXXXXXXXXXXX..============",
"==================  @@@@@@@@XXXXXXXXXXXXXXXXXXXX  ==============",
"==================  @@@@@@@@XXXXXXXXXXXXXXXXXXXX  ==============",
"====================    XXXXXXXXXXXXXXXXXXXXXX  ================",
"====================    XXXXXXXXXXXXXXXXXXXXXX  ================",
"========================ooooXXXX......XXXX    ==================",
"========================ooooXXXX......XXXX    ==================",
"============================..  $$++++++++..====================",
"============================..  $$++++++++..====================",
"================================          ======================",
"================================          ======================",
"================================================================",
"================================================================",
"================================================================",
"================================================================"
};
