/* XPM */
static char *result[] = {
/* columns rows colors chars-per-pixel */
"64 64 13 1 ",
"  c black",
". c #283030",
"X c #284848",
"o c gray25",
"O c #406878",
"+ c #886848",
"@ c #D8C078",
"# c #508090",
"$ c #A0A0B8",
"% c #F8E0A8",
"& c #C0C0C8",
"* c #E8E8F8",
"= c None",
/* pixels */
"================================================================",
"================================================================",
"================================================================",
"================================================================",
"================================================================",
"================================================================",
"================================================================",
"================================================================",
"================================....============================",
"================================....============================",
"==============================  ##OO..==========================",
"==============================  ##OO..==========================",
"==========================..  ####    ..========================",
"==========================..  ####    ..========================",
"========================....OO##  OO##  ..======================",
"========================....OO##  OO##  ..======================",
"======================..######  OO####  OO..====================",
"======================..######  OO####  OO..====================",
"====================..##############OO..OOOO..==================",
"====================..##############OO..OOOO..==================",
"====================..##%%%%########OO..OOOO..==================",
"====================..##%%%%########OO..OOOO..==================",
"==================  @@%%%%%%########OOOOOOOOOO..================",
"==================  @@%%%%%%########OOOOOOOOOO..================",
"==================  %%%%%%%%%%OO##OOOOOOOOOOOO  ================",
"==================  %%%%%%%%%%OO##OOOOOOOOOOOO  ================",
"==================  %%  %%%%%%OOOOOOOOOOOOOOOO  ================",
"==================  %%  %%%%%%OOOOOOOOOOOOOOOO  ================",
"==================..@@@@  %%%%OOOOOOOOOOOOOOXXXX..==============",
"==================..@@@@  %%%%OOOOOOOOOOOOOOXXXX..==============",
"================oo@@++**@@@@%%OOOOOOOOOOOOOOXXOO..==============",
"================oo@@++**@@@@%%OOOOOOOOOOOOOOXXOO..==============",
"==============oo@@%%%%++@@@@OOOOOOOOOOOOOOXXOOOOOO..============",
"==============oo@@%%%%++@@@@OOOOOOOOOOOOOOXXOOOOOO..============",
"==============oo%%%%%%%%OOOOOOOOOOOOOOOOOOOOOOOOOO..============",
"==============oo%%%%%%%%OOOOOOOOOOOOOOOOOOOOOOOOOO..============",
"============oo%%%%%%%%%%%%OOOOOOOOOO######OOOOOOOOOO..==========",
"============oo%%%%%%%%%%%%OOOOOOOOOO######OOOOOOOOOO..==========",
"============oo%%%%%%%%%%%%++OOOO..OO########OOOOOOOO..==========",
"============oo%%%%%%%%%%%%++OOOO..OO########OOOOOOOO..==========",
"============oo%%%%%%%%%%%%%%++OO..OO########..OOOOOO..==========",
"============oo%%%%%%%%%%%%%%++OO..OO########..OOOOOO..==========",
"============oo@@%%%%%%%%%%%%@@XX....########..OOOOOO..==========",
"============oo@@%%%%%%%%%%%%@@XX....########..OOOOOO..==========",
"============oo@@@@%%%%%%%%%%%%XXXX..######OO  OOOOOO..==========",
"============oo@@@@%%%%%%%%%%%%XXXX..######OO  OOOOOO..==========",
"==============oo@@@@%%%%%%%%@@XXXXXX  &&OO&&  OOXXXX..==========",
"==============oo@@@@%%%%%%%%@@XXXXXX  &&OO&&  OOXXXX..==========",
"==============oo@@@@@@@@@@@@@@XXXXXXXX      XXXXXX..============",
"==============oo@@@@@@@@@@@@@@XXXXXXXX      XXXXXX..============",
"================  @@@@@@@@@@@@XXXXXXXXXXXXXXXXXXXX..============",
"================  @@@@@@@@@@@@XXXXXXXXXXXXXXXXXXXX..============",
"==================  @@@@@@@@XXXXXXXXXXXXXXXXXXXX  ==============",
"==================  @@@@@@@@XXXXXXXXXXXXXXXXXXXX  ==============",
"====================  ..XXXXXXXXXXXXXXXXXXXXXX  ================",
"====================  ..XXXXXXXXXXXXXXXXXXXXXX  ================",
"======================  ....XXXX..........    ==================",
"======================  ....XXXX..........    ==================",
"======================  $$++++++++......========================",
"======================  $$++++++++......========================",
"========================          ==============================",
"========================          ==============================",
"================================================================",
"================================================================"
};
