/* XPM */
static char *result[] = {
/* columns rows colors chars-per-pixel */
"64 64 13 1 ",
"  c black",
". c #283030",
"X c #284848",
"o c gray25",
"O c #406878",
"+ c #886848",
"@ c #D8C078",
"# c #508090",
"$ c #A0A0B8",
"% c #F8E0A8",
"& c #C0C0C8",
"* c #E8E8F8",
"= c None",
/* pixels */
"================================================================",
"================================================================",
"================================================================",
"================================================================",
"================================================================",
"================================================================",
"============================....================================",
"============================....================================",
"==========================..OO##  ==============================",
"==========================..OO##  ==============================",
"========================..    ####  ..==========================",
"========================..    ####  ..==========================",
"======================..  ##OO  ##OO....========================",
"======================..  ##OO  ##OO....========================",
"====================..OO  ####OO  ######..======================",
"====================..OO  ####OO  ######..======================",
"==================..OOOO..OO##############..====================",
"==================..OOOO..OO##############..====================",
"==================..OOOO..OO########%%%%##..====================",
"==================..OOOO..OO########%%%%##..====================",
"================..OOOOOOOOOO########%%%%%%@@  ==================",
"================..OOOOOOOOOO########%%%%%%@@  ==================",
"================  OOOOOOOOOOOO##OO%%%%%%%%%%  ==================",
"================  OOOOOOOOOOOO##OO%%%%%%%%%%  ==================",
"================  OOOOOOOOOOOOOOOO%%%%%%  %%  ==================",
"================  OOOOOOOOOOOOOOOO%%%%%%  %%  ==================",
"==============..XXXXOOOOOOOOOOOOOO%%%%  @@@@..==================",
"==============..XXXXOOOOOOOOOOOOOO%%%%  @@@@..==================",
"==============..OOXXOOOOOOOOOOOOOO%%@@@@**++@@oo================",
"==============..OOXXOOOOOOOOOOOOOO%%@@@@**++@@oo================",
"============..OOOOOOXXOOOOOOOOOOOOOO@@@@++%%%%@@oo==============",
"============..OOOOOOXXOOOOOOOOOOOOOO@@@@++%%%%@@oo==============",
"============..OOOOOOOOOOOOOOOOOOOOOOOOOO%%%%%%%%oo==============",
"============..OOOOOOOOOOOOOOOOOOOOOOOOOO%%%%%%%%oo==============",
"==========..OOOOOOOOOOOO######OOOOOOOO%%%%%%%%%%%%oo============",
"==========..OOOOOOOOOOOO######OOOOOOOO%%%%%%%%%%%%oo============",
"==========..OOOOOOOOOO########OO..OO++%%%%%%%%%%%%oo============",
"==========..OOOOOOOOOO########OO..OO++%%%%%%%%%%%%oo============",
"==========..OOOOOOOO..########OO..++%%%%%%%%%%%%%%oo============",
"==========..OOOOOOOO..########OO..++%%%%%%%%%%%%%%oo============",
"==========..OOOOOOOO..########....@@%%%%%%%%%%%%@@oo============",
"==========..OOOOOOOO..########....@@%%%%%%%%%%%%@@oo============",
"==========..OOOOOOOO  OO######..OO%%%%%%%%%%%%@@@@oo============",
"==========..OOOOOOOO  OO######..OO%%%%%%%%%%%%@@@@oo============",
"==========..XXXXOOOOXX  &&OO&&  OO@@%%%%%%%%@@@@oo==============",
"==========..XXXXOOOOXX  &&OO&&  OO@@%%%%%%%%@@@@oo==============",
"============..XXXXXXXXXX      XXXX@@@@@@@@@@@@@@oo==============",
"============..XXXXXXXXXX      XXXX@@@@@@@@@@@@@@oo==============",
"============..XXXXXXXXXXXXXXXXXXXX@@@@@@@@@@@@  ================",
"============..XXXXXXXXXXXXXXXXXXXX@@@@@@@@@@@@  ================",
"==============  XXXXXXXXXXXXXXXXXXXX@@@@@@@@  ==================",
"==============  XXXXXXXXXXXXXXXXXXXX@@@@@@@@  ==================",
"================  XXXXXXXXXXXXXXXXXXXXXX    ====================",
"================  XXXXXXXXXXXXXXXXXXXXXX    ====================",
"==================    XXXX......XXXXoooo========================",
"==================    XXXX......XXXXoooo========================",
"====================..++++++++$$  ..============================",
"====================..++++++++$$  ..============================",
"======================          ================================",
"======================          ================================",
"================================================================",
"================================================================",
"================================================================",
"================================================================"
};
