/* XPM */
static char *result[] = {
/* columns rows colors chars-per-pixel */
"64 64 8 1 ",
"  c black",
". c #283030",
"X c #284848",
"o c gray25",
"O c #406878",
"+ c #886848",
"@ c #508090",
"# c None",
/* pixels */
"################################################################",
"################################################################",
"################################################################",
"################################################################",
"################################################################",
"################################################################",
"################################################################",
"################################################################",
"################################################################",
"################################################################",
"######################..  ##############  ..####################",
"######################..  ##############  ..####################",
"####################..@@OO  ..........  OO@@..##################",
"####################..@@OO  ..........  OO@@..##################",
"####################..@@@@OO  OOOOOO  OO@@@@..##################",
"####################..@@@@OO  OOOOOO  OO@@@@..##################",
"####################..@@@@@@OO@@@@@@OO@@@@@@..##################",
"####################..@@@@@@OO@@@@@@OO@@@@@@..##################",
"####################..OO@@@@@@@@@@@@@@@@@@OO..##################",
"####################..OO@@@@@@@@@@@@@@@@@@OO..##################",
"##################..OOOO@@@@@@@@@@@@@@@@@@OOOO..################",
"##################..OOOO@@@@@@@@@@@@@@@@@@OOOO..################",
"##################  OOOOOO@@@@@@@@@@@@@@OOOOOO  ################",
"##################  OOOOOO@@@@@@@@@@@@@@OOOOOO  ################",
"##################  OOOOOOOOOO@@@@@@OOOOOOOOOO  ################",
"##################  OOOOOOOOOO@@@@@@OOOOOOOOOO  ################",
"################..  OOOOOOOOOOOOOOOOOOOOOOOOOO  ....############",
"################..  OOOOOOOOOOOOOOOOOOOOOOOOOO  ....############",
"############....OOXX  OOOOOOOOOOOOOOOOOOOOOO  XXOOOO....########",
"############....OOXX  OOOOOOOOOOOOOOOOOOOOOO  XXOOOO....########",
"##########..@@OOOOOOOO  OOOOOOOOOOOOOOOOOO  OOOOOOOO@@@@..######",
"##########..@@OOOOOOOO  OOOOOOOOOOOOOOOOOO  OOOOOOOO@@@@..######",
"########..@@@@@@OOOOOOOO                  OOOOOOOO@@@@@@OO..####",
"########..@@@@@@OOOOOOOO                  OOOOOOOO@@@@@@OO..####",
"######..OO@@@@OOOOOOOOOOOOOOOOOOOOOOOOOOOOOOOOXXOOOO@@OOOO..####",
"######..OO@@@@OOOOOOOOOOOOOOOOOOOOOOOOOOOOOOOOXXOOOO@@OOOO..####",
"######..OOOOOOOO..OOOOOOOOOOOOOOOOOOOOOOOOOOOOOO....OOOOOO  ####",
"######..OOOOOOOO..OOOOOOOOOOOOOOOOOOOOOOOOOOOOOO....OOOOOO  ####",
"######  OOOO....OOOOOOOOOOOOOOOOOOOOOOOOOOOOOOOOOOOO..    ######",
"######  OOOO....OOOOOOOOOOOOOOOOOOOOOOOOOOOOOOOOOOOO..    ######",
"########    XXXXOOOOOOOOOOOOOOOOOOOOOOOOOOOOOOOOOOOOXX..########",
"########    XXXXOOOOOOOOOOOOOOOOOOOOOOOOOOOOOOOOOOOOXX..########",
"##########..XXXXOOOOOOOOOOOOOOOOOOOOOOOOOOOOOOOOOOXXXX..########",
"##########..XXXXOOOOOOOOOOOOOOOOOOOOOOOOOOOOOOOOOOXXXX..########",
"##########..XXXXXXOOOOOOOOOOOOOOOOOOOOOOOOOOOOOOXXXXXX..########",
"##########..XXXXXXOOOOOOOOOOOOOOOOOOOOOOOOOOOOOOXXXXXX..########",
"############  XXXXXXXXOOOOOOOOOOOOOOOOOOOOOOXXXXXXXX  ##########",
"############  XXXXXXXXOOOOOOOOOOOOOOOOOOOOOOXXXXXXXX  ##########",
"############  XXXXXXXXXXXXXXOOOOOOOOOOXXXXXXXXXXXXXX  ##########",
"############  XXXXXXXXXXXXXXOOOOOOOOOOXXXXXXXXXXXXXX  ##########",
"##############  XXXXXXXXXXXXXXXXXXXXXXXXXXXXXXXXXX  ############",
"##############  XXXXXXXXXXXXXXXXXXXXXXXXXXXXXXXXXX  ############",
"##############..XXXXXXXXXXXXXXXXXXXXXXXXXXXXXXXXXX..############",
"##############..XXXXXXXXXXXXXXXXXXXXXXXXXXXXXXXXXX..############",
"################..    XXXXXXXXXXXXXXXXXXXXXX    ..##############",
"################..    XXXXXXXXXXXXXXXXXXXXXX    ..##############",
"################  ++++                      ++++oo##############",
"################  ++++                      ++++oo##############",
"##################        oo##########oo++++++++  ##############",
"##################        oo##########oo++++++++  ##############",
"########################################        ################",
"########################################        ################",
"################################################################",
"################################################################"
};
