/* XPM */
static char *result[] = {
/* columns rows colors chars-per-pixel */
"64 64 8 1 ",
"  c black",
". c #283030",
"X c #284848",
"o c gray25",
"O c #406878",
"+ c #886848",
"@ c #508090",
"# c None",
/* pixels */
"################################################################",
"################################################################",
"################################################################",
"################################################################",
"################################################################",
"################################################################",
"################################################################",
"################################################################",
"######################..  ##############  ..####################",
"######################..  ##############  ..####################",
"####################..@@OO  ..........  OO@@..##################",
"####################..@@OO  ..........  OO@@..##################",
"####################..@@@@OO  OOOOOO  OO@@@@..##################",
"####################..@@@@OO  OOOOOO  OO@@@@..##################",
"####################..@@@@@@OO@@@@@@OO@@@@@@..##################",
"####################..@@@@@@OO@@@@@@OO@@@@@@..##################",
"####################..OO@@@@@@@@@@@@@@@@@@OO..##################",
"####################..OO@@@@@@@@@@@@@@@@@@OO..##################",
"##################..OOOO@@@@@@@@@@@@@@@@@@OOOO..################",
"##################..OOOO@@@@@@@@@@@@@@@@@@OOOO..################",
"##################  OOOOOO@@@@@@@@@@@@@@OOOOOO  ################",
"##################  OOOOOO@@@@@@@@@@@@@@OOOOOO  ################",
"##################  OOOOOOOOOO@@@@@@OOOOOOOOOO  ################",
"##################  OOOOOOOOOO@@@@@@OOOOOOOOOO  ################",
"################..  OOOOOOOOOOOOOOOOOOOOOOOOOO  ..##############",
"################..  OOOOOOOOOOOOOOOOOOOOOOOOOO  ..##############",
"############....OOXX  OOOOOOOOOOOOOOOOOOOOOO  XXOO....##########",
"############....OOXX  OOOOOOOOOOOOOOOOOOOOOO  XXOO....##########",
"##########..@@OOOOOOOO  OOOOOOOOOOOOOOOOOO  OOOOOOOO@@..########",
"##########..@@OOOOOOOO  OOOOOOOOOOOOOOOOOO  OOOOOOOO@@..########",
"########..@@@@@@OOOOOOOO                  OOOOOOOO@@@@@@..######",
"########..@@@@@@OOOOOOOO                  OOOOOOOO@@@@@@..######",
"######..OO@@@@OOOOOOOOOOOOOOOOOOOOOOOOOOOOOOOOOOOOOO@@@@OO..####",
"######..OO@@@@OOOOOOOOOOOOOOOOOOOOOOOOOOOOOOOOOOOOOO@@@@OO..####",
"######..OOOOOOOO..OOOOOOOOOOOOOOOOOOOOOOOOOOOOOO..OOOOOOOO..####",
"######..OOOOOOOO..OOOOOOOOOOOOOOOOOOOOOOOOOOOOOO..OOOOOOOO..####",
"######  OOOO....OOOOOOOOOOOOOOOOOOOOOOOOOOOOOOOOOO....OOOO  ####",
"######  OOOO....OOOOOOOOOOOOOOOOOOOOOOOOOOOOOOOOOO....OOOO  ####",
"########    XXXXOOOOOOOOOOOOOOOOOOOOOOOOOOOOOOOOOOXXXX    ######",
"########    XXXXOOOOOOOOOOOOOOOOOOOOOOOOOOOOOOOOOOXXXX    ######",
"##########..XXXXOOOOOOOOOOOOOOOOOOOOOOOOOOOOOOOOOOXXXX..########",
"##########..XXXXOOOOOOOOOOOOOOOOOOOOOOOOOOOOOOOOOOXXXX..########",
"##########..XXXXXXOOOOOOOOOOOOOOOOOOOOOOOOOOOOOOXXXXXX..########",
"##########..XXXXXXOOOOOOOOOOOOOOOOOOOOOOOOOOOOOOXXXXXX..########",
"############  XXXXXXXXOOOOOOOOOOOOOOOOOOOOOOXXXXXXXX  ##########",
"############  XXXXXXXXOOOOOOOOOOOOOOOOOOOOOOXXXXXXXX  ##########",
"############  XXXXXXXXXXXXXXOOOOOOOOOOXXXXXXXXXXXXXX  ##########",
"############  XXXXXXXXXXXXXXOOOOOOOOOOXXXXXXXXXXXXXX  ##########",
"##############  XXXXXXXXXXXXXXXXXXXXXXXXXXXXXXXXXX  ############",
"##############  XXXXXXXXXXXXXXXXXXXXXXXXXXXXXXXXXX  ############",
"##############..XXXXXXXXXXXXXXXXXXXXXXXXXXXXXXXXXX..############",
"##############..XXXXXXXXXXXXXXXXXXXXXXXXXXXXXXXXXX..############",
"################..    XXXXXXXXXXXXXXXXXXXXXX    ..##############",
"################..    XXXXXXXXXXXXXXXXXXXXXX    ..##############",
"################  ++++                      ++++  ##############",
"################  ++++                      ++++  ##############",
"##################        oo##########oo        ################",
"##################        oo##########oo        ################",
"################################################################",
"################################################################",
"################################################################",
"################################################################",
"################################################################",
"################################################################"
};
