/* XPM */
static char *_9664ef323bc4ec4c7e2f594c0e28abe6a37xPIbcTELXanb[] = {
/* columns rows colors chars-per-pixel */
"64 64 5 1 ",
"  c #385000",
". c #388830",
"X c #18A068",
"o c #80C060",
"O c #40B080",
/* pixels */
"OOOOOOOOOOOOOOOOOOOOOOOOOOOOOOOOOOOOOOOOOOOOOOOOOOOOOOOOOOOOOOOO",
"OOOOOOOOOOOOOOOOOOOOOOOOOOOOOOOOOOOOOOOOOOOOOOOOOOOOOOOOOOOOOOOO",
"OOOOOOOOOOOOOOOOOOOOOOOOOOOOOOOOOOOOOOOOOOOOOOOOOOOOOOOOOOOOOOOO",
"OOOOOOOOOOOOOOOOOOOOOOOOOOOOOOOOOOOOOOOOOOOOOOOOOOOOOOOOOOOOOOOO",
"OOOO............OOOOOOOO........OOOOOOOO................OOOOOOOO",
"OOOO............OOOOOOOO........OOOOOOOO................OOOOOOOO",
"OOOO............OOOOOOOO........OOOOOOOO................OOOOOOOO",
"OOOO............OOOOOOOO........OOOOOOOO................OOOOOOOO",
"OOOO    XXXXOOOO....    XXXXXXXX    ....OOOOOOOOXXXX....OOOOOOOO",
"OOOO    XXXXOOOO....    XXXXXXXX    ....OOOOOOOOXXXX....OOOOOOOO",
"OOOO    XXXXOOOO....    XXXXXXXX    ....OOOOOOOOXXXX....OOOOOOOO",
"OOOO    XXXXOOOO....    XXXXXXXX    ....OOOOOOOOXXXX....OOOOOOOO",
"OOOOOOOO    OOOOOOOOoooo    ....    OOOOoooo    ....OOOOOOOOOOOO",
"OOOOOOOO    OOOOOOOOoooo    ....    OOOOoooo    ....OOOOOOOOOOOO",
"OOOOOOOO    OOOOOOOOoooo    ....    OOOOoooo    ....OOOOOOOOOOOO",
"OOOOOOOO    OOOOOOOOoooo    ....    OOOOoooo    ....OOOOOOOOOOOO",
"OOOO    ....    ooooOOOO....    OOOOXXXX    ........    OOOOOOOO",
"OOOO    ....    ooooOOOO....    OOOOXXXX    ........    OOOOOOOO",
"OOOO    ....    ooooOOOO....    OOOOXXXX    ........    OOOOOOOO",
"OOOO    ....    ooooOOOO....    OOOOXXXX    ........    OOOOOOOO",
"    XXXX....        ........    ........            OOOOOOOOOOOO",
"    XXXX....        ........    ........            OOOOOOOOOOOO",
"    XXXX....        ........    ........            OOOOOOOOOOOO",
"    XXXX....        ........    ........            OOOOOOOOOOOO",
"OOOO        OOOOXXXX....        ....    ....OOOOoooo    OOOOOOOO",
"OOOO        OOOOXXXX....        ....    ....OOOOoooo    OOOOOOOO",
"OOOO        OOOOXXXX....        ....    ....OOOOoooo    OOOOOOOO",
"OOOO        OOOOXXXX....        ....    ....OOOOoooo    OOOOOOOO",
"OOOO....ooooOOOO................    ........XXXXooooOOOO....OOOO",
"OOOO....ooooOOOO................    ........XXXXooooOOOO....OOOO",
"OOOO....ooooOOOO................    ........XXXXooooOOOO....OOOO",
"OOOO....ooooOOOO................    ........XXXXooooOOOO....OOOO",
"OOOO....OOOOoooo                ....                XXXX....OOOO",
"OOOO....OOOOoooo                ....                XXXX....OOOO",
"OOOO....OOOOoooo                ....                XXXX....OOOO",
"OOOO....OOOOoooo                ....                XXXX....OOOO",
"OOOO    OOOO    ............    ............    ....        OOOO",
"OOOO    OOOO    ............    ............    ....        OOOO",
"OOOO    OOOO    ............    ............    ....        OOOO",
"OOOO    OOOO    ............    ............    ....        OOOO",
"OOOO            oooo........    ........XXXXOOOO        OOOOOOOO",
"OOOO            oooo........    ........XXXXOOOO        OOOOOOOO",
"OOOO            oooo........    ........XXXXOOOO        OOOOOOOO",
"OOOO            oooo........    ........XXXXOOOO        OOOOOOOO",
"OOOO........    OOOOoooo    ....    OOOOOOOOoooo    ....    OOOO",
"OOOO........    OOOOoooo    ....    OOOOOOOOoooo    ....    OOOO",
"OOOO........    OOOOoooo    ....    OOOOOOOOoooo    ....    OOOO",
"OOOO........    OOOOoooo    ....    OOOOOOOOoooo    ....    OOOO",
"OOOO........    OOOOOOOO    ........    ooooOOOO            OOOO",
"OOOO........    OOOOOOOO    ........    ooooOOOO            OOOO",
"OOOO........    OOOOOOOO    ........    ooooOOOO            OOOO",
"OOOO........    OOOOOOOO    ........    ooooOOOO            OOOO",
"OOOOXXXX........            XXXX    ....    XXXX    ....OOOOOOOO",
"OOOOXXXX........            XXXX    ....    XXXX    ....OOOOOOOO",
"OOOOXXXX........            XXXX    ....    XXXX    ....OOOOOOOO",
"OOOOXXXX........            XXXX    ....    XXXX    ....OOOOOOOO",
"OOOOOOOOXXXX................        ........    ....XXXXOOOOOOOO",
"OOOOOOOOXXXX................        ........    ....XXXXOOOOOOOO",
"OOOOOOOOXXXX................        ........    ....XXXXOOOOOOOO",
"OOOOOOOOXXXX................        ........    ....XXXXOOOOOOOO",
"OOOOOOOOOOOOOOOOOOOOOOOOOOOOOOOOOOOOOOOOOOOOOOOOOOOOOOOOOOOOOOOO",
"OOOOOOOOOOOOOOOOOOOOOOOOOOOOOOOOOOOOOOOOOOOOOOOOOOOOOOOOOOOOOOOO",
"OOOOOOOOOOOOOOOOOOOOOOOOOOOOOOOOOOOOOOOOOOOOOOOOOOOOOOOOOOOOOOOO",
"OOOOOOOOOOOOOOOOOOOOOOOOOOOOOOOOOOOOOOOOOOOOOOOOOOOOOOOOOOOOOOOO"
};
