/* XPM */
static char *_ee61f9aa66c4a5ca78a501939cef326hFBJqKZAdudq8WfQ[] = {
/* columns rows colors chars-per-pixel */
"32 32 5 1 ",
"  c #385000",
". c #388830",
"X c #18A068",
"o c #80C060",
"O c #40B080",
/* pixels */
"OOOOOOOOOOOOOOOOOOOOOOOOOOOOOOOO",
"OOOOOOOOOOOOOOOOOOOOOOOOOOOOOOOO",
"OOOO........OOOO....OOOO......OO",
"OOOO........OOOO....OOOO......OO",
"OOOO..XXOOOO..  XXXX  ..OOXX  OO",
"OOOO..XXOOOO..  XXXX  ..OOXX  OO",
"OOOOOO..  ooOO  ..  ooOOOO  OOOO",
"OOOOOO..  ooOO  ..  ooOOOO  OOOO",
"OOOO  ....  XXOO  ..OOoo  ..  OO",
"OOOO  ....  XXOO  ..OOoo  ..  OO",
"OOOOOO      ....  ....    ..XX  ",
"OOOOOO      ....  ....    ..XX  ",
"OOOO  ooOO..  ..    ..XXOO    OO",
"OOOO  ooOO..  ..    ..XXOO    OO",
"OO..OOooXX....  ........OOoo..OO",
"OO..OOooXX....  ........OOoo..OO",
"OO..XX        ..        ooOO..OO",
"OO..XX        ..        ooOO..OO",
"OO    ..  ......  ......  OO  OO",
"OO    ..  ......  ......  OO  OO",
"OOOO    OOXX....  ....oo      OO",
"OOOO    OOXX....  ....oo      OO",
"OO  ..  ooOOOO  ..  ooOO  ....OO",
"OO  ..  ooOOOO  ..  ooOO  ....OO",
"OO      OOoo  ....  OOOO  ....OO",
"OO      OOoo  ....  OOOO  ....OO",
"OOOO..  XX  ..  XX      ....XXOO",
"OOOO..  XX  ..  XX      ....XXOO",
"OOOOXX..  ....    ........XXOOOO",
"OOOOXX..  ....    ........XXOOOO",
"OOOOOOOOOOOOOOOOOOOOOOOOOOOOOOOO",
"OOOOOOOOOOOOOOOOOOOOOOOOOOOOOOOO"
};
