/* XPM */
static char *wall1683689032[] = {
/* columns rows colors chars-per-pixel */
"64 64 5 1 ",
"  c #385000",
". c #388830",
"X c #18A068",
"o c #80C060",
"O c #40B080",
/* pixels */
"OOOOOOOOOOOOOOOOOOOOOOOOOOOOOOOOOOOOOOOOOOOOOOOOOOOOOOOOOOOOOOOO",
"OOOOOOOOOOOOOOOOOOOOOOOOOOOOOOOOOOOOOOOOOOOOOOOOOOOOOOOOOOOOOOOO",
"OOOOOOOOOOOOOOOOOOOOOOOOOOOOOOOOOOOOOOOOOOOOOOOOOOOOOOOOOOOOOOOO",
"OOOOOOOOOOOOOOOOOOOOOOOOOOOOOOOOOOOOOOOOOOOOOOOOOOOOOOOOOOOOOOOO",
"OOOOOOOO................OOOOOOOO........OOOOOOOO............OOOO",
"OOOOOOOO................OOOOOOOO........OOOOOOOO............OOOO",
"OOOOOOOO................OOOOOOOO........OOOOOOOO............OOOO",
"OOOOOOOO................OOOOOOOO........OOOOOOOO............OOOO",
"OOOOOOOO....XXXXOOOOOOOO....    XXXXXXXX    ....OOOOXXXX    OOOO",
"OOOOOOOO....XXXXOOOOOOOO....    XXXXXXXX    ....OOOOXXXX    OOOO",
"OOOOOOOO....XXXXOOOOOOOO....    XXXXXXXX    ....OOOOXXXX    OOOO",
"OOOOOOOO....XXXXOOOOOOOO....    XXXXXXXX    ....OOOOXXXX    OOOO",
"OOOOOOOOOOOO....    ooooOOOO    ....    ooooOOOOOOOO    OOOOOOOO",
"OOOOOOOOOOOO....    ooooOOOO    ....    ooooOOOOOOOO    OOOOOOOO",
"OOOOOOOOOOOO....    ooooOOOO    ....    ooooOOOOOOOO    OOOOOOOO",
"OOOOOOOOOOOO....    ooooOOOO    ....    ooooOOOOOOOO    OOOOOOOO",
"OOOOOOOO    ........    XXXXOOOO    ....OOOOoooo    ....    OOOO",
"OOOOOOOO    ........    XXXXOOOO    ....OOOOoooo    ....    OOOO",
"OOOOOOOO    ........    XXXXOOOO    ....OOOOoooo    ....    OOOO",
"OOOOOOOO    ........    XXXXOOOO    ....OOOOoooo    ....    OOOO",
"OOOOOOOOOOOO            ........    ........        ....XXXX    ",
"OOOOOOOOOOOO            ........    ........        ....XXXX    ",
"OOOOOOOOOOOO            ........    ........        ....XXXX    ",
"OOOOOOOOOOOO            ........    ........        ....XXXX    ",
"OOOOOOOO    ooooOOOO....    ....        ....XXXXOOOO        OOOO",
"OOOOOOOO    ooooOOOO....    ....        ....XXXXOOOO        OOOO",
"OOOOOOOO    ooooOOOO....    ....        ....XXXXOOOO        OOOO",
"OOOOOOOO    ooooOOOO....    ....        ....XXXXOOOO        OOOO",
"OOOO....OOOOooooXXXX........    ................OOOOoooo....OOOO",
"OOOO....OOOOooooXXXX........    ................OOOOoooo....OOOO",
"OOOO....OOOOooooXXXX........    ................OOOOoooo....OOOO",
"OOOO....OOOOooooXXXX........    ................OOOOoooo....OOOO",
"OOOO....XXXX                ....                ooooOOOO....OOOO",
"OOOO....XXXX                ....                ooooOOOO....OOOO",
"OOOO....XXXX                ....                ooooOOOO....OOOO",
"OOOO....XXXX                ....                ooooOOOO....OOOO",
"OOOO        ....    ............    ............    OOOO    OOOO",
"OOOO        ....    ............    ............    OOOO    OOOO",
"OOOO        ....    ............    ............    OOOO    OOOO",
"OOOO        ....    ............    ............    OOOO    OOOO",
"OOOOOOOO        OOOOXXXX........    ........oooo            OOOO",
"OOOOOOOO        OOOOXXXX........    ........oooo            OOOO",
"OOOOOOOO        OOOOXXXX........    ........oooo            OOOO",
"OOOOOOOO        OOOOXXXX........    ........oooo            OOOO",
"OOOO    ....    ooooOOOOOOOO    ....    ooooOOOO    ........OOOO",
"OOOO    ....    ooooOOOOOOOO    ....    ooooOOOO    ........OOOO",
"OOOO    ....    ooooOOOOOOOO    ....    ooooOOOO    ........OOOO",
"OOOO    ....    ooooOOOOOOOO    ....    ooooOOOO    ........OOOO",
"OOOO            OOOOoooo    ........    OOOOOOOO    ........OOOO",
"OOOO            OOOOoooo    ........    OOOOOOOO    ........OOOO",
"OOOO            OOOOoooo    ........    OOOOOOOO    ........OOOO",
"OOOO            OOOOoooo    ........    OOOOOOOO    ........OOOO",
"OOOOOOOO....    XXXX    ....    XXXX            ........XXXXOOOO",
"OOOOOOOO....    XXXX    ....    XXXX            ........XXXXOOOO",
"OOOOOOOO....    XXXX    ....    XXXX            ........XXXXOOOO",
"OOOOOOOO....    XXXX    ....    XXXX            ........XXXXOOOO",
"OOOOOOOOXXXX....    ........        ................XXXXOOOOOOOO",
"OOOOOOOOXXXX....    ........        ................XXXXOOOOOOOO",
"OOOOOOOOXXXX....    ........        ................XXXXOOOOOOOO",
"OOOOOOOOXXXX....    ........        ................XXXXOOOOOOOO",
"OOOOOOOOOOOOOOOOOOOOOOOOOOOOOOOOOOOOOOOOOOOOOOOOOOOOOOOOOOOOOOOO",
"OOOOOOOOOOOOOOOOOOOOOOOOOOOOOOOOOOOOOOOOOOOOOOOOOOOOOOOOOOOOOOOO",
"OOOOOOOOOOOOOOOOOOOOOOOOOOOOOOOOOOOOOOOOOOOOOOOOOOOOOOOOOOOOOOOO",
"OOOOOOOOOOOOOOOOOOOOOOOOOOOOOOOOOOOOOOOOOOOOOOOOOOOOOOOOOOOOOOOO"
};
