/* XPM */
static char *_c264179e0e44091ebfcc4707d84251aG7dm74CTH6ibx4R9[] = {
/* columns rows colors chars-per-pixel */
"16 16 8 1 ",
"  c #090609",
". c #150F14",
"X c gray10",
"o c gray22",
"O c #7BB524",
"+ c #9BD940",
"@ c #ADE061",
"# c #BDE680",
/* pixels */
"@O+##O#O@#+#O@@@",
"O@+#OO+O@+OOOOO@",
"O++#O@O+O@OO@+@#",
"@+#+OOO+##O+O@O#",
"O#+O........##O+",
"@@..oooooooo..@+",
"#.XXoXoooXooXX.O",
"+ .XXoXoXoXXX. @",
"O .XXXXXXXXXX. +",
"@ ....X.X.X... O",
"@#  ........  ##",
"###O        @+#O",
"#+OO@#@#O@##@++O",
"+O#O@#@@OOO@O@O@",
"O@@#+O+OO+#OO@#O",
"O@#OO@+@O#+O@#@O"
};
