/* XPM */
static char *eca2b5a3781347cca81890c0ef11e7a66oegzJei759w59gd[] = {
/* columns rows colors chars-per-pixel */
"16 16 19 1 ",
"  c black",
". c #3E5F10",
"X c #4E7216",
"o c #5E4022",
"O c #A56927",
"+ c #C17B2F",
"@ c #5F8B1B",
"# c #61971A",
"$ c #6CA81D",
"% c #77B327",
"& c #7BB524",
"* c #89CA28",
"= c #96CB2C",
"- c #96D735",
"; c #C28D58",
": c #9BD940",
"> c #B6E340",
", c #ADE061",
"< c #BDE680",
/* pixels */
",&:<<&    :<&,,,",
"&,:<& >--% &&&&,",
"&::< %#>>#X ,:,<",
",:<: --&%&# &,&<",
"&<: X%-==#X. <&:",
",,& -#%##X&X &,:",
"<< X>-*=-&&=. &&",
":& &X>---==XX <,",
"& X=&#>>==#&@. :",
", ..&&$###=@.. &",
", X.@&&&&&&.XX <",
"<< @X.XXX..X. <&",
"<:&  XX@@XX  ::&",
":&<&,      ,&,&,",
"&,,< o+O;+o &,<&",
"&,<&& oOOo &,<,&"
};
